<svg xmlns="http://www.w3.org/2000/svg" width="250" height="500" viewBox="0 0 253 605">
<g>
<path d="M 187.75,594.01 L 186.13,594.13 L 186.13,594.13 L 187.75,594.01 L 188.41,593.94 M 181.45,593.91 L 182.51,594.06 L 183.18,594.10 L 185.73,594.13 L 183.18,594.10 L 182.51,594.06 L 181.45,593.91 L 180.98,593.82 L 180.98,593.82 M 51.42,592.15 L 50.72,592.52 L 50.31,592.68 L 49.07,592.85 L 48.37,592.91 L 46.42,592.90 L 45.76,592.87 L 45.98,592.86 L 48.74,592.67 L 49.76,592.48 L 50.71,592.28 L 51.05,592.16 L 51.62,591.90 M 33.25,591.44 L 35.43,591.91 L 36.87,592.21 L 36.18,592.13 L 35.39,592.03 L 34.15,591.77 L 33.58,591.64 L 32.91,591.37 M 31.08,588.77 L 31.05,588.62 L 31.01,587.49 M 35.33,535.13 L 35.03,538.46 L 34.45,544.94 L 34.19,547.93 L 33.68,553.75 L 33.45,556.41 L 33.00,561.56 L 32.80,563.88 L 32.42,568.35 L 32.25,570.33 L 31.94,574.13 L 31.80,575.77 L 31.55,578.88 L 31.45,580.18 L 31.27,582.61 L 31.20,583.57 L 31.09,585.31 L 31.05,585.92 L 31.00,586.97 L 31.00,587.14 L 31.00,587.14 L 31.00,586.88 L 31.05,585.84 L 31.09,585.23 L 31.20,583.49 L 31.27,582.53 L 31.46,580.09 L 31.56,578.78 L 31.81,575.66 L 31.94,574.01 L 32.26,570.20 L 32.43,568.20 L 32.81,563.71 L 33.01,561.39 L 33.46,556.22 L 33.70,553.56 L 34.21,547.72 L 34.47,544.72 L 35.05,538.23 L 35.35,534.90 L 35.77,530.24 M 114.19,543.72 L 113.93,544.83 L 113.41,547.18 L 113.14,548.57 L 112.61,551.47 L 112.34,553.14 L 111.78,556.63 L 111.79,556.61 L 112.34,553.09 L 112.62,551.41 L 113.15,548.50 L 113.42,547.11 L 113.94,544.76 L 114.20,543.65 L 114.64,542.11 M 188.60,511.93 L 188.88,515.00 L 189.42,520.92 L 189.68,523.84 L 190.18,529.46 L 190.42,532.23 L 190.89,537.54 L 191.12,540.15 L 191.55,545.14 L 191.76,547.59 L 191.94,549.70 L 191.76,547.63 L 191.35,542.89 L 191.13,540.40 L 190.68,535.35 L 190.45,532.71 L 189.97,527.36 L 189.72,524.57 L 189.21,518.93 L 188.94,516.00 L 187.55,500.81 L 186.67,491.13 L 186.26,486.59 L 185.46,477.71 L 185.09,473.65 L 184.73,469.65 L 184.56,467.76 L 184.22,464.05 L 184.06,462.31 L 183.76,458.91 L 183.62,457.34 L 183.34,454.28 L 183.22,452.89 L 182.98,450.19 L 182.87,448.99 L 182.66,446.69 L 182.58,445.69 L 182.41,443.81 L 182.34,443.03 L 182.21,441.59 L 182.17,441.04 L 182.13,440.63 M 173.36,547.53 L 173.64,547.70 L 174.08,547.83 L 174.28,547.85 L 174.46,547.75 L 174.46,547.88 L 174.43,547.91 L 173.96,547.88 L 173.45,547.60 L 173.32,547.50 M 168.02,542.19 L 169.70,544.09 L 170.24,544.69 L 171.07,545.55 L 170.76,545.24 L 168.96,543.35 L 168.13,542.35 L 167.69,541.79 M 56.55,543.57 L 56.53,543.88 L 56.57,543.33 M 114.72,541.84 L 114.72,541.82 L 114.75,541.72 M 114.98,540.99 L 114.98,540.97 L 115.08,540.73 M 166.72,540.55 L 166.77,540.62 L 166.56,540.35 L 166.05,539.50 L 166.04,539.49 M 58.37,523.02 L 58.10,526.14 L 57.57,532.15 L 57.31,535.11 L 56.93,539.29 L 57.42,533.89 L 57.67,530.96 L 58.55,520.88 M 199.70,300.89 L 200.02,303.14 L 200.31,307.62 L 200.39,309.84 L 200.22,314.18 L 200.07,316.32 L 199.44,320.38 L 197.99,326.00 L 197.65,327.03 L 196.97,329.53 L 196.63,330.83 L 196.00,333.71 L 195.39,336.65 L 194.45,342.75 L 194.25,344.22 L 193.95,346.97 L 193.82,348.29 L 193.69,350.56 L 193.65,351.61 L 193.72,353.20 L 194.07,354.58 L 194.21,354.75 L 194.44,355.68 L 194.55,356.22 L 194.70,357.75 L 194.77,358.57 L 194.83,360.51 L 194.79,363.66 L 194.76,364.53 L 194.69,366.01 L 194.66,366.71 L 194.61,367.37 L 194.50,365.04 L 194.37,363.59 L 194.23,362.15 L 194.14,361.49 L 193.97,360.24 L 193.88,359.74 L 193.71,358.84 L 193.62,358.59 L 193.44,358.22 L 193.37,358.30 L 193.05,358.99 L 192.81,359.81 L 192.69,360.35 L 192.19,362.80 L 191.98,364.17 L 191.60,366.93 L 191.52,368.01 L 191.46,369.03 L 191.46,369.39 L 191.50,370.00 L 191.56,370.11 L 191.97,370.61 L 192.22,370.76 L 192.74,370.97 L 193.01,370.97 L 193.55,370.89 L 193.80,370.74 L 194.16,370.46 L 194.05,370.82 L 193.56,371.40 L 192.45,371.79 L 192.22,371.83 L 191.80,372.04 L 191.60,372.18 L 191.22,372.74 L 191.03,373.09 L 190.65,374.19 L 190.45,374.83 L 190.03,376.66 L 189.81,377.68 L 189.30,380.42 L 189.17,381.17 L 188.88,382.87 L 188.73,383.75 L 188.41,385.75 L 188.25,386.78 L 187.89,389.09 L 187.70,390.28 L 187.30,392.92 L 187.09,394.29 L 186.63,397.29 L 185.89,402.22 L 181.38,432.36 L 182.00,439.18 L 181.75,438.37 L 181.36,438.00 L 181.12,438.00 L 180.72,438.45 L 180.43,439.17 L 180.28,439.69 L 180.00,440.83 L 179.87,441.52 L 179.62,442.96 L 179.52,443.75 L 179.30,445.40 L 179.10,446.83 L 178.97,447.68 L 178.69,449.48 L 178.54,450.50 L 178.20,452.62 L 178.02,453.78 L 177.24,458.63 L 176.81,461.29 L 175.91,466.72 L 175.45,469.47 L 174.52,474.98 L 174.07,477.59 L 173.20,482.68 L 172.81,484.89 L 172.43,487.04 L 172.25,488.00 L 171.92,489.85 L 171.77,490.63 L 171.50,492.11 L 171.38,492.69 L 171.17,493.73 L 171.09,494.07 L 170.92,495.37 L 170.86,496.55 L 170.85,497.30 L 170.86,498.90 L 170.88,499.87 L 170.95,501.91 L 171.01,503.09 L 171.15,505.57 L 171.24,506.97 L 171.45,509.90 L 171.58,511.53 L 171.85,514.91 L 172.01,516.77 L 172.35,520.61 L 172.55,522.70 L 173.42,532.35 L 173.66,535.26 L 173.69,535.67 L 173.57,534.38 L 173.11,529.37 L 172.39,521.25 L 172.19,518.89 L 171.82,514.84 L 171.64,512.93 L 171.31,509.75 L 171.14,508.27 L 170.84,505.91 L 170.69,504.82 L 170.41,503.24 L 170.27,502.54 L 170.00,501.67 L 169.86,501.33 L 169.59,501.14 L 169.46,501.13 L 169.18,501.57 L 168.74,502.89 L 168.66,503.18 L 168.30,503.72 L 168.09,503.99 L 167.49,504.46 L 165.00,505.50 L 161.77,506.21 L 162.35,511.86 L 162.43,512.63 L 162.62,514.80 L 162.73,515.95 L 162.75,516.28 L 162.66,515.30 L 162.56,514.28 L 162.34,512.36 L 162.23,511.58 L 162.02,510.15 L 161.91,509.60 L 161.70,508.62 L 161.59,508.29 L 161.37,507.74 L 161.26,507.62 L 161.03,507.48 L 160.91,507.55 L 160.35,508.34 L 159.89,509.31 L 159.63,509.97 L 159.10,511.39 L 158.82,512.21 L 158.27,513.91 L 158.00,514.81 L 156.96,518.48 L 156.60,520.12 L 156.26,521.70 L 156.16,522.35 L 156.00,523.57 L 156.00,523.98 L 155.89,525.60 L 155.71,526.49 L 155.55,526.85 L 155.20,527.50 L 154.94,527.74 L 154.39,528.16 L 154.03,528.29 L 153.27,528.48 L 152.79,528.50 L 151.78,528.48 L 151.18,528.39 L 149.91,528.16 L 149.17,527.97 L 147.62,527.54 L 146.73,527.25 L 143.32,526.25 L 140.73,525.59 L 139.34,525.27 L 133.59,524.03 L 130.81,523.54 L 128.08,523.07 L 126.83,522.89 L 124.43,522.56 L 123.41,522.45 L 121.52,522.28 L 120.83,522.27 L 119.64,522.31 L 119.38,522.41 L 118.67,522.90 L 118.97,519.22 L 119.17,517.79 L 119.41,515.43 L 119.51,514.33 L 119.57,512.59 L 119.58,511.79 L 119.44,510.58 L 119.22,509.90 L 119.75,510.03 L 120.02,509.80 L 120.54,509.14 L 120.77,508.55 L 121.20,507.18 L 121.36,506.25 L 121.73,503.61 L 121.87,502.10 L 121.89,501.47 L 121.88,500.29 L 121.82,499.81 L 121.65,498.94 L 121.51,498.62 L 121.18,498.04 L 120.96,497.85 L 120.46,497.55 L 120.14,497.49 L 119.47,497.45 L 119.06,497.53 L 118.20,497.73 L 117.70,497.92 L 116.11,498.65 L 115.81,498.95 L 115.73,499.16 L 115.63,499.62 L 115.65,499.95 L 115.75,500.67 L 115.88,501.16 L 116.19,502.24 L 116.30,502.59 L 115.90,501.69 L 115.64,501.16 L 115.06,500.35 L 114.76,499.98 L 114.08,499.46 L 112.92,498.98 L 112.28,498.83 L 111.30,498.35 L 111.05,498.19 L 110.57,497.69 L 110.32,497.40 L 109.78,496.58 L 109.50,496.12 L 108.83,494.88 L 108.48,494.21 L 107.63,492.45 L 107.18,491.50 L 106.09,489.13 L 104.10,484.76 L 103.47,483.38 L 102.18,480.83 L 101.52,479.60 L 100.21,477.43 L 99.56,476.40 L 98.28,474.66 L 96.45,472.64 L 95.54,471.82 L 94.19,470.13 L 93.86,469.62 L 93.20,468.27 L 92.86,467.52 L 92.12,465.51 L 91.74,464.40 L 90.84,461.48 L 90.60,460.68 L 90.07,458.86 L 89.80,457.91 L 89.20,455.78 L 88.89,454.67 L 88.21,452.19 L 87.86,450.90 L 87.09,448.04 L 86.69,446.56 L 85.81,443.28 L 84.37,437.88 L 83.79,435.72 L 82.68,431.53 L 82.13,429.47 L 81.08,425.54 L 80.57,423.61 L 79.61,420.02 L 79.15,418.28 L 78.32,415.13 L 77.92,413.62 L 77.23,410.99 L 76.90,409.76 L 76.38,407.75 L 76.14,406.84 L 75.80,405.54 L 75.61,404.75 L 75.82,405.00 L 76.01,405.00 L 76.37,405.34 L 76.68,405.86 L 76.86,406.25 L 77.61,408.08 L 77.96,409.25 L 79.59,414.01 L 80.83,416.98 L 81.53,418.38 L 82.98,421.10 L 83.78,422.37 L 85.44,424.84 L 86.34,425.98 L 88.20,428.19 L 89.21,429.21 L 91.28,431.17 L 92.39,432.06 L 94.66,433.77 L 95.88,434.53 L 98.36,435.98 L 99.68,436.62 L 102.83,438.01 L 104.81,438.74 L 105.73,439.01 L 107.54,439.49 L 108.38,439.63 L 110.04,439.85 L 110.81,439.86 L 112.32,439.82 L 113.03,439.71 L 114.41,439.41 L 115.05,439.17 L 116.30,438.62 L 116.89,438.25 L 118.03,437.44 L 118.56,436.95 L 120.40,435.45 L 120.88,435.16 L 121.05,435.10 L 121.35,435.02 L 121.41,435.08 L 121.51,435.45 L 121.59,435.97 L 121.64,436.36 L 121.75,437.21 L 121.80,437.74 L 121.92,438.87 L 121.98,439.53 L 122.24,442.41 L 122.37,444.12 L 122.64,447.70 L 122.77,449.65 L 123.06,453.70 L 123.25,456.01 L 123.34,457.00 L 123.53,458.86 L 123.63,459.64 L 123.83,461.12 L 123.94,461.74 L 124.42,463.94 L 124.73,464.73 L 125.41,466.17 L 125.86,466.80 L 127.37,469.21 L 127.72,469.89 L 127.83,470.16 L 128.00,470.64 L 128.00,470.77 L 128.17,471.36 L 128.44,471.92 L 128.63,472.25 L 129.57,473.72 L 130.16,474.48 L 131.32,476.11 L 131.75,477.05 L 131.80,477.57 L 131.82,478.68 L 131.68,479.43 L 131.33,481.10 L 131.03,482.28 L 130.38,485.05 L 130.19,486.31 L 130.22,486.74 L 130.38,487.51 L 130.60,487.80 L 131.14,488.36 L 131.56,488.66 L 132.56,489.18 L 133.44,489.49 L 133.94,489.61 L 136.09,490.00 L 137.12,490.00 L 138.71,489.91 L 139.59,489.75 L 139.94,489.61 L 140.58,489.28 L 140.82,489.04 L 141.23,488.50 L 141.36,488.15 L 141.57,487.38 L 141.60,486.89 L 141.62,485.85 L 141.56,485.21 L 141.39,483.86 L 141.24,483.05 L 140.89,481.36 L 140.66,480.37 L 139.96,476.33 L 139.86,474.06 L 140.00,473.09 L 140.41,471.24 L 140.81,470.41 L 141.76,468.80 L 142.44,468.02 L 143.55,466.54 L 144.44,465.16 L 144.95,464.30 L 146.02,462.46 L 146.61,461.38 L 147.82,459.15 L 148.48,457.90 L 149.81,455.33 L 150.51,453.94 L 151.93,451.10 L 152.67,449.60 L 155.65,443.42 L 157.16,440.17 L 160.17,433.62 L 161.60,430.39 L 164.39,423.99 L 165.62,421.03 L 166.82,418.11 L 167.37,416.75 L 168.41,414.08 L 168.87,412.86 L 169.74,410.50 L 170.09,409.46 L 170.74,407.48 L 170.98,406.66 L 173.07,399.17 L 174.25,394.70 L 174.74,392.64 L 175.66,388.65 L 176.03,386.76 L 176.72,383.04 L 176.99,381.22 L 177.49,377.59 L 177.67,375.73 L 177.99,371.97 L 178.10,369.98 L 178.29,365.90 L 178.34,363.67 L 178.42,359.07 L 178.43,356.50 L 178.40,349.18 L 178.32,344.97 L 178.23,343.15 L 178.03,339.70 L 177.87,338.20 L 177.51,335.34 L 177.27,334.08 L 176.74,331.66 L 176.40,330.57 L 175.66,328.44 L 175.20,327.43 L 174.23,325.44 L 173.64,324.44 L 172.40,322.43 L 171.67,321.37 L 168.47,317.34 L 166.25,315.22 L 165.03,314.39 L 162.50,312.89 L 161.06,312.33 L 158.03,311.32 L 156.27,310.95 L 152.64,310.45 L 150.35,310.41 L 149.28,310.52 L 147.19,310.84 L 146.23,311.14 L 144.34,311.82 L 143.48,312.29 L 141.81,313.33 L 141.06,313.99 L 139.62,315.38 L 138.99,316.20 L 137.80,317.93 L 137.29,318.93 L 136.34,321.00 L 135.97,322.16 L 135.68,323.30 L 135.48,324.31 L 135.38,324.91 L 135.00,327.57 L 134.82,329.19 L 134.49,332.58 L 134.35,334.42 L 134.11,338.14 L 134.03,340.00 L 133.50,353.50 L 121.56,353.50 L 120.75,349.00 L 119.95,344.65 L 119.44,341.97 L 119.20,340.72 L 118.26,336.02 L 117.81,334.02 L 116.94,330.24 L 116.50,328.64 L 115.63,325.62 L 115.17,324.33 L 114.24,321.89 L 113.73,320.83 L 112.68,318.80 L 112.09,317.89 L 110.87,316.11 L 110.17,315.25 L 108.71,313.55 L 107.87,312.66 L 102.94,307.50 L 148.72,307.00 L 157.94,306.88 L 163.83,306.79 L 166.59,306.74 L 172.00,306.64 L 174.48,306.58 L 179.29,306.47 L 181.42,306.41 L 185.49,306.29 L 187.21,306.23 L 190.42,306.11 L 191.65,306.04 L 192.83,305.98 L 193.31,305.95 L 194.22,305.89 L 194.56,305.86 L 195.19,305.80 L 195.39,305.78 L 195.71,305.72 L 195.75,305.69 L 196.24,305.03 L 196.52,304.30 L 196.63,303.83 L 197.00,301.71 L 197.00,300.51 L 197.02,298.83 L 197.08,297.92 L 197.17,297.56 L 197.38,296.89 L 197.58,296.63 L 198.05,296.14 L 198.40,295.96 L 198.95,295.72 M 118.51,532.05 L 118.43,531.50 L 118.37,530.14 M 163.59,527.00 L 163.68,528.32 L 163.73,528.89 L 163.70,528.62 L 163.59,527.00 L 163.58,526.92 M 129.34,507.89 L 128.22,508.28 L 127.68,508.63 L 126.61,509.43 L 126.11,509.99 L 125.12,511.22 L 124.67,511.99 L 123.40,514.45 L 123.08,515.67 L 123.19,516.13 L 123.61,516.99 L 124.11,517.37 L 125.33,518.11 L 126.25,518.51 L 128.48,519.30 L 129.74,519.53 L 132.32,519.89 L 133.55,519.91 L 135.92,519.85 L 136.84,519.65 L 137.71,519.42 L 138.05,519.27 L 138.65,518.93 L 138.82,518.72 L 139.20,517.91 L 139.23,517.24 L 139.14,516.83 L 138.89,515.94 L 138.64,515.39 L 138.08,514.21 L 137.67,513.49 L 136.13,511.15 L 135.05,509.89 L 134.49,509.41 L 133.36,508.56 L 132.78,508.29 L 131.63,507.85 L 131.05,507.78 L 129.90,507.75 M 59.20,513.42 L 58.92,516.69 L 58.86,517.37 L 59.27,512.61 L 60.37,499.70 L 60.94,493.00 L 60.34,500.06 M 74.43,399.45 L 74.59,400.10 L 74.90,401.42 L 75.02,402.06 L 75.04,402.23 L 74.61,400.25 L 74.47,399.63 L 74.11,398.41 L 73.61,397.18 L 74.09,398.33 M 128.25,378.90 L 129.49,381.79 L 129.77,382.68 L 129.86,383.05 L 130.00,383.73 L 130.00,383.96 L 129.84,385.05 L 129.58,385.70 L 128.96,387.03 L 128.57,387.56 L 127.80,388.53 L 127.42,388.88 L 127.28,388.90 L 127.01,388.85 L 126.89,388.68 L 126.65,388.24 L 126.51,387.88 L 126.29,386.83 L 126.19,385.79 L 126.16,385.16 L 126.11,382.36 L 126.19,380.88 L 126.50,375.50 M 61.93,353.91 L 56.63,354.16 L 58.18,354.02 L 58.92,353.94 L 60.16,353.73 L 60.73,353.63 L 61.51,353.39 L 61.81,353.16 M 48.42,302.94 L 48.44,303.49 L 48.62,304.37 L 48.92,304.87 L 49.18,305.08 L 49.77,305.49 L 50.19,305.65 L 51.12,305.97 L 51.73,306.10 L 53.07,306.33 L 53.90,306.43 L 55.70,306.60 L 56.78,306.67 L 59.09,306.79 L 60.45,306.83 L 63.33,306.91 L 65.00,306.94 L 75.50,307.11 L 72.05,309.80 L 68.08,313.23 L 65.81,315.53 L 64.85,316.71 L 63.07,319.09 L 62.36,320.33 L 61.05,322.83 L 60.56,324.14 L 59.71,326.81 L 59.45,328.22 L 59.03,331.10 L 58.99,332.63 L 59.00,335.76 L 59.15,337.43 L 59.57,340.86 L 59.93,342.70 L 60.74,347.03 L 61.00,348.45 L 61.11,349.08 L 61.32,350.26 L 61.39,350.70 L 61.68,352.41 L 61.58,352.27 L 61.05,351.72 L 58.75,349.84 L 57.59,349.02 L 55.73,347.49 L 54.86,346.71 L 53.38,345.03 L 52.66,344.15 L 51.32,342.02 L 49.19,338.00 L 48.57,336.74 L 47.73,334.70 L 47.36,333.69 L 46.93,331.57 L 46.85,330.99 L 46.73,329.69 L 46.68,329.00 L 46.62,327.40 L 46.60,326.56 L 46.58,324.56 L 46.60,321.00 L 46.62,319.42 L 46.73,316.23 L 46.80,314.66 L 47.00,311.75 L 47.10,310.36 L 47.37,308.05 L 47.43,307.53 L 47.58,306.66 L 47.80,305.65 L 48.15,304.43 L 48.35,302.50 M 45.37,292.76 L 45.63,293.27 L 46.08,294.38 L 46.27,295.15 L 46.67,296.60 L 46.24,295.15 L 46.06,294.38 L 45.62,293.26 L 45.36,292.75 L 44.72,292.17 M 224.04,289.98 L 222.41,290.80 L 219.76,291.99 L 218.48,292.53 L 216.12,293.28 L 214.93,293.62 L 212.33,294.07 L 207.60,294.58 L 204.15,294.86 L 204.67,294.81 L 207.04,294.60 L 208.49,294.47 L 212.78,293.97 L 215.24,293.50 L 216.41,293.16 L 218.73,292.40 L 219.98,291.88 L 222.58,290.71 L 224.04,289.98 M 234.30,282.23 L 233.60,283.03 L 234.31,282.22 M 238.95,269.43 L 238.51,272.01 L 238.27,273.27 L 237.65,275.54 L 237.30,276.64 L 236.45,278.64 L 235.99,279.60 L 234.88,281.37 L 234.34,282.17 L 234.89,281.36 L 236.00,279.59 L 236.45,278.62 L 237.31,276.62 L 237.65,275.52 L 238.28,273.25 L 238.52,272.00 L 238.95,269.42 M 169.22,131.79 L 170.83,132.88 L 171.48,133.65 L 171.65,134.21 L 171.88,135.49 L 171.89,136.50 L 171.89,137.57 L 171.87,138.23 L 171.82,139.64 L 171.79,140.49 L 171.69,142.60 L 171.62,143.78 L 171.57,144.26 L 171.36,145.91 L 171.20,146.41 L 170.81,147.23 L 170.51,147.43 L 169.83,147.74 L 169.34,147.81 L 167.61,148.69 L 166.76,149.81 L 166.57,150.56 L 166.17,151.80 L 165.90,152.19 L 165.34,152.83 L 165.03,152.91 L 164.41,152.92 L 164.12,152.67 L 163.56,152.02 L 163.34,151.44 L 163.13,150.22 L 163.08,149.03 L 163.09,148.29 L 163.25,144.98 L 163.44,143.09 L 163.90,139.26 L 164.21,137.54 L 164.53,135.87 L 164.70,135.15 L 165.04,133.80 L 165.22,133.30 L 166.36,130.10 M 88.23,126.67 L 89.08,127.72 L 89.48,128.49 L 90.27,130.19 L 90.62,131.22 L 91.30,133.40 L 91.58,134.60 L 92.56,139.68 L 92.73,142.26 L 92.85,144.82 L 92.80,146.03 L 92.64,148.38 L 92.45,149.41 L 91.97,151.29 L 91.63,151.87 L 90.88,152.79 L 90.46,152.89 L 89.58,152.85 L 89.13,152.45 L 88.23,151.41 L 87.82,150.50 L 86.61,148.73 L 85.67,148.00 L 85.29,148.00 L 84.59,147.76 L 84.12,147.37 L 83.88,147.07 L 82.96,145.63 L 82.55,144.61 L 81.77,142.39 L 81.47,141.09 L 80.96,138.41 L 80.85,137.00 L 80.73,134.59 L 80.80,133.52 L 80.93,133.19 L 81.26,132.64 L 81.56,132.49 L 82.25,132.25 L 82.75,132.18 L 83.84,131.89 L 84.36,131.56 L 84.53,131.32 L 84.82,130.76 L 84.89,130.36 L 85.00,129.50 L 85.00,128.93 L 85.10,127.54 L 85.26,126.86 L 85.41,126.63 L 85.76,126.25 L 86.00,126.15 L 86.55,126.00 L 86.92,126.00 Z" fill="rgba(1,1,0,1)"/>
<path d="M 51.74,591.75 L 51.62,591.90 L 51.05,592.16 L 50.71,592.28 L 49.76,592.48 L 48.74,592.67 L 48.74,592.67 L 49.76,592.48 L 50.71,592.28 L 51.05,592.16 L 51.62,591.90 L 51.74,591.75 L 51.74,591.74 M 31.00,587.00 L 31.00,586.97 L 31.00,586.89 M 34.27,547.03 L 34.01,550.06 L 33.49,555.88 L 33.37,557.31 L 33.45,556.41 L 33.68,553.75 L 34.19,547.93 L 34.45,544.94 L 34.85,540.55 M 131.05,507.78 L 131.63,507.85 L 132.78,508.29 L 133.36,508.56 L 134.49,509.41 L 135.05,509.89 L 136.13,511.15 L 137.67,513.49 L 138.08,514.21 L 138.64,515.39 L 138.89,515.94 L 139.14,516.83 L 139.23,517.24 L 139.20,517.91 L 138.82,518.72 L 138.65,518.93 L 138.05,519.27 L 137.71,519.42 L 136.84,519.65 L 135.92,519.85 L 133.55,519.91 L 132.32,519.89 L 129.74,519.53 L 128.48,519.30 L 126.25,518.51 L 125.33,518.11 L 124.11,517.37 L 123.61,516.99 L 123.19,516.13 L 123.08,515.67 L 123.40,514.45 L 124.67,511.99 L 125.12,511.22 L 126.11,509.99 L 126.61,509.43 L 127.68,508.63 L 128.22,508.28 L 129.34,507.89 L 129.90,507.75 M 172.00,306.64 L 166.59,306.74 L 163.83,306.79 L 157.94,306.88 L 148.72,307.00 L 102.94,307.50 L 107.87,312.66 L 108.71,313.55 L 110.17,315.25 L 110.87,316.11 L 112.09,317.89 L 112.68,318.80 L 113.73,320.83 L 114.24,321.89 L 115.17,324.33 L 115.63,325.62 L 116.50,328.64 L 116.94,330.24 L 117.81,334.02 L 118.26,336.02 L 119.20,340.72 L 119.44,341.97 L 119.95,344.65 L 120.75,349.00 L 121.56,353.50 L 133.50,353.50 L 134.03,340.00 L 134.11,338.14 L 134.35,334.42 L 134.49,332.58 L 134.82,329.19 L 135.00,327.57 L 135.38,324.91 L 135.48,324.31 L 135.68,323.30 L 135.97,322.16 L 136.34,321.00 L 137.29,318.93 L 137.80,317.93 L 138.99,316.20 L 139.62,315.38 L 141.06,313.99 L 141.81,313.33 L 143.48,312.29 L 144.34,311.82 L 146.23,311.14 L 147.19,310.84 L 149.28,310.52 L 150.35,310.41 L 152.64,310.45 L 156.27,310.95 L 158.03,311.32 L 161.06,312.33 L 162.50,312.89 L 165.03,314.39 L 166.25,315.22 L 168.47,317.34 L 171.67,321.37 L 172.40,322.43 L 173.64,324.44 L 174.23,325.44 L 175.20,327.43 L 175.66,328.44 L 176.40,330.57 L 176.74,331.66 L 177.27,334.08 L 177.51,335.34 L 177.87,338.20 L 178.03,339.70 L 178.23,343.15 L 178.32,344.97 L 178.40,349.18 L 178.43,356.50 L 178.42,359.07 L 178.34,363.67 L 178.29,365.90 L 178.10,369.98 L 177.99,371.97 L 177.67,375.73 L 177.49,377.59 L 176.99,381.22 L 176.72,383.04 L 176.03,386.76 L 175.66,388.65 L 174.74,392.64 L 174.25,394.70 L 173.07,399.17 L 170.98,406.66 L 170.74,407.48 L 170.09,409.46 L 169.74,410.50 L 168.87,412.86 L 168.41,414.08 L 167.37,416.75 L 166.82,418.11 L 165.62,421.03 L 164.39,423.99 L 161.60,430.39 L 160.17,433.62 L 157.16,440.17 L 155.65,443.42 L 152.67,449.60 L 151.93,451.10 L 150.51,453.94 L 149.81,455.33 L 148.48,457.90 L 147.82,459.15 L 146.61,461.38 L 146.02,462.46 L 144.95,464.30 L 144.44,465.16 L 143.55,466.54 L 142.44,468.02 L 141.76,468.80 L 140.81,470.41 L 140.41,471.24 L 140.00,473.09 L 139.86,474.06 L 139.96,476.33 L 140.66,480.37 L 140.89,481.36 L 141.24,483.05 L 141.39,483.86 L 141.56,485.21 L 141.62,485.85 L 141.60,486.89 L 141.57,487.38 L 141.36,488.15 L 141.23,488.50 L 140.82,489.04 L 140.58,489.28 L 139.94,489.61 L 139.59,489.75 L 138.71,489.91 L 137.12,490.00 L 136.09,490.00 L 133.94,489.61 L 133.44,489.49 L 132.56,489.18 L 131.56,488.66 L 131.14,488.36 L 130.60,487.80 L 130.38,487.51 L 130.22,486.74 L 130.19,486.31 L 130.38,485.05 L 131.03,482.28 L 131.33,481.10 L 131.68,479.43 L 131.82,478.68 L 131.80,477.57 L 131.75,477.05 L 131.32,476.11 L 130.16,474.48 L 129.57,473.72 L 128.63,472.25 L 128.44,471.92 L 128.17,471.36 L 128.00,470.77 L 128.00,470.64 L 127.83,470.16 L 127.72,469.89 L 127.37,469.21 L 125.86,466.80 L 125.41,466.17 L 124.73,464.73 L 124.42,463.94 L 123.94,461.74 L 123.83,461.12 L 123.63,459.64 L 123.53,458.86 L 123.34,457.00 L 123.25,456.01 L 123.06,453.70 L 122.77,449.65 L 122.64,447.70 L 122.37,444.12 L 122.24,442.41 L 121.98,439.53 L 121.92,438.87 L 121.80,437.74 L 121.75,437.21 L 121.64,436.36 L 121.59,435.97 L 121.51,435.45 L 121.41,435.08 L 121.35,435.02 L 121.05,435.10 L 120.88,435.16 L 120.40,435.45 L 118.56,436.95 L 118.03,437.44 L 116.89,438.25 L 116.30,438.62 L 115.05,439.17 L 114.41,439.41 L 113.03,439.71 L 112.32,439.82 L 110.81,439.86 L 110.04,439.85 L 108.38,439.63 L 107.54,439.49 L 105.73,439.01 L 104.81,438.74 L 102.83,438.01 L 99.68,436.62 L 98.36,435.98 L 95.88,434.53 L 94.66,433.77 L 92.39,432.06 L 91.28,431.17 L 89.21,429.21 L 88.20,428.19 L 86.34,425.98 L 85.44,424.84 L 83.78,422.37 L 82.98,421.10 L 81.53,418.38 L 80.83,416.98 L 79.59,414.01 L 77.96,409.25 L 77.61,408.08 L 76.86,406.25 L 76.68,405.86 L 76.37,405.34 L 76.01,405.00 L 75.82,405.00 L 75.51,404.63 L 75.25,403.75 L 75.21,403.28 L 75.02,402.06 L 74.90,401.42 L 74.59,400.10 L 74.43,399.45 L 74.09,398.33 L 73.61,397.18 L 73.47,396.95 L 73.12,395.89 L 72.64,393.93 L 72.51,393.26 L 72.04,391.50 L 71.25,389.07 L 71.04,388.52 L 70.73,387.88 L 70.59,387.65 L 70.38,387.73 L 70.27,387.86 L 70.08,388.74 L 69.73,391.07 L 69.71,391.22 L 69.63,392.03 L 69.58,392.51 L 69.45,393.95 L 69.37,394.74 L 69.19,396.79 L 69.09,397.88 L 68.86,400.48 L 68.74,401.85 L 68.46,404.99 L 68.32,406.62 L 68.00,410.25 L 67.84,412.13 L 67.48,416.22 L 67.30,418.32 L 66.91,422.84 L 66.71,425.15 L 66.29,430.06 L 66.07,432.56 L 65.62,437.83 L 65.39,440.50 L 64.91,446.09 L 64.67,448.92 L 64.17,454.79 L 63.67,460.73 L 62.60,473.32 L 60.94,493.00 L 60.37,499.70 L 59.61,508.67 L 61.50,486.21 L 62.36,476.03 L 62.78,471.09 L 63.60,461.34 L 64.00,456.72 L 64.76,447.67 L 65.12,443.50 L 65.47,439.40 L 65.63,437.46 L 65.96,433.65 L 66.11,431.87 L 66.41,428.38 L 66.55,426.77 L 66.82,423.64 L 66.94,422.23 L 67.17,419.49 L 67.28,418.28 L 67.48,415.98 L 67.56,415.00 L 70.05,386.50 L 63.32,360.50 L 59.41,360.50 L 57.27,360.58 L 56.34,360.76 L 56.06,360.96 L 55.60,361.45 L 55.48,361.86 L 55.30,362.81 L 55.24,363.50 L 54.98,366.08 L 54.81,367.55 L 54.72,368.17 L 54.53,369.34 L 54.43,369.83 L 54.21,370.73 L 54.09,371.08 L 53.57,372.28 L 53.23,372.58 L 52.50,373.00 L 52.03,373.00 L 51.28,372.91 L 50.87,372.99 L 50.69,373.33 L 50.50,373.73 L 50.41,374.05 L 50.22,374.78 L 50.13,375.29 L 49.93,376.42 L 49.82,377.17 L 49.60,378.80 L 49.47,379.83 L 49.22,382.04 L 49.07,383.39 L 48.77,386.27 L 48.60,387.99 L 48.25,391.62 L 48.05,393.75 L 47.63,398.22 L 47.39,400.80 L 47.23,402.54 L 47.71,396.34 L 47.97,393.03 L 48.39,387.09 L 48.49,385.67 L 48.67,383.01 L 48.76,381.72 L 48.90,379.33 L 48.98,378.17 L 49.09,376.06 L 49.15,375.04 L 49.23,373.24 L 49.27,372.37 L 49.33,370.87 L 49.37,369.00 L 49.50,354.50 L 55.72,354.20 L 61.93,353.91 L 61.39,350.70 L 61.32,350.26 L 61.11,349.08 L 61.00,348.45 L 60.74,347.03 L 59.93,342.70 L 59.57,340.86 L 59.15,337.43 L 59.00,335.76 L 58.99,332.63 L 59.03,331.10 L 59.45,328.22 L 59.71,326.81 L 60.56,324.14 L 61.05,322.83 L 62.36,320.33 L 63.07,319.09 L 64.85,316.71 L 65.81,315.53 L 68.08,313.23 L 72.05,309.80 L 75.50,307.11 L 67.72,306.98 L 122.62,306.90 L 136.51,306.87 L 145.38,306.83 L 149.56,306.81 L 157.73,306.76 L 161.49,306.73 L 165.19,306.70 L 166.94,306.68 L 170.38,306.64 L 172.00,306.63 L 173.01,306.62 M 126.19,380.88 L 126.11,382.36 L 126.16,385.16 L 126.19,385.79 L 126.29,386.83 L 126.51,387.88 L 126.65,388.24 L 126.89,388.68 L 127.01,388.85 L 127.28,388.90 L 127.42,388.88 L 127.80,388.53 L 128.57,387.56 L 128.96,387.03 L 129.58,385.70 L 129.84,385.05 L 130.00,383.96 L 130.00,383.73 L 129.86,383.05 L 129.77,382.68 L 129.49,381.79 L 128.25,378.90 L 126.50,375.50 M 193.62,358.59 L 193.71,358.84 L 193.88,359.74 L 193.97,360.24 L 194.14,361.49 L 194.23,362.15 L 194.37,363.59 L 194.50,365.04 L 194.63,367.74 L 194.64,368.33 L 194.61,369.26 L 194.46,370.07 L 194.28,370.36 L 193.80,370.74 L 193.55,370.89 L 193.01,370.97 L 192.74,370.97 L 192.22,370.76 L 191.97,370.61 L 191.56,370.11 L 191.50,370.00 L 191.46,369.39 L 191.46,369.03 L 191.52,368.01 L 191.60,366.93 L 191.98,364.17 L 192.19,362.80 L 192.69,360.35 L 192.81,359.81 L 193.05,358.99 L 193.37,358.30 L 193.44,358.22 M 47.61,299.30 L 47.97,299.98 L 49.60,302.62 L 50.53,303.60 L 53.11,306.34 L 53.07,306.33 L 51.73,306.10 L 51.12,305.97 L 50.19,305.65 L 49.77,305.49 L 49.18,305.08 L 48.92,304.87 L 48.62,304.37 L 48.44,303.49 L 48.42,302.94 L 48.21,301.64 L 47.73,300.00 L 47.64,299.79 L 47.42,299.15 L 47.30,298.80 L 47.06,298.03 M 197.02,298.83 L 197.00,300.51 L 197.00,301.71 L 196.63,303.83 L 196.52,304.30 L 196.24,305.03 L 195.75,305.69 L 195.71,305.72 L 195.39,305.78 L 195.19,305.80 L 194.63,305.86 L 195.31,305.59 L 195.91,305.09 L 196.11,304.71 L 196.45,303.84 L 196.56,303.20 L 196.74,301.76 L 196.80,300.76 L 196.93,298.99 L 197.05,298.03 L 197.08,297.94 M 204.67,294.81 L 203.59,294.91 L 203.61,294.91 L 204.70,294.80 L 206.87,294.61 M 45.52,292.94 L 45.76,293.56 L 45.80,293.69 L 45.63,293.27 L 45.39,292.80 M 30.94,286.89 L 32.65,287.49 L 36.30,288.75 L 38.50,289.48 L 40.77,290.24 L 42.01,290.68 L 42.51,290.88 L 44.19,291.63 L 44.70,292.05 L 45.27,292.67 L 44.48,291.96 L 43.96,291.57 L 42.28,290.83 L 41.80,290.63 L 40.61,290.20 L 38.47,289.48 L 36.27,288.74 L 32.62,287.48 L 30.91,286.88 L 28.20,285.85 M 28.15,285.84 L 28.13,285.83 L 27.76,285.69 M 26.84,285.33 L 26.83,285.33 L 25.87,284.91 M 24.75,284.43 L 22.25,283.19 L 24.76,284.43 M 87.29,87.23 L 87.81,88.16 L 88.35,89.16 L 88.66,89.78 L 89.31,91.09 L 89.69,91.89 L 91.33,94.87 L 92.69,97.01 L 93.44,98.08 L 94.97,100.19 L 95.74,101.14 L 97.26,102.96 L 97.96,103.68 L 103.03,108.85 L 102.77,115.41 L 102.60,117.70 L 102.61,116.77 L 102.38,115.14 L 102.30,114.80 L 102.07,114.31 L 101.62,114.00 L 101.42,114.00 L 100.85,114.17 L 100.53,114.28 L 99.78,114.61 L 98.99,114.98 L 97.23,116.02 L 96.38,116.55 L 94.98,117.60 L 94.68,117.84 L 94.27,118.26 L 94.02,118.74 L 94.03,119.26 L 94.38,120.14 L 94.41,120.19 L 93.61,119.46 L 92.65,119.07 L 92.17,119.15 L 91.21,119.52 L 90.69,119.99 L 89.62,121.13 L 89.00,122.00 L 87.93,123.83 L 87.65,124.68 L 87.73,124.88 L 88.00,125.13 L 88.33,124.98 L 89.11,124.49 L 89.68,123.92 L 90.30,123.61 L 90.77,123.68 L 91.05,123.86 L 91.62,124.31 L 91.96,124.69 L 92.68,125.55 L 93.09,126.13 L 95.43,129.42 L 96.11,126.10 L 96.34,124.47 L 96.34,123.53 L 96.26,123.11 L 95.75,121.57 L 95.56,121.34 L 95.93,121.60 L 97.30,122.16 L 100.00,122.87 L 100.14,122.90 L 100.65,122.72 L 100.92,122.61 L 101.50,122.23 L 101.61,122.15 L 101.51,122.35 L 101.34,122.42 L 100.95,122.96 L 100.92,123.64 L 101.02,124.15 L 101.30,125.29 L 101.55,126.04 L 102.15,127.67 L 102.56,128.69 L 103.73,131.91 L 104.28,133.97 L 104.46,135.05 L 104.77,137.30 L 104.85,138.59 L 104.96,141.33 L 104.96,143.00 L 104.82,147.60 L 104.58,150.19 L 104.38,151.26 L 103.91,153.24 L 103.59,154.01 L 102.87,155.40 L 102.42,155.89 L 101.43,156.72 L 100.83,156.93 L 99.56,157.22 L 98.80,157.18 L 97.21,156.96 L 96.28,156.67 L 94.35,155.96 L 93.25,155.43 L 90.94,154.20 L 89.73,153.40 L 89.27,153.00 L 88.45,152.20 L 88.17,151.79 L 87.70,150.95 L 87.59,150.51 L 86.94,149.23 L 87.82,150.50 L 88.23,151.41 L 89.13,152.45 L 89.58,152.85 L 90.46,152.89 L 90.88,152.79 L 91.63,151.87 L 91.97,151.29 L 92.45,149.41 L 92.64,148.38 L 92.80,146.03 L 92.85,144.82 L 92.73,142.26 L 92.56,139.68 L 91.58,134.60 L 91.30,133.40 L 90.62,131.22 L 90.27,130.19 L 89.48,128.49 L 89.08,127.72 L 88.23,126.67 L 86.92,126.00 L 86.55,126.00 L 86.00,126.15 L 85.76,126.25 L 85.41,126.63 L 85.26,126.86 L 85.10,127.54 L 85.00,128.93 L 85.00,129.50 L 84.89,130.36 L 84.82,130.76 L 84.53,131.32 L 84.36,131.56 L 83.84,131.89 L 82.75,132.18 L 82.25,132.25 L 81.56,132.49 L 81.26,132.64 L 80.93,133.19 L 80.80,133.52 L 80.73,134.59 L 80.85,137.00 L 80.96,138.41 L 81.47,141.09 L 81.77,142.39 L 82.55,144.61 L 82.68,144.93 L 82.57,144.70 L 81.73,142.70 L 81.45,141.65 L 81.00,139.57 L 81.00,138.65 L 80.53,136.56 L 79.84,135.28 L 79.39,134.91 L 78.64,133.99 L 78.31,133.19 L 78.22,132.64 L 78.08,131.44 L 78.08,130.64 L 78.13,128.91 L 78.21,127.79 L 78.36,125.53 L 78.39,124.32 L 78.34,123.87 L 78.19,123.05 L 78.02,122.78 L 77.60,122.32 L 77.27,122.21 L 76.55,122.08 L 77.43,122.00 L 77.81,122.00 L 78.51,121.80 L 78.86,121.66 L 79.50,121.17 L 79.81,120.88 L 80.41,120.09 L 81.29,118.53 L 81.73,117.60 L 83.35,115.57 L 84.26,114.54 L 86.62,112.45 L 87.88,111.42 L 90.73,109.50 L 95.28,107.02 L 99.06,105.29 L 95.08,100.47 L 94.53,99.81 L 93.35,98.19 L 92.76,97.34 L 91.59,95.53 L 91.02,94.62 L 90.00,92.84 L 88.80,90.43 L 88.52,89.81 L 88.06,88.79 L 87.83,88.30 L 87.42,87.52 L 87.22,87.15 M 160.49,93.38 L 159.95,94.31 L 158.74,96.22 L 158.13,97.16 L 156.90,98.90 L 155.16,101.08 L 151.28,105.50 L 157.28,109.00 L 158.11,109.48 L 159.97,110.76 L 160.93,111.44 L 162.87,112.97 L 163.84,113.76 L 165.63,115.35 L 167.89,117.62 L 168.76,118.58 L 170.27,120.08 L 171.00,120.77 L 172.34,121.78 L 172.99,122.23 L 174.29,122.84 L 176.36,123.43 L 176.89,123.53 L 178.35,123.86 L 179.13,124.04 L 180.94,124.50 L 184.55,125.52 L 180.51,124.39 L 178.66,123.94 L 177.86,123.76 L 176.37,123.44 L 175.84,123.36 L 173.61,123.04 L 172.74,123.02 L 172.56,123.15 L 172.36,123.52 L 172.44,123.88 L 172.72,124.76 L 172.97,125.43 L 173.70,128.11 L 173.95,129.94 L 173.96,130.79 L 173.90,132.42 L 173.75,133.07 L 173.37,134.24 L 173.05,134.55 L 172.66,135.39 L 172.41,136.35 L 172.30,136.98 L 171.89,139.85 L 171.80,141.50 L 171.57,144.67 L 171.36,146.09 L 171.18,146.53 L 170.84,147.16 L 171.20,146.41 L 171.36,145.91 L 171.57,144.26 L 171.62,143.78 L 171.69,142.60 L 171.79,140.49 L 171.82,139.64 L 171.87,138.23 L 171.89,137.57 L 171.89,136.50 L 171.88,135.49 L 171.65,134.21 L 171.48,133.65 L 170.83,132.88 L 169.22,131.79 L 166.36,130.10 L 165.22,133.30 L 165.04,133.80 L 164.70,135.15 L 164.53,135.87 L 164.21,137.54 L 163.90,139.26 L 163.44,143.09 L 163.25,144.98 L 163.09,148.29 L 163.08,149.03 L 163.13,150.22 L 163.34,151.44 L 163.56,152.02 L 164.12,152.67 L 164.41,152.92 L 165.03,152.91 L 165.34,152.83 L 165.88,152.21 L 165.85,152.28 L 165.25,153.00 L 164.98,153.00 L 163.70,153.59 L 162.55,154.45 L 162.00,155.00 L 159.93,156.35 L 158.28,156.86 L 157.41,156.92 L 155.66,156.91 L 154.83,156.70 L 153.22,156.15 L 152.55,155.66 L 151.57,154.53 L 151.35,153.97 L 151.27,153.59 L 151.13,152.76 L 151.08,152.22 L 151.01,151.04 L 150.99,150.28 L 150.98,148.65 L 150.99,147.63 L 151.03,145.46 L 151.07,144.14 L 151.15,141.32 L 151.21,139.65 L 151.44,134.26 L 151.63,131.25 L 151.75,130.00 L 152.01,127.67 L 152.18,126.73 L 152.55,125.01 L 152.78,124.34 L 153.28,123.13 L 153.59,122.69 L 154.25,121.92 L 154.65,121.67 L 155.51,121.25 L 156.01,121.15 L 157.09,121.00 L 157.71,121.00 L 159.24,120.71 L 159.67,120.28 L 159.50,120.00 L 158.24,119.20 L 156.94,119.00 L 156.17,119.06 L 154.58,119.27 L 153.77,119.53 L 153.22,119.74 L 156.19,118.15 L 153.14,116.57 L 152.00,115.99 L 150.26,115.31 L 149.47,115.06 L 148.36,115.08 L 147.88,115.18 L 147.42,115.78 L 147.44,115.51 L 147.54,114.64 L 148.07,111.15 L 148.57,109.37 L 148.97,108.56 L 149.92,106.96 L 150.66,106.04 L 151.46,105.09 L 151.94,104.55 L 152.96,103.42 L 153.57,102.76 L 155.86,100.05 L 157.43,97.98 L 158.18,96.91 L 159.63,94.75 L 160.26,93.73 L 161.07,92.33 M 170.79,147.26 L 170.49,147.45 L 170.07,147.63 L 170.51,147.43 L 170.80,147.23 M 195.43,131.12 L 195.98,131.71 L 195.40,131.09 M 187.58,126.41 L 189.50,127.18 L 190.43,127.59 L 192.17,128.59 L 193.02,129.13 L 194.63,130.43 L 194.95,130.70 L 194.56,130.37 L 192.93,129.08 L 192.06,128.54 L 190.30,127.54 L 189.34,127.12 L 187.37,126.34 M 73.92,122.47 L 72.17,122.90 L 71.07,123.21 L 68.70,123.89 L 67.24,124.31 L 61.52,126.43 L 61.55,126.41 L 65.97,124.75 L 68.20,123.96 L 72.46,122.79 L 73.46,122.54 L 74.27,122.39 M 75.12,122.23 L 75.24,122.21 L 75.39,122.19 M 150.21,121.33 L 149.94,121.45 L 149.96,121.43 L 150.45,121.20 M 118.93,101.75 L 120.73,102.23 L 121.87,102.68 L 124.03,103.44 L 125.20,103.72 L 125.70,103.75 L 126.66,103.75 L 127.12,103.65 L 128.05,103.39 L 128.56,103.16 L 131.00,102.35 L 132.69,102.02 L 133.30,102.03 L 134.47,102.10 L 134.84,102.24 L 134.80,102.41 L 134.57,102.80 L 134.22,103.15 L 133.37,103.94 L 132.69,104.53 L 131.61,105.37 L 130.99,105.69 L 129.71,106.28 L 129.01,106.48 L 126.12,107.04 L 124.64,106.96 L 121.71,106.56 L 120.41,106.02 L 119.16,105.41 L 118.62,105.03 L 117.58,104.20 L 117.17,103.70 L 116.62,102.90 L 116.44,102.47 L 116.43,102.29 L 116.64,101.72 L 117.07,101.63 L 118.12,101.58 M 161.60,91.35 L 161.81,90.90 L 161.82,90.90 M 164.40,86.09 L 164.48,85.96 L 164.48,85.96 M 165.63,85.10 L 165.92,84.91 L 165.93,84.90 M 166.59,84.75 L 166.14,84.86 L 166.58,84.75 L 168.06,84.53 L 168.06,84.53 M 75.65,82.55 L 75.40,82.40 L 75.39,82.39 M 75.33,82.34 L 74.57,81.77 L 74.56,81.76 M 73.85,80.82 L 73.32,80.13 L 73.32,80.13 M 179.00,72.98 L 179.00,73.84 L 178.83,75.42 L 179.00,73.84 L 179.00,72.98 L 179.00,72.98 M 74.00,66.61 L 73.74,67.59 L 73.35,68.00 L 73.11,68.00 L 73.35,68.00 L 73.74,67.59 L 74.00,66.61 L 74.00,66.17 L 74.00,66.17 M 144.60,62.99 L 145.86,63.14 L 146.43,63.30 L 147.53,63.68 L 147.97,63.96 L 148.92,64.73 L 149.00,65.14 L 148.72,65.34 L 147.90,65.75 L 147.10,65.99 L 146.23,66.24 L 145.68,66.38 L 144.51,66.68 L 143.81,66.85 L 142.33,67.21 L 141.69,67.35 L 140.49,67.60 L 139.98,67.69 L 138.17,67.95 L 137.58,67.92 L 136.60,67.77 L 136.35,67.54 L 136.00,66.98 L 136.00,66.54 L 136.37,65.47 L 136.95,64.82 L 137.37,64.54 L 138.29,64.01 L 138.85,63.80 L 140.01,63.41 L 140.65,63.27 L 143.31,62.89 M 110.40,62.27 L 112.15,62.68 L 112.83,62.99 L 114.06,63.68 L 114.43,64.11 L 115.00,65.02 L 115.00,65.54 L 114.78,66.33 L 114.39,66.57 L 113.43,66.92 L 112.75,66.88 L 111.53,66.75 L 110.50,66.60 L 109.92,66.50 L 107.44,66.03 L 106.18,65.75 L 103.72,65.18 L 102.79,64.92 L 101.93,64.67 L 101.63,64.56 L 101.12,64.36 L 101.03,64.29 L 100.85,63.94 L 100.93,63.69 L 101.06,63.56 L 101.81,63.05 L 102.44,62.82 L 103.84,62.40 L 104.68,62.25 L 106.42,62.02 L 107.32,62.02 M 176.30,65.18 L 176.46,65.33 L 176.30,65.18 M 173.40,64.19 L 174.47,64.39 L 174.99,64.52 L 175.88,64.94 L 176.04,65.03 L 175.86,64.93 L 174.96,64.51 L 174.44,64.39 L 173.35,64.20 L 172.74,64.18 L 171.46,64.21 L 171.28,64.24 L 171.53,64.20 L 172.79,64.18 M 84.00,64.00 L 83.83,64.00 L 84.00,60.65 M 166.90,64.82 L 168.41,64.62 L 166.73,64.85 L 166.93,62.68 M 129.06,4.17 L 137.54,5.54 L 138.82,5.87 L 141.46,6.85 L 142.79,7.38 L 145.48,8.73 L 146.83,9.45 L 149.49,11.10 L 150.81,11.96 L 153.35,13.86 L 154.60,14.83 L 156.95,16.91 L 158.09,17.96 L 160.17,20.16 L 161.17,21.26 L 162.88,23.52 L 164.98,26.89 L 165.13,27.18 L 165.43,28.34 L 165.57,29.01 L 165.84,30.81 L 165.98,31.79 L 166.22,34.13 L 166.33,35.36 L 166.53,38.14 L 166.62,39.57 L 166.78,42.66 L 166.85,44.23 L 166.95,47.53 L 166.97,52.06 L 166.81,51.89 L 166.40,51.58 L 166.13,51.55 L 165.55,51.57 L 165.20,51.70 L 164.45,52.04 L 164.00,52.33 L 163.05,52.98 L 162.51,53.41 L 160.90,54.56 L 159.99,55.00 L 159.52,55.09 L 158.56,55.17 L 157.96,55.08 L 156.67,54.83 L 155.82,54.61 L 153.89,54.18 L 152.82,54.05 L 152.36,54.07 L 150.70,54.33 L 149.98,54.78 L 148.20,55.63 L 147.08,55.94 L 146.60,55.96 L 145.73,55.91 L 145.45,55.75 L 145.00,55.34 L 145.00,55.00 L 144.63,54.55 L 144.03,54.33 L 143.59,54.25 L 142.60,54.12 L 141.99,54.10 L 140.68,54.06 L 139.93,54.08 L 136.71,54.25 L 134.89,54.47 L 131.19,55.00 L 129.35,55.39 L 126.08,56.01 L 124.36,56.21 L 123.63,56.21 L 122.23,56.14 L 121.54,56.00 L 120.15,55.65 L 119.35,55.37 L 116.27,54.51 L 114.27,54.15 L 113.39,54.08 L 111.71,54.01 L 111.08,54.10 L 109.97,54.36 L 109.72,54.61 L 109.06,54.87 L 108.26,55.04 L 107.73,55.11 L 105.26,55.39 L 103.80,55.45 L 99.43,55.83 L 98.13,56.01 L 97.60,56.11 L 96.65,56.32 L 96.35,56.42 L 95.13,56.62 L 94.30,56.49 L 93.83,56.28 L 92.86,55.74 L 92.27,55.31 L 91.03,54.31 L 90.27,53.62 L 88.58,52.21 L 87.62,51.53 L 87.21,51.33 L 86.44,51.01 L 86.12,50.99 L 85.52,51.05 L 85.29,51.22 L 84.85,51.67 L 84.68,52.04 L 84.39,52.89 L 84.29,53.46 L 84.21,54.03 L 84.16,52.34 L 84.11,51.61 L 83.96,50.45 L 83.66,49.35 L 83.51,49.08 L 83.31,47.91 L 83.23,47.24 L 83.18,45.44 L 83.17,44.48 L 83.25,42.26 L 83.30,41.11 L 83.49,38.67 L 83.69,36.21 L 84.36,31.50 L 84.54,30.41 L 84.95,28.54 L 85.60,26.40 L 85.88,25.75 L 86.75,24.27 L 87.24,23.51 L 88.47,21.88 L 89.79,20.22 L 93.15,16.79 L 94.90,15.11 L 98.65,12.09 L 99.58,11.39 L 101.40,10.17 L 104.00,8.71 L 105.23,8.11 L 107.82,7.08 L 109.13,6.59 L 111.85,5.79 L 114.60,5.05 L 120.35,4.26 L 123.24,3.99 M 77.69,64.16 L 76.19,64.43 L 75.64,64.65 L 75.19,64.88 L 75.63,64.65 L 76.17,64.44 L 77.66,64.16 L 80.50,64.00 L 80.58,64.00 Z" fill="rgba(42,30,26,1)"/>
<path d="M 179.44,592.15 L 179.67,592.56 L 180.17,593.30 L 180.48,593.55 L 181.03,593.82 L 181.50,593.91 L 182.54,594.06 L 183.19,594.10 L 183.18,594.10 L 182.51,594.06 L 181.45,593.91 L 180.98,593.82 L 180.41,593.55 L 180.03,593.26 L 179.35,592.00 L 179.19,591.36 M 166.19,593.35 L 165.05,593.66 L 164.41,593.79 L 162.71,593.87 L 162.04,593.85 L 162.70,593.82 L 164.07,593.65 L 165.37,593.47 L 165.88,593.35 L 166.45,593.20 M 194.73,592.65 L 193.95,592.98 L 193.50,593.14 L 192.28,593.42 L 190.98,593.68 L 190.59,593.72 L 190.99,593.68 L 192.28,593.42 L 193.50,593.14 L 193.95,592.98 L 194.73,592.65 M 157.97,514.90 L 156.95,518.64 L 156.59,520.32 L 156.26,521.95 L 156.16,522.63 L 156.00,523.91 L 156.01,524.36 L 156.22,526.02 L 156.59,527.16 L 156.89,527.75 L 157.58,528.97 L 158.06,529.63 L 159.10,530.97 L 159.76,531.71 L 160.77,532.85 L 161.24,533.35 L 162.14,534.32 L 162.51,534.70 L 163.20,535.40 L 163.44,535.62 L 163.83,535.96 L 163.88,535.96 L 163.97,535.31 L 163.97,534.25 L 163.95,533.47 L 163.88,531.77 L 163.83,530.73 L 163.73,528.90 L 163.98,531.40 L 164.14,532.71 L 164.52,534.91 L 164.72,535.94 L 165.20,537.59 L 166.05,539.50 L 166.56,540.35 L 168.13,542.35 L 168.96,543.35 L 170.76,545.24 L 171.64,546.12 L 173.12,547.36 L 173.45,547.60 L 173.96,547.88 L 174.43,547.91 L 174.46,547.88 L 174.47,547.31 L 174.47,546.95 L 174.42,545.78 L 174.38,545.13 L 174.28,543.41 L 174.22,542.50 L 174.06,540.32 L 173.97,539.18 L 173.77,536.60 L 173.66,535.26 L 173.42,532.35 L 172.76,525.04 L 173.09,528.54 L 173.34,531.17 L 173.45,532.37 L 173.68,534.69 L 173.78,535.74 L 173.99,537.77 L 174.09,538.69 L 174.46,542.09 L 174.63,543.44 L 174.96,545.93 L 175.12,546.89 L 175.44,548.65 L 175.61,549.31 L 175.94,550.51 L 176.13,550.96 L 176.93,552.42 L 177.48,553.00 L 180.19,556.48 L 182.08,559.40 L 182.99,561.03 L 184.77,564.36 L 185.53,566.04 L 186.96,569.37 L 187.46,570.89 L 188.13,573.15 L 188.43,574.49 L 188.50,575.09 L 188.58,576.24 L 188.53,576.77 L 188.39,577.78 L 188.22,578.26 L 187.83,579.18 L 187.54,579.62 L 186.89,580.49 L 186.47,580.92 L 185.54,581.78 L 184.97,582.22 L 183.76,583.12 L 183.04,583.59 L 180.15,585.81 L 179.47,586.47 L 179.25,586.74 L 178.90,587.23 L 178.88,587.38 L 178.84,589.36 L 178.96,590.45 L 178.78,589.75 L 178.72,588.99 L 178.43,587.81 L 178.35,587.56 L 178.18,587.22 L 177.90,587.00 L 177.69,587.00 L 177.05,587.14 L 176.70,587.24 L 175.86,587.54 L 174.99,587.87 L 172.94,588.86 L 171.91,589.38 L 170.00,590.52 L 168.97,591.29 L 168.94,591.11 L 168.82,591.02 L 168.13,590.76 L 167.45,590.78 L 165.85,590.93 L 164.75,591.18 L 162.76,591.50 L 161.27,591.64 L 160.50,591.67 L 158.96,591.70 L 158.24,591.68 L 156.83,591.59 L 156.25,591.51 L 153.81,591.31 L 152.68,591.41 L 152.63,591.43 L 152.15,590.44 L 150.89,589.17 L 150.51,588.93 L 149.92,588.67 L 149.64,588.58 L 149.19,588.64 L 148.97,588.72 L 148.57,589.12 L 147.92,590.15 L 147.65,590.66 L 147.04,591.33 L 146.68,591.62 L 145.42,591.90 L 145.04,591.95 L 144.03,591.99 L 143.49,592.01 L 142.10,591.98 L 141.36,591.96 L 139.51,591.88 L 136.14,591.70 L 134.81,591.63 L 131.93,591.39 L 130.47,591.26 L 127.43,590.93 L 124.38,590.58 L 118.50,589.71 L 117.10,589.48 L 114.56,589.02 L 113.35,588.79 L 111.30,588.34 L 110.35,588.12 L 108.95,587.71 L 107.77,587.15 L 107.68,587.05 L 107.57,586.45 L 107.53,586.08 L 107.55,585.05 L 108.03,580.97 L 108.10,580.60 L 108.28,579.53 L 108.38,578.95 L 108.61,577.52 L 108.73,576.76 L 109.01,575.02 L 109.15,574.12 L 109.46,572.14 L 109.77,570.12 L 110.46,565.59 L 111.49,558.60 L 111.78,556.63 L 112.34,553.14 L 112.61,551.47 L 113.14,548.57 L 113.41,547.18 L 113.93,544.83 L 114.19,543.72 L 114.70,541.88 L 114.96,541.03 L 115.49,539.67 L 115.75,539.05 L 116.29,538.16 L 116.57,537.76 L 117.14,537.28 L 118.03,537.00 L 118.18,537.00 L 118.40,536.52 L 118.49,536.21 L 118.58,535.14 L 118.61,534.54 L 118.57,532.95 L 118.37,530.02 L 118.30,529.28 L 118.19,528.01 L 118.15,527.41 L 118.09,526.40 L 118.05,525.44 L 118.13,524.18 L 118.20,523.64 L 118.54,522.99 L 119.38,522.41 L 119.64,522.31 L 120.83,522.27 L 121.52,522.28 L 123.41,522.45 L 124.43,522.56 L 126.83,522.89 L 127.70,523.02 L 126.72,522.96 L 126.31,522.99 L 125.55,523.07 L 125.27,523.18 L 124.77,523.43 L 124.59,523.62 L 124.28,524.05 L 124.18,524.35 L 123.93,525.72 L 123.90,526.75 L 123.59,530.59 L 123.19,532.63 L 122.87,533.43 L 122.15,534.88 L 121.66,535.42 L 120.60,536.37 L 119.93,536.70 L 118.52,537.66 L 118.18,538.11 L 118.03,538.41 L 117.74,539.08 L 117.62,539.52 L 117.38,540.48 L 117.27,541.10 L 117.04,542.43 L 116.93,543.27 L 116.70,545.07 L 116.58,546.18 L 116.32,548.52 L 116.17,549.93 L 115.87,552.97 L 115.71,554.79 L 115.65,555.59 L 115.46,558.55 L 115.44,559.67 L 115.47,561.68 L 115.56,562.39 L 115.79,563.61 L 115.99,563.98 L 116.72,565.05 L 117.25,565.37 L 118.45,565.86 L 119.29,565.90 L 121.15,565.83 L 122.39,565.59 L 123.69,565.32 L 124.43,565.13 L 125.97,564.71 L 126.84,564.46 L 131.63,562.74 L 134.40,561.46 L 135.49,560.80 L 137.46,559.48 L 138.07,558.85 L 138.60,558.23 L 138.76,557.93 L 139.00,557.36 L 139.00,557.09 L 138.54,554.65 L 137.71,553.45 L 136.99,553.05 L 136.21,552.67 L 135.73,552.52 L 134.72,552.25 L 134.11,552.15 L 132.84,551.97 L 132.10,551.92 L 130.56,551.83 L 129.67,551.82 L 126.93,551.70 L 125.58,551.57 L 125.14,551.48 L 124.41,551.29 L 124.26,551.19 L 124.10,550.98 L 124.23,550.87 L 124.63,550.66 L 125.03,550.56 L 125.95,550.36 L 126.60,550.29 L 128.01,550.14 L 128.89,550.09 L 130.77,550.02 L 131.87,550.02 L 133.73,550.00 L 134.75,549.98 L 135.17,549.96 L 136.56,549.85 L 136.92,549.74 L 137.44,549.49 L 137.44,549.29 L 137.27,548.83 L 137.00,548.50 L 136.38,547.44 L 136.39,546.99 L 136.63,546.98 L 136.80,546.69 L 136.41,546.27 L 136.00,546.00 L 135.04,545.59 L 134.20,545.37 L 133.70,545.29 L 131.52,545.05 L 130.29,545.05 L 127.80,545.12 L 126.64,545.27 L 124.41,545.65 L 123.60,545.96 L 121.66,546.40 L 120.70,546.32 L 120.55,546.09 L 120.66,545.65 L 121.05,545.34 L 121.39,545.17 L 122.15,544.83 L 122.64,544.66 L 123.70,544.32 L 124.31,544.15 L 126.97,543.52 L 128.47,543.27 L 131.52,542.83 L 133.00,542.74 L 137.50,542.47 L 134.79,541.09 L 133.23,540.47 L 132.16,540.24 L 131.56,540.22 L 130.28,540.23 L 129.50,540.32 L 127.83,540.57 L 126.79,540.78 L 122.82,541.30 L 121.79,541.32 L 121.43,541.28 L 120.81,541.17 L 120.70,541.07 L 120.79,540.58 L 121.36,540.23 L 121.85,540.06 L 122.97,539.71 L 123.67,539.54 L 125.16,539.21 L 126.00,539.06 L 129.56,538.53 L 131.33,538.40 L 133.07,538.30 L 133.86,538.29 L 135.38,538.32 L 136.00,538.39 L 140.20,539.06 L 141.64,539.35 L 142.28,539.50 L 143.51,539.81 L 143.99,539.95 L 146.51,540.69 L 147.12,540.86 L 147.32,540.92 L 147.64,541.00 L 147.66,541.00 L 147.92,540.59 L 148.12,539.94 L 148.23,539.49 L 148.67,537.35 L 148.87,536.10 L 149.22,533.58 L 149.30,532.57 L 149.37,531.63 L 149.36,531.29 L 149.33,530.72 L 149.27,530.63 L 149.18,530.16 L 149.48,530.18 L 149.78,530.36 L 150.71,530.56 L 151.28,530.36 L 151.44,530.10 L 151.40,529.73 L 151.15,529.43 L 150.92,529.26 L 149.74,528.53 L 148.81,528.11 L 146.87,527.29 L 147.62,527.54 L 149.17,527.97 L 149.91,528.16 L 151.18,528.39 L 151.78,528.48 L 152.79,528.50 L 153.27,528.48 L 154.03,528.29 L 154.39,528.16 L 154.94,527.74 L 155.20,527.50 L 155.55,526.85 L 155.71,526.49 L 155.89,525.60 L 156.00,523.98 L 156.00,523.57 L 156.16,522.35 L 156.26,521.70 L 156.60,520.12 L 156.96,518.48 L 158.00,514.81 L 158.09,514.52 M 117.52,572.00 L 115.49,572.41 L 114.24,573.06 L 113.72,573.51 L 112.78,574.49 L 112.48,575.05 L 112.01,576.22 L 112.02,576.82 L 112.42,579.03 L 113.13,580.14 L 113.75,580.54 L 115.21,581.26 L 116.27,581.51 L 117.39,581.75 L 118.05,581.85 L 119.42,582.03 L 120.21,582.11 L 123.67,582.41 L 125.06,582.50 L 126.37,582.58 L 126.86,582.60 L 127.70,582.62 L 127.89,582.61 L 129.33,582.02 L 130.09,581.23 L 130.34,580.68 L 130.76,579.51 L 130.82,578.84 L 130.83,577.45 L 130.65,576.74 L 130.12,575.40 L 129.58,574.72 L 129.17,574.45 L 128.22,573.95 L 127.53,573.73 L 126.00,573.31 L 124.95,573.08 L 120.69,572.32 L 119.39,572.14 L 118.84,572.09 L 117.85,572.00 M 150.00,575.00 L 149.29,575.29 L 149.00,575.73 L 149.00,576.00 L 149.11,576.52 L 149.29,576.71 L 149.72,577.00 L 150.00,577.00 L 150.71,576.71 L 151.00,576.27 L 151.00,576.00 L 150.71,575.29 L 150.28,575.00 M 170.66,555.50 L 170.16,555.61 L 169.11,555.90 L 168.54,556.16 L 166.58,557.42 L 165.74,558.39 L 165.56,558.89 L 165.37,559.90 L 165.54,560.37 L 166.06,561.30 L 166.59,561.69 L 167.42,562.24 L 167.81,562.36 L 168.56,562.49 L 168.97,562.38 L 169.83,562.04 L 170.37,561.68 L 171.51,560.83 L 172.25,560.19 L 173.31,559.05 L 173.74,558.31 L 173.83,557.96 L 173.93,557.30 L 173.86,557.01 L 173.66,556.46 L 173.46,556.24 L 172.99,555.84 L 172.67,555.71 L 171.97,555.50 L 171.55,555.48 M 150.18,545.32 L 149.83,545.59 L 149.66,545.93 L 149.28,546.75 L 149.04,547.39 L 148.64,548.92 L 148.40,550.28 L 148.31,551.07 L 148.00,554.43 L 148.00,556.07 L 148.02,558.14 L 148.07,558.91 L 148.20,560.28 L 148.31,560.74 L 148.57,561.51 L 148.76,561.71 L 149.19,562.00 L 149.47,562.00 L 150.12,561.81 L 150.45,561.48 L 150.56,561.22 L 150.74,560.61 L 150.78,560.20 L 150.84,559.31 L 150.82,558.74 L 150.88,557.18 L 151.02,555.98 L 151.13,555.34 L 151.68,552.77 L 152.05,551.73 L 152.72,549.69 L 152.92,548.71 L 152.90,548.33 L 152.77,547.63 L 152.58,547.32 L 152.11,546.68 L 151.75,546.32 L 150.81,545.47 L 150.36,545.24 M 139.34,525.27 L 139.71,525.36 L 139.47,525.43 L 139.31,525.74 L 139.05,526.54 L 138.98,527.26 L 138.92,528.04 L 138.90,528.52 L 138.86,529.56 L 138.84,530.18 L 138.74,534.31 L 138.73,535.43 L 138.73,535.85 L 138.72,536.58 L 138.73,536.75 L 138.50,537.63 L 138.12,538.00 L 137.86,538.00 L 137.26,537.76 L 136.88,537.37 L 136.70,537.09 L 136.04,535.70 L 135.81,534.76 L 135.41,532.75 L 135.34,531.65 L 135.31,529.43 L 135.47,528.39 L 136.04,524.56 M 175.45,469.47 L 174.52,474.98 L 174.07,477.59 L 173.20,482.68 L 172.81,484.89 L 172.43,487.04 L 172.25,488.00 L 171.92,489.85 L 171.77,490.63 L 171.50,492.11 L 171.38,492.69 L 171.17,493.73 L 171.10,494.07 L 170.93,495.39 L 170.86,496.60 L 170.86,497.38 L 170.87,499.05 L 170.90,500.06 L 170.98,502.19 L 171.04,503.44 L 171.19,506.04 L 171.29,507.53 L 171.51,510.62 L 171.65,512.35 L 171.94,515.93 L 172.05,517.19 L 172.01,516.77 L 171.85,514.91 L 171.58,511.53 L 171.45,509.90 L 171.24,506.97 L 171.15,505.57 L 171.01,503.09 L 170.95,501.91 L 170.88,499.87 L 170.86,498.90 L 170.85,497.30 L 170.86,496.55 L 170.92,495.37 L 171.09,494.07 L 171.17,493.73 L 171.38,492.69 L 171.50,492.11 L 171.77,490.63 L 171.92,489.85 L 172.25,488.00 L 172.43,487.04 L 172.81,484.89 L 173.20,482.68 L 174.07,477.59 L 174.52,474.98 L 175.45,469.47 L 175.55,468.87 M 161.26,507.62 L 161.37,507.74 L 161.59,508.29 L 161.70,508.62 L 161.78,509.01 L 161.69,508.72 L 161.43,507.96 L 161.29,507.76 L 161.03,507.48 M 238.95,269.42 L 238.52,272.00 L 238.28,273.25 L 237.65,275.52 L 237.31,276.62 L 236.65,278.16 L 237.31,276.62 L 237.65,275.52 L 238.28,273.25 L 238.52,272.00 L 238.95,269.42 M 232.19,284.56 L 230.50,286.00 L 229.61,286.70 L 227.58,288.02 L 224.12,289.94 L 222.58,290.71 L 219.98,291.88 L 218.73,292.40 L 216.41,293.16 L 215.24,293.50 L 212.78,293.97 L 212.58,293.99 L 214.95,293.55 L 216.19,293.21 L 218.62,292.43 L 219.90,291.90 L 222.55,290.72 L 224.14,289.93 L 227.59,288.01 L 229.62,286.69 L 230.50,285.99 L 232.19,284.56 M 29.05,286.16 L 29.82,286.44 L 32.81,287.54 L 32.65,287.49 L 30.94,286.89 L 28.15,285.84 L 28.15,285.84 M 20.81,281.93 L 21.58,282.56 L 22.75,283.43 L 22.25,283.19 L 21.82,282.95 L 20.92,282.16 L 20.46,281.72 L 19.52,280.59 L 19.49,280.55 M 19.24,280.23 L 18.59,279.40 L 18.41,279.08 M 205.70,219.04 L 203.67,219.15 L 202.86,219.30 L 201.38,219.66 L 200.82,219.99 L 199.81,220.75 L 199.45,221.33 L 198.82,222.63 L 198.62,223.52 L 198.28,225.50 L 198.19,226.79 L 198.05,229.59 L 198.02,231.34 L 198.01,233.16 L 198.00,234.17 L 198.00,236.25 L 198.00,237.39 L 198.05,243.37 L 198.14,246.93 L 198.20,248.37 L 198.26,249.76 L 198.29,250.34 L 198.37,251.44 L 198.41,251.87 L 198.49,252.64 L 198.53,252.89 L 198.62,253.29 L 198.67,253.33 L 199.07,253.58 L 199.45,253.67 L 200.31,253.83 L 200.88,253.88 L 203.42,254.01 L 204.89,253.97 L 207.87,253.82 L 209.17,253.64 L 210.42,253.45 L 210.94,253.33 L 211.89,253.08 L 212.20,252.94 L 213.32,252.18 L 214.17,251.41 L 214.63,250.92 L 216.52,248.70 L 217.45,247.39 L 219.24,244.68 L 219.93,243.38 L 220.58,242.10 L 220.82,241.52 L 221.25,240.39 L 221.36,239.92 L 222.52,237.76 L 223.78,236.51 L 224.48,236.19 L 226.19,235.02 L 226.80,234.01 L 226.85,233.34 L 226.76,231.85 L 226.45,230.86 L 226.11,229.82 L 225.87,229.22 L 225.36,227.98 L 225.04,227.27 L 222.66,223.41 L 221.72,222.41 L 221.19,221.98 L 220.10,221.18 L 219.48,220.86 L 218.21,220.25 L 217.49,220.02 L 216.01,219.59 L 215.19,219.44 L 213.48,219.18 L 212.53,219.11 L 210.56,219.00 L 209.47,219.00 M 33.38,168.99 L 32.13,172.18 L 31.46,173.92 L 30.08,177.50 L 29.34,179.45 L 27.83,183.45 L 27.02,185.63 L 25.35,190.10 L 24.45,192.53 L 22.61,197.52 L 21.62,200.22 L 19.59,205.77 L 18.50,208.76 L 16.26,214.91 L 15.06,218.22 L 14.67,219.28 L 17.80,210.50 L 18.96,207.24 L 21.18,201.08 L 22.28,198.06 L 24.38,192.36 L 25.41,189.56 L 27.39,184.30 L 28.37,181.72 L 30.23,176.89 L 31.16,174.53 L 32.92,170.11 L 33.79,167.94 L 33.89,167.71 M 187.09,211.58 L 187.22,213.96 L 187.34,214.59 L 187.41,214.83 L 187.57,215.24 L 187.67,215.33 L 188.23,215.80 L 188.41,215.79 L 188.70,215.63 L 188.74,215.33 L 188.75,214.58 L 188.66,214.00 L 188.39,212.70 L 188.15,211.86 L 187.18,208.50 M 190.16,133.01 L 188.57,133.21 L 187.32,133.51 L 186.63,133.73 L 183.75,134.78 L 182.34,135.46 L 179.61,136.88 L 178.59,137.59 L 177.64,138.28 L 177.31,138.61 L 176.74,139.23 L 176.64,139.49 L 176.47,140.68 L 176.47,141.89 L 176.51,142.65 L 176.81,146.00 L 177.13,147.81 L 177.54,150.09 L 177.80,151.35 L 177.95,151.89 L 178.65,153.85 L 179.29,154.76 L 180.00,155.68 L 180.46,156.18 L 181.48,157.23 L 182.14,157.83 L 183.56,159.11 L 184.44,159.88 L 186.34,161.52 L 187.50,162.51 L 189.74,164.32 L 190.69,164.95 L 191.59,165.51 L 191.94,165.69 L 192.57,165.97 L 192.74,165.97 L 193.58,165.65 L 194.12,165.11 L 194.39,164.70 L 194.91,163.76 L 195.16,163.16 L 195.64,161.88 L 195.86,161.11 L 196.30,159.51 L 196.49,158.61 L 196.86,156.74 L 197.02,155.72 L 197.58,151.40 L 197.72,148.98 L 197.88,145.90 L 197.96,144.22 L 197.97,143.53 L 197.99,142.24 L 197.96,141.71 L 197.89,140.72 L 197.82,140.32 L 197.45,138.87 L 197.08,138.25 L 196.21,137.02 L 195.54,136.23 L 194.19,134.82 L 193.29,134.08 L 192.84,133.81 L 191.94,133.34 L 191.50,133.21 L 190.61,133.01 M 152.28,155.35 L 152.10,155.21 L 152.02,155.05 M 147.28,117.70 L 147.28,118.86 L 147.30,119.40 L 147.44,120.25 L 147.52,120.63 L 147.79,121.17 L 147.95,121.40 L 148.37,121.64 L 148.60,121.73 L 149.17,121.69 L 149.48,121.64 L 150.21,121.33 L 151.51,120.59 L 152.19,120.14 L 153.77,119.53 L 154.58,119.27 L 156.17,119.06 L 156.94,119.00 L 158.24,119.20 L 159.50,120.00 L 159.67,120.28 L 159.24,120.71 L 157.71,121.00 L 157.09,121.00 L 156.01,121.15 L 155.51,121.25 L 154.65,121.67 L 154.25,121.92 L 153.59,122.69 L 153.28,123.13 L 152.78,124.34 L 152.55,125.01 L 152.18,126.73 L 152.01,127.67 L 151.75,130.00 L 151.63,131.25 L 151.44,134.26 L 151.21,139.65 L 151.15,141.32 L 151.07,144.14 L 151.03,145.46 L 151.02,146.15 L 150.98,145.77 L 150.77,144.31 L 150.58,143.90 L 150.15,143.26 L 149.79,143.14 L 148.98,143.00 L 148.38,143.00 L 147.20,142.78 L 146.33,142.44 L 145.87,142.19 L 144.00,140.99 L 143.13,140.22 L 141.47,138.59 L 140.91,137.78 L 140.40,136.97 L 140.24,136.60 L 140.00,135.87 L 140.00,135.55 L 139.79,134.84 L 139.44,134.41 L 139.18,134.22 L 137.89,133.53 L 136.95,133.34 L 133.89,132.73 L 137.70,130.99 L 140.02,129.81 L 141.37,128.99 L 141.95,128.54 L 144.06,126.68 L 144.81,125.53 L 145.51,124.34 L 145.80,123.68 L 146.34,122.29 L 146.55,121.51 L 146.94,119.90 L 147.09,118.99 L 147.28,117.66 M 51.54,133.59 L 50.84,134.47 L 49.45,136.32 L 48.75,137.36 L 47.36,139.54 L 46.64,140.77 L 43.91,145.60 L 44.39,144.69 L 45.06,143.43 L 46.36,141.14 L 47.01,140.04 L 48.26,138.05 L 48.88,137.10 L 50.08,135.40 L 50.68,134.58 L 51.85,133.15 L 52.91,132.10 M 58.61,127.70 L 57.73,128.24 L 56.04,129.35 L 55.25,129.97 L 53.96,131.08 L 55.25,129.80 L 55.86,129.32 L 57.47,128.32 L 58.33,127.83 L 59.05,127.48 M 147.73,113.38 L 147.87,112.28 L 147.96,111.71 L 148.05,111.27 M 159.63,94.75 L 158.18,96.91 L 157.43,97.98 L 155.86,100.05 L 153.57,102.76 L 152.96,103.42 L 151.94,104.55 L 151.46,105.09 L 150.66,106.04 L 149.92,106.96 L 148.97,108.56 L 148.57,109.37 L 148.11,111.03 L 148.40,109.67 L 148.79,108.82 L 149.71,107.17 L 150.47,106.23 L 151.28,105.26 L 151.79,104.70 L 152.87,103.51 L 153.52,102.81 L 155.83,100.08 L 157.42,98.00 L 158.17,96.92 L 159.63,94.76 L 160.25,93.73 L 161.41,91.74 L 160.26,93.73 M 72.56,68.22 L 73.11,68.00 L 73.35,68.00 L 73.11,68.00 M 84.00,67.00 L 80.75,66.90 L 79.01,66.83 L 78.40,66.76 L 78.35,66.70 L 78.42,66.57 L 78.70,66.46 L 79.41,66.22 L 80.00,66.04 L 81.24,65.62 L 81.70,65.39 L 81.75,65.28 L 81.74,65.06 L 81.57,64.94 L 81.13,64.69 L 80.75,64.53 L 78.66,64.15 L 77.14,64.26 L 76.45,64.47 L 75.15,64.96 L 74.71,65.31 L 74.15,65.92 L 74.41,65.46 L 74.68,65.14 L 75.64,64.65 L 76.19,64.43 L 77.69,64.16 L 80.58,64.00 L 84.00,64.00 M 85.21,51.32 L 84.79,51.88 L 84.63,52.33 L 84.35,53.35 L 84.26,54.04 L 84.10,55.55 L 84.06,56.49 L 84.00,58.50 L 84.00,57.19 L 84.07,55.51 L 84.11,54.72 L 84.29,53.46 L 84.39,52.89 L 84.68,52.04 L 84.85,51.67 L 85.29,51.22 L 85.37,51.17 M 85.48,51.09 L 85.52,51.05 L 85.77,51.03 M 241.58,253.84 L 241.67,253.07 L 241.95,249.88 L 241.93,248.51 L 241.85,243.50 L 239.42,250.46 L 237.32,255.43 L 235.66,258.29 L 234.62,259.61 L 232.37,262.20 L 230.93,263.50 L 229.44,264.81 L 228.59,265.48 L 226.85,266.86 L 225.87,267.58 L 223.45,269.22 L 222.01,270.00 L 221.33,270.27 L 219.98,270.72 L 219.28,270.83 L 217.85,271.00 L 217.05,271.00 L 213.31,271.30 L 211.13,271.94 L 209.97,272.61 L 208.78,273.35 L 208.13,273.83 L 206.77,274.87 L 206.00,275.53 L 204.38,276.92 L 203.45,277.77 L 201.49,279.58 L 200.35,280.65 L 198.56,282.50 L 197.78,283.58 L 197.55,284.17 L 197.18,285.42 L 197.10,286.24 L 197.00,288.02 L 197.00,289.23 L 197.13,293.21 L 197.23,294.19 L 197.28,294.52 L 197.40,295.06 L 197.46,295.13 L 197.84,295.22 L 198.37,295.23 L 199.63,295.22 L 200.51,295.18 L 202.00,295.10 L 201.87,295.11 L 201.07,295.22 L 199.84,295.48 L 199.28,295.62 L 198.47,295.97 L 198.11,296.16 L 197.63,296.67 L 197.42,296.94 L 197.16,297.65 L 197.05,298.03 L 196.93,298.99 L 196.80,300.76 L 196.74,301.76 L 196.56,303.20 L 196.45,303.84 L 196.11,304.71 L 195.91,305.09 L 195.31,305.59 L 194.00,306.11 L 193.91,306.13 L 193.39,306.18 L 193.07,306.20 L 192.09,306.25 L 191.55,306.27 L 190.15,306.32 L 189.40,306.34 L 187.59,306.39 L 186.64,306.41 L 184.47,306.45 L 183.33,306.47 L 180.80,306.51 L 179.49,306.53 L 176.63,306.57 L 175.16,306.59 L 172.00,306.63 L 170.38,306.64 L 166.94,306.68 L 165.19,306.70 L 161.49,306.73 L 157.73,306.76 L 149.56,306.81 L 145.38,306.83 L 136.51,306.87 L 122.62,306.90 L 53.74,307.00 L 50.53,303.60 L 49.60,302.62 L 47.97,299.98 L 47.61,299.30 L 47.02,297.94 L 46.41,296.00 L 46.19,294.97 L 45.76,293.56 L 45.52,292.94 L 44.70,292.05 L 44.19,291.63 L 42.51,290.88 L 42.27,290.78 L 43.48,290.90 L 44.23,290.82 L 45.83,290.58 L 46.93,290.36 L 48.46,289.96 L 49.17,289.64 L 49.39,289.43 L 49.74,288.98 L 49.80,288.69 L 49.86,288.05 L 49.80,287.63 L 48.88,285.92 L 47.73,285.03 L 47.00,284.82 L 45.63,284.41 L 44.45,284.04 L 43.77,283.83 L 40.88,282.92 L 39.50,282.47 L 34.79,281.11 L 33.18,280.69 L 32.45,280.52 L 31.05,280.20 L 30.50,280.10 L 28.61,279.64 L 27.18,279.20 L 26.44,278.93 L 23.45,277.77 L 22.29,277.17 L 20.35,276.21 L 19.28,275.72 L 18.85,275.55 L 18.05,275.26 L 17.74,275.19 L 17.21,275.10 L 17.03,275.14 L 16.74,275.26 L 16.69,275.40 L 16.64,275.73 L 16.70,275.98 L 16.79,276.28 L 16.04,274.85 L 14.82,271.70 L 14.57,270.93 L 14.23,269.51 L 14.01,267.60 L 14.01,267.06 L 13.80,265.67 L 13.67,264.94 L 13.25,263.30 L 11.43,258.45 L 10.45,256.44 L 9.15,252.12 L 8.61,249.92 L 8.20,245.35 L 8.10,243.04 L 8.58,238.39 L 10.32,231.50 L 10.49,231.02 L 10.84,230.04 L 13.36,236.72 L 15.37,242.39 L 15.93,244.10 L 16.14,244.80 L 16.53,246.09 L 16.62,246.50 L 17.31,248.03 L 18.12,249.34 L 18.67,250.10 L 21.14,253.32 L 22.58,254.93 L 24.02,256.52 L 24.72,257.24 L 26.11,258.62 L 26.73,259.18 L 27.92,260.19 L 28.39,260.51 L 29.24,261.00 L 29.50,261.00 L 30.25,261.28 L 30.97,261.71 L 31.40,262.03 L 33.31,263.54 L 34.30,264.50 L 36.27,266.25 L 37.21,266.80 L 39.07,267.72 L 40.01,267.87 L 41.88,267.96 L 42.87,267.71 L 44.87,267.01 L 45.96,266.36 L 47.54,265.22 L 48.22,264.28 L 48.44,263.49 L 48.64,262.63 L 48.72,262.08 L 48.88,260.88 L 48.95,260.13 L 49.08,258.51 L 49.15,257.52 L 49.29,255.39 L 49.36,254.11 L 49.61,248.97 L 49.76,244.94 L 49.83,242.80 L 49.95,238.48 L 49.99,236.39 L 50.06,232.29 L 50.07,230.50 L 50.17,225.24 L 50.32,222.08 L 50.44,220.63 L 50.73,217.79 L 50.94,216.45 L 51.40,213.79 L 51.71,212.48 L 52.38,209.86 L 52.81,208.52 L 53.72,205.79 L 54.28,204.33 L 55.47,201.35 L 56.18,199.71 L 57.68,196.33 L 58.56,194.44 L 60.58,190.28 L 61.72,188.15 L 62.18,187.41 L 63.03,186.16 L 63.35,185.87 L 63.90,185.50 L 64.06,185.66 L 64.54,186.70 L 64.87,187.92 L 65.03,188.74 L 65.36,190.53 L 65.52,191.58 L 65.84,193.79 L 65.98,195.01 L 66.52,200.11 L 66.70,202.75 L 66.99,207.98 L 66.99,210.25 L 67.00,217.00 L 111.75,216.99 L 117.84,216.98 L 121.65,216.97 L 123.43,216.97 L 126.91,216.95 L 128.53,216.95 L 131.70,216.93 L 133.16,216.92 L 136.02,216.89 L 137.34,216.88 L 139.91,216.85 L 141.09,216.83 L 143.38,216.79 L 144.43,216.77 L 146.46,216.73 L 147.37,216.70 L 150.79,216.60 L 152.15,216.53 L 154.65,216.39 L 155.58,216.31 L 157.26,216.14 L 157.82,216.04 L 158.76,215.83 L 159.00,215.71 L 160.33,214.79 L 161.01,213.95 L 161.28,213.32 L 161.80,211.89 L 162.04,210.86 L 162.29,209.77 L 162.41,209.12 L 162.67,207.77 L 162.81,206.98 L 163.14,205.19 L 163.43,203.76 L 163.59,202.96 L 164.33,199.50 L 164.77,197.53 L 166.68,189.22 L 167.65,185.32 L 168.97,179.67 L 169.70,176.22 L 169.97,174.77 L 170.22,173.37 L 170.32,172.76 L 170.49,171.61 L 170.54,171.14 L 170.63,170.27 L 170.64,169.96 L 170.64,169.43 L 170.60,169.30 L 170.03,168.43 L 169.37,167.76 L 168.93,167.41 L 166.92,166.02 L 165.75,165.48 L 162.16,163.17 L 161.07,162.23 L 160.61,161.76 L 159.78,160.82 L 159.50,160.39 L 157.21,157.94 L 156.28,157.25 L 155.82,156.99 L 155.68,156.91 L 157.41,156.92 L 158.28,156.86 L 159.93,156.35 L 162.00,155.00 L 162.55,154.45 L 163.70,153.59 L 164.98,153.00 L 165.25,153.00 L 165.85,152.28 L 166.57,150.56 L 166.76,149.81 L 167.61,148.69 L 169.34,147.81 L 169.82,147.74 L 170.49,147.45 L 170.79,147.26 L 171.18,146.53 L 171.36,146.09 L 171.57,144.67 L 171.80,141.50 L 171.89,139.85 L 172.30,136.98 L 172.41,136.35 L 172.66,135.39 L 173.05,134.55 L 173.37,134.24 L 173.75,133.07 L 173.90,132.42 L 173.96,130.79 L 173.95,129.94 L 173.70,128.11 L 172.97,125.43 L 172.72,124.76 L 172.44,123.88 L 172.36,123.52 L 172.56,123.15 L 172.74,123.02 L 173.61,123.04 L 175.84,123.36 L 176.37,123.44 L 177.86,123.76 L 178.66,123.94 L 180.51,124.39 L 186.29,126.01 L 187.37,126.34 L 189.34,127.12 L 190.30,127.54 L 192.06,128.54 L 192.93,129.08 L 194.56,130.37 L 195.37,131.06 L 196.93,132.72 L 197.71,133.60 L 199.26,135.69 L 200.04,136.80 L 201.65,139.39 L 202.46,140.76 L 204.19,143.93 L 206.97,149.42 L 207.47,150.42 L 208.59,152.80 L 209.17,154.06 L 210.46,156.89 L 211.12,158.36 L 212.53,161.58 L 213.26,163.23 L 214.78,166.75 L 216.32,170.34 L 219.60,178.15 L 221.25,182.11 L 224.57,190.23 L 226.22,194.27 L 229.35,202.14 L 230.11,204.07 L 231.56,207.77 L 232.26,209.59 L 233.59,213.04 L 234.23,214.72 L 235.39,217.84 L 235.95,219.35 L 236.94,222.07 L 237.40,223.37 L 238.17,225.62 L 239.06,228.38 L 239.85,231.03 L 240.97,236.38 L 241.45,239.04 L 241.94,244.16 L 242.11,246.65 L 241.95,251.20 L 241.87,252.28 L 241.58,254.29 L 240.95,257.01 L 241.35,255.26 Z" fill="rgba(169,165,164,1)"/>
<path d="M 181.75,438.37 L 182.02,439.25 L 182.02,439.29 L 182.06,439.77 L 182.08,440.07 L 182.17,441.04 L 182.21,441.59 L 182.34,443.03 L 182.41,443.81 L 182.58,445.69 L 182.66,446.69 L 182.87,448.99 L 182.98,450.19 L 183.22,452.89 L 183.34,454.28 L 183.62,457.34 L 183.76,458.91 L 184.06,462.31 L 184.22,464.05 L 184.56,467.76 L 184.73,469.65 L 185.09,473.65 L 185.46,477.71 L 186.26,486.59 L 186.67,491.13 L 187.55,500.81 L 188.94,516.00 L 189.21,518.93 L 189.72,524.57 L 189.97,527.36 L 190.45,532.71 L 190.68,535.35 L 191.13,540.40 L 191.35,542.89 L 191.76,547.63 L 191.96,549.96 L 192.34,554.37 L 192.52,556.54 L 192.86,560.62 L 193.03,562.62 L 193.33,566.36 L 193.48,568.19 L 193.74,571.57 L 193.87,573.22 L 194.10,576.25 L 194.21,577.71 L 194.40,580.36 L 194.49,581.64 L 194.64,583.90 L 194.71,584.98 L 194.82,586.85 L 194.87,587.74 L 194.94,589.20 L 194.96,589.88 L 194.99,590.93 L 195.00,591.40 L 194.98,592.02 L 194.90,592.46 L 194.73,592.65 L 193.95,592.98 L 193.50,593.14 L 192.28,593.42 L 190.99,593.68 L 187.76,594.01 L 186.14,594.13 L 183.20,594.10 L 182.54,594.06 L 181.50,593.91 L 181.03,593.82 L 180.48,593.55 L 180.17,593.30 L 179.67,592.56 L 179.44,592.15 L 179.12,591.12 L 178.98,590.58 L 178.84,589.36 L 178.88,587.38 L 178.90,587.23 L 179.25,586.74 L 179.47,586.47 L 180.15,585.81 L 183.04,583.59 L 183.76,583.12 L 184.97,582.22 L 185.54,581.78 L 186.47,580.92 L 186.89,580.49 L 187.54,579.62 L 187.83,579.18 L 188.22,578.26 L 188.39,577.78 L 188.53,576.77 L 188.58,576.24 L 188.50,575.09 L 188.43,574.49 L 188.13,573.15 L 187.46,570.89 L 186.96,569.37 L 185.53,566.04 L 184.77,564.36 L 182.99,561.03 L 182.08,559.40 L 180.19,556.48 L 177.48,553.00 L 176.93,552.42 L 176.13,550.96 L 175.94,550.51 L 175.61,549.31 L 175.44,548.65 L 175.12,546.89 L 174.96,545.93 L 174.63,543.44 L 174.46,542.09 L 174.09,538.69 L 173.99,537.77 L 173.78,535.74 L 173.68,534.69 L 173.45,532.37 L 173.34,531.17 L 173.09,528.54 L 172.68,524.22 L 172.47,521.99 L 172.11,517.91 L 171.94,515.93 L 171.65,512.35 L 171.51,510.62 L 171.29,507.53 L 171.19,506.04 L 171.04,503.44 L 170.98,502.19 L 170.90,500.06 L 170.87,499.05 L 170.86,497.38 L 170.86,496.60 L 170.93,495.39 L 171.10,494.07 L 171.17,493.73 L 171.38,492.69 L 171.50,492.11 L 171.77,490.63 L 171.92,489.85 L 172.25,488.00 L 172.43,487.04 L 172.81,484.89 L 173.20,482.68 L 174.07,477.59 L 174.52,474.98 L 175.45,469.47 L 175.91,466.71 L 176.81,461.29 L 177.24,458.63 L 178.02,453.77 L 178.20,452.62 L 178.54,450.50 L 178.69,449.48 L 178.97,447.68 L 179.10,446.82 L 179.30,445.40 L 179.52,443.75 L 179.62,442.96 L 179.87,441.52 L 180.00,440.83 L 180.28,439.69 L 180.43,439.17 L 180.72,438.45 L 181.12,438.00 L 181.36,438.00 M 168.82,591.02 L 168.94,591.11 L 168.98,591.34 L 168.96,591.47 L 168.75,591.78 L 168.60,591.95 L 168.11,592.33 L 167.07,592.96 L 166.80,593.11 L 165.88,593.35 L 165.37,593.47 L 164.07,593.65 L 162.70,593.82 L 159.46,593.97 L 157.86,594.02 L 155.06,593.88 L 154.45,593.83 L 153.50,593.67 L 153.09,593.58 L 152.67,593.33 L 152.24,592.91 L 151.96,592.25 L 151.92,591.96 L 152.36,591.57 L 152.68,591.41 L 153.81,591.31 L 156.25,591.51 L 156.83,591.59 L 158.24,591.68 L 158.96,591.70 L 160.50,591.67 L 161.27,591.64 L 162.76,591.50 L 164.75,591.18 L 165.85,590.93 L 167.45,590.78 L 168.13,590.76 M 70.05,386.50 L 67.56,415.00 L 67.48,415.98 L 67.28,418.28 L 67.17,419.49 L 66.94,422.23 L 66.82,423.64 L 66.55,426.77 L 66.41,428.38 L 66.11,431.87 L 65.96,433.65 L 65.63,437.46 L 65.47,439.40 L 65.12,443.50 L 64.76,447.67 L 64.00,456.72 L 63.60,461.34 L 62.78,471.09 L 62.36,476.03 L 61.50,486.21 L 58.90,517.00 L 58.48,522.05 L 57.64,531.79 L 57.23,536.58 L 56.43,545.64 L 56.03,550.06 L 55.29,558.23 L 55.11,560.21 L 54.76,563.97 L 54.58,565.81 L 54.25,569.28 L 54.09,570.97 L 53.78,574.12 L 53.63,575.65 L 53.35,578.46 L 53.21,579.81 L 52.96,582.25 L 52.84,583.42 L 52.61,585.47 L 52.50,586.44 L 52.31,588.06 L 52.22,588.82 L 52.07,590.00 L 51.99,590.53 L 51.87,591.24 L 51.74,591.75 L 51.62,591.90 L 51.05,592.16 L 50.71,592.28 L 49.76,592.48 L 48.74,592.67 L 45.98,592.86 L 44.55,592.92 L 41.52,592.83 L 40.05,592.75 L 37.50,592.35 L 36.95,592.23 L 35.43,591.91 L 33.25,591.44 L 32.79,591.34 L 32.12,591.05 L 31.82,590.87 L 31.43,590.34 L 31.27,590.03 L 31.17,589.51 L 37.76,589.71 L 42.96,589.59 L 44.36,589.45 L 44.87,589.35 L 45.76,589.15 L 45.96,589.02 L 46.61,588.21 L 46.97,587.30 L 47.12,586.66 L 47.39,585.26 L 47.48,584.37 L 47.66,582.46 L 47.71,581.32 L 47.83,579.11 L 47.93,577.42 L 47.99,576.48 L 48.26,572.48 L 48.44,570.17 L 48.81,565.40 L 49.02,562.82 L 49.46,557.57 L 49.69,554.86 L 50.67,543.91 L 51.17,538.82 L 51.67,533.85 L 51.90,531.61 L 52.37,527.30 L 52.58,525.50 L 53.65,516.01 L 54.38,509.30 L 54.74,505.89 L 55.45,499.04 L 55.79,495.69 L 56.44,489.09 L 56.73,486.01 L 57.30,480.03 L 57.53,477.41 L 57.75,474.86 L 57.85,473.70 L 58.04,471.47 L 58.12,470.48 L 58.26,468.61 L 58.31,467.82 L 58.41,466.35 L 58.44,465.79 L 58.49,464.78 L 58.49,464.47 L 58.48,463.96 L 58.45,463.92 L 58.39,463.53 L 58.38,463.04 L 58.39,462.70 L 58.46,461.06 L 58.55,459.92 L 58.76,457.45 L 58.90,456.00 L 59.22,452.97 L 59.42,451.34 L 60.24,444.30 L 60.75,439.84 L 60.98,437.72 L 61.86,429.49 L 62.23,425.65 L 62.92,418.13 L 63.21,414.47 L 63.76,407.20 L 63.99,403.50 L 64.97,391.56 L 65.35,387.87 L 65.53,386.32 L 65.72,384.83 L 65.81,384.19 L 65.98,382.98 L 66.06,382.50 L 66.62,378.57 L 66.76,376.43 L 66.71,375.41 L 66.52,373.37 L 66.29,372.18 L 66.06,371.10 M 161.29,507.76 L 161.43,507.96 L 161.69,508.72 L 161.82,509.14 L 162.06,510.27 L 162.36,512.26 L 162.48,513.33 L 162.71,515.73 L 162.83,516.96 L 163.06,519.56 L 163.28,522.19 L 163.63,527.32 L 163.71,528.54 L 163.83,530.73 L 163.88,531.77 L 163.95,533.47 L 163.97,534.25 L 163.97,535.31 L 163.88,535.96 L 163.83,535.96 L 163.44,535.62 L 163.20,535.40 L 162.51,534.70 L 162.14,534.32 L 161.24,533.35 L 160.77,532.85 L 159.76,531.71 L 159.10,530.97 L 158.89,530.70 L 159.02,530.83 L 159.54,531.34 L 159.74,531.50 L 160.09,531.76 L 160.20,531.80 L 160.38,531.81 L 160.41,531.71 L 160.42,531.46 L 160.37,531.23 L 160.22,530.71 L 160.09,530.34 L 159.78,529.53 L 159.57,529.01 L 159.10,527.91 L 158.81,527.25 L 157.94,525.26 L 157.46,524.19 L 157.26,523.79 L 156.90,523.06 L 156.76,522.82 L 156.51,522.42 L 156.42,522.33 L 156.25,522.23 L 156.21,522.27 L 156.26,521.95 L 156.59,520.32 L 156.95,518.64 L 157.97,514.90 L 158.24,513.99 L 158.79,512.27 L 159.07,511.44 L 159.60,510.01 L 159.86,509.34 L 160.33,508.36 L 160.91,507.55 L 161.03,507.48 M 156.46,526.75 L 156.22,526.02 L 156.11,525.14 M 176.81,471.05 L 176.44,471.16 L 176.27,471.36 L 175.93,471.84 L 175.77,472.21 L 175.49,473.03 L 175.37,473.56 L 175.16,474.70 L 175.10,475.37 L 175.00,476.78 L 175.00,477.58 L 175.03,478.64 L 175.09,479.06 L 175.24,479.85 L 175.35,480.13 L 175.61,480.64 L 175.78,480.78 L 176.16,481.00 L 176.38,481.00 L 177.53,480.40 L 178.11,479.48 L 178.29,478.82 L 178.57,477.38 L 178.58,476.53 L 178.51,474.78 L 178.32,473.85 L 177.88,472.25 L 177.54,471.53 L 177.36,471.33 L 176.99,471.04 M 41.74,463.53 L 41.87,462.09 L 41.88,461.90 M 42.35,456.72 L 42.49,455.22 L 42.49,455.12 M 56.06,360.96 L 55.86,361.17 L 56.06,360.96 L 56.34,360.76 L 56.34,360.76 M 56.57,360.71 L 57.27,360.58 L 57.27,360.58 M 57.59,360.57 L 59.41,360.50 L 59.44,360.50 M 95.17,120.89 L 95.75,121.57 L 96.26,123.11 L 96.34,123.53 L 96.34,124.47 L 96.11,126.10 L 95.43,129.42 L 93.09,126.13 L 92.68,125.55 L 91.96,124.69 L 91.62,124.31 L 91.05,123.86 L 90.77,123.68 L 90.30,123.61 L 89.68,123.92 L 89.11,124.49 L 88.33,124.98 L 88.00,125.13 L 87.86,125.00 L 87.87,125.00 L 88.78,124.69 L 89.36,124.23 L 89.54,123.94 L 90.73,122.91 L 91.98,122.20 L 92.66,121.94 L 94.21,120.98 L 94.50,120.63 L 94.55,120.46 L 94.56,120.33 M 92.13,119.18 L 91.14,119.68 L 90.61,120.15 L 89.54,121.24 L 89.18,121.75 L 89.62,121.13 L 90.69,119.99 L 91.21,119.52 L 92.17,119.15 L 92.21,119.15 Z" fill="rgba(161,60,24,1)"/>
<path d="M 150.71,575.29 L 151.00,576.00 L 151.00,576.27 L 150.71,576.71 L 150.00,577.00 L 149.72,577.00 L 149.29,576.71 L 149.11,576.52 L 149.00,576.00 L 149.00,575.73 L 149.29,575.29 L 150.00,575.00 L 150.28,575.00 M 150.81,545.47 L 151.75,546.32 L 152.11,546.68 L 152.58,547.32 L 152.77,547.63 L 152.90,548.33 L 152.92,548.71 L 152.72,549.69 L 152.05,551.73 L 151.68,552.77 L 151.13,555.34 L 151.02,555.98 L 150.88,557.18 L 150.82,558.74 L 150.84,559.31 L 150.78,560.20 L 150.74,560.61 L 150.56,561.22 L 150.45,561.48 L 150.12,561.81 L 149.47,562.00 L 149.19,562.00 L 148.76,561.71 L 148.57,561.51 L 148.31,560.74 L 148.20,560.28 L 148.07,558.91 L 148.02,558.14 L 148.00,556.07 L 148.00,554.43 L 148.31,551.07 L 148.40,550.28 L 148.64,548.92 L 149.04,547.39 L 149.28,546.75 L 149.66,545.93 L 149.83,545.59 L 150.18,545.32 L 150.36,545.24 M 141.25,525.49 L 142.77,525.91 L 145.48,526.80 L 146.76,527.25 L 148.81,528.11 L 149.74,528.53 L 150.92,529.26 L 151.15,529.43 L 151.40,529.73 L 151.44,530.10 L 151.28,530.36 L 150.71,530.56 L 149.78,530.36 L 149.48,530.18 L 149.18,530.16 L 149.27,530.63 L 149.33,530.72 L 149.36,531.29 L 149.37,531.63 L 149.30,532.57 L 149.22,533.58 L 148.87,536.10 L 148.67,537.35 L 148.23,539.49 L 148.12,539.94 L 147.92,540.59 L 147.66,541.00 L 147.64,541.00 L 147.32,540.92 L 147.12,540.86 L 146.51,540.69 L 143.99,539.95 L 143.51,539.81 L 142.28,539.50 L 141.64,539.35 L 140.20,539.06 L 138.62,538.81 L 138.69,538.64 L 138.50,538.45 L 137.97,538.00 L 138.12,538.00 L 138.50,537.63 L 138.73,536.75 L 138.72,536.58 L 138.73,535.85 L 138.73,535.43 L 138.74,534.31 L 138.84,530.18 L 138.86,529.56 L 138.90,528.52 L 138.92,528.04 L 138.98,527.26 L 139.05,526.54 L 139.31,525.74 L 139.47,525.43 L 140.00,525.27 M 133.79,538.29 L 133.86,538.29 L 133.86,538.29 L 133.07,538.30 L 131.33,538.40 L 129.56,538.53 L 126.00,539.06 L 125.16,539.21 L 123.67,539.54 L 122.97,539.71 L 121.85,540.06 L 121.36,540.23 L 120.79,540.58 L 120.79,540.56 L 121.39,540.20 L 121.90,540.02 L 123.05,539.66 L 123.77,539.48 L 125.29,539.15 L 126.14,539.00 L 129.70,538.47 L 131.40,538.36 L 133.06,538.28 M 136.04,535.70 L 136.45,536.57 L 136.05,535.84 L 135.91,535.29 L 135.81,534.78 M 156.42,522.33 L 156.51,522.42 L 156.76,522.82 L 156.90,523.06 L 157.26,523.79 L 157.46,524.19 L 157.94,525.26 L 158.81,527.25 L 159.10,527.91 L 159.57,529.01 L 159.78,529.53 L 160.09,530.34 L 160.22,530.71 L 160.37,531.23 L 160.42,531.46 L 160.41,531.71 L 160.38,531.81 L 160.20,531.80 L 160.09,531.76 L 159.74,531.50 L 159.54,531.34 L 159.02,530.83 L 158.74,530.55 L 158.04,529.81 L 157.48,529.21 L 156.60,527.39 L 156.00,524.64 L 156.00,523.74 L 156.07,522.68 L 156.10,522.48 L 156.19,522.29 L 156.25,522.23 M 132.29,523.65 L 136.08,524.27 L 135.66,527.08 L 135.71,524.22 L 132.23,523.64 M 124.28,524.06 L 124.18,524.35 L 123.93,525.72 L 123.90,526.75 L 123.93,525.72 L 124.18,524.35 L 124.28,524.05 L 124.58,523.63 M 124.58,523.63 L 124.59,523.62 L 124.66,523.54 M 124.76,523.43 L 124.77,523.43 L 124.95,523.34 M 120.14,497.49 L 120.46,497.55 L 120.96,497.85 L 121.18,498.04 L 121.51,498.62 L 121.65,498.94 L 121.82,499.81 L 121.88,500.29 L 121.89,501.47 L 121.87,502.10 L 121.73,503.61 L 121.36,506.25 L 121.20,507.18 L 120.77,508.55 L 120.54,509.14 L 120.02,509.80 L 119.75,510.03 L 119.22,509.90 L 118.95,509.73 L 118.49,508.75 L 118.03,507.49 L 117.28,505.42 L 116.94,504.46 L 116.42,502.94 L 116.19,502.24 L 115.88,501.16 L 115.75,500.67 L 115.65,499.95 L 115.63,499.62 L 115.73,499.16 L 115.81,498.95 L 116.11,498.65 L 117.70,497.92 L 118.20,497.73 L 119.06,497.53 L 119.47,497.45 M 241.93,248.51 L 241.95,249.88 L 241.67,253.07 L 241.58,253.84 L 241.35,255.26 L 240.95,257.01 L 240.81,257.49 L 240.48,258.95 L 240.31,259.75 L 239.97,261.68 L 239.10,268.00 L 238.95,269.42 L 238.52,272.00 L 238.28,273.25 L 237.65,275.52 L 237.31,276.62 L 236.46,278.62 L 236.00,279.59 L 234.90,281.35 L 234.31,282.21 L 232.93,283.79 L 232.20,284.56 L 230.50,285.99 L 229.62,286.69 L 227.59,288.01 L 224.14,289.93 L 222.55,290.72 L 219.90,291.90 L 218.62,292.43 L 216.19,293.21 L 214.95,293.55 L 212.21,294.06 L 207.21,294.67 L 205.93,294.80 L 203.56,294.99 L 202.43,295.08 L 200.51,295.18 L 199.63,295.22 L 198.37,295.23 L 197.84,295.22 L 197.46,295.13 L 197.40,295.06 L 197.28,294.52 L 197.23,294.19 L 197.13,293.21 L 197.00,289.23 L 197.00,288.02 L 197.10,286.24 L 197.18,285.42 L 197.55,284.17 L 197.78,283.58 L 198.56,282.50 L 200.35,280.65 L 201.49,279.58 L 203.45,277.77 L 204.38,276.92 L 206.00,275.53 L 206.77,274.87 L 208.13,273.83 L 208.78,273.35 L 209.97,272.61 L 211.13,271.94 L 213.31,271.30 L 217.05,271.00 L 217.85,271.00 L 219.28,270.83 L 219.98,270.72 L 221.33,270.27 L 222.01,270.00 L 223.45,269.22 L 225.87,267.58 L 226.85,266.86 L 228.59,265.48 L 229.44,264.81 L 230.93,263.50 L 232.37,262.20 L 234.62,259.61 L 235.66,258.29 L 237.32,255.43 L 239.42,250.46 L 241.85,243.50 M 17.74,275.19 L 18.05,275.26 L 18.85,275.55 L 19.28,275.72 L 20.35,276.21 L 22.29,277.17 L 23.45,277.77 L 26.44,278.93 L 27.18,279.20 L 28.61,279.64 L 30.50,280.10 L 31.05,280.20 L 32.45,280.52 L 33.18,280.69 L 34.79,281.11 L 39.50,282.47 L 40.88,282.92 L 43.77,283.83 L 44.45,284.04 L 45.63,284.41 L 47.00,284.82 L 47.73,285.03 L 48.88,285.92 L 49.80,287.63 L 49.86,288.05 L 49.80,288.69 L 49.74,288.98 L 49.39,289.43 L 49.17,289.64 L 48.46,289.96 L 46.93,290.36 L 45.83,290.58 L 44.23,290.82 L 43.48,290.90 L 42.05,290.76 L 41.30,290.64 L 39.33,290.01 L 38.77,289.81 L 37.43,289.32 L 36.72,289.05 L 35.00,288.38 L 33.21,287.69 L 29.82,286.44 L 29.05,286.16 L 27.79,285.71 L 26.50,285.28 L 25.68,285.04 L 24.00,284.21 L 23.17,283.75 L 21.58,282.56 L 20.81,281.93 L 19.42,280.47 L 17.69,278.10 L 17.42,277.63 L 17.04,276.88 L 16.87,276.52 L 16.70,275.98 L 16.64,275.73 L 16.69,275.40 L 16.74,275.26 L 17.03,275.14 L 17.21,275.10 M 143.24,140.33 L 143.14,140.24 L 143.13,140.23 M 140.40,136.97 L 140.91,137.78 L 141.47,138.59 L 143.10,140.19 L 141.49,138.63 L 140.92,137.82 L 140.40,137.03 L 140.25,136.66 L 140.00,135.95 L 140.00,135.87 L 140.24,136.60 M 104.47,135.08 L 104.54,135.61 L 104.46,135.06 M 104.29,134.00 L 104.45,135.00 L 104.28,133.98 M 74.01,67.52 L 74.16,67.85 L 74.41,67.85 L 75.08,67.75 L 75.73,67.53 L 76.44,67.29 L 76.90,67.13 L 77.89,66.78 L 78.40,66.60 L 78.35,66.70 L 78.40,66.76 L 79.01,66.83 L 80.75,66.90 L 84.00,67.00 L 84.00,58.50 L 84.06,56.49 L 84.10,55.55 L 84.26,54.04 L 84.35,53.35 L 84.63,52.33 L 84.79,51.88 L 85.21,51.32 L 85.44,51.09 L 86.03,50.97 L 86.35,50.97 L 87.12,51.26 L 87.54,51.46 L 88.53,52.16 L 90.27,53.62 L 91.03,54.31 L 92.27,55.31 L 92.86,55.74 L 93.83,56.28 L 94.30,56.49 L 95.13,56.62 L 96.35,56.42 L 96.65,56.32 L 97.60,56.11 L 98.13,56.01 L 99.43,55.83 L 103.80,55.45 L 105.26,55.39 L 107.73,55.11 L 108.26,55.04 L 109.06,54.87 L 109.72,54.61 L 109.97,54.36 L 111.08,54.10 L 111.71,54.01 L 113.39,54.08 L 114.27,54.15 L 116.27,54.51 L 119.35,55.37 L 120.15,55.65 L 121.54,56.00 L 122.23,56.14 L 123.63,56.21 L 124.36,56.21 L 126.08,56.01 L 129.35,55.39 L 131.19,55.00 L 134.89,54.47 L 136.71,54.25 L 139.93,54.08 L 140.68,54.06 L 141.99,54.10 L 142.60,54.12 L 143.59,54.25 L 144.03,54.33 L 144.63,54.55 L 145.00,55.00 L 145.00,55.34 L 145.45,55.75 L 145.73,55.91 L 146.60,55.96 L 147.08,55.94 L 148.20,55.63 L 149.98,54.78 L 150.70,54.33 L 152.36,54.07 L 152.82,54.05 L 153.89,54.18 L 155.82,54.61 L 156.67,54.83 L 157.96,55.08 L 158.56,55.17 L 159.52,55.09 L 159.99,55.00 L 160.90,54.56 L 162.51,53.41 L 163.05,52.98 L 164.00,52.33 L 164.45,52.04 L 165.20,51.70 L 165.55,51.57 L 166.13,51.55 L 166.40,51.58 L 166.81,51.89 L 167.00,52.08 L 167.25,52.73 L 167.36,53.10 L 167.47,54.11 L 167.51,54.66 L 167.49,56.03 L 167.32,58.51 L 166.73,64.85 L 170.75,64.31 L 171.46,64.21 L 172.74,64.18 L 173.35,64.20 L 174.44,64.39 L 174.96,64.51 L 175.86,64.93 L 176.29,65.17 L 177.01,65.82 L 177.35,66.18 L 177.89,67.07 L 178.14,67.54 L 178.51,68.67 L 178.68,69.26 L 178.88,70.64 L 179.00,72.98 L 179.00,73.84 L 178.83,75.42 L 178.72,76.19 L 178.34,77.59 L 178.12,78.27 L 177.53,79.49 L 177.21,80.08 L 176.42,81.11 L 176.00,81.59 L 175.01,82.42 L 174.72,82.64 L 174.81,82.55 L 175.32,81.93 L 175.36,81.63 L 175.22,81.53 L 174.81,81.36 L 174.42,81.31 L 173.50,81.23 L 172.84,81.21 L 170.54,81.39 L 169.21,81.74 L 168.68,82.01 L 167.74,82.60 L 167.45,82.97 L 167.00,83.76 L 167.00,84.20 L 167.10,84.48 L 167.27,84.56 L 167.47,84.62 L 166.58,84.75 L 165.92,84.91 L 164.94,85.55 L 164.48,85.96 L 163.57,87.41 L 163.32,87.84 L 162.78,88.92 L 161.81,90.90 L 161.41,91.74 L 160.25,93.73 L 159.63,94.76 L 158.17,96.92 L 157.42,98.00 L 155.83,100.08 L 153.52,102.81 L 152.87,103.51 L 151.79,104.70 L 151.28,105.26 L 150.47,106.23 L 149.71,107.17 L 148.79,108.82 L 148.40,109.67 L 147.96,111.71 L 147.87,112.28 L 147.70,113.62 L 147.46,116.05 L 147.36,117.10 L 147.09,118.99 L 146.94,119.90 L 146.55,121.51 L 146.34,122.29 L 145.80,123.68 L 145.51,124.34 L 144.81,125.53 L 144.06,126.68 L 141.95,128.54 L 141.37,128.99 L 140.02,129.81 L 137.70,130.99 L 133.89,132.73 L 136.95,133.34 L 137.89,133.53 L 137.95,133.56 L 137.48,133.47 L 135.54,133.21 L 134.23,133.22 L 131.38,133.34 L 129.59,133.53 L 125.65,133.65 L 122.90,133.46 L 121.51,133.25 L 118.73,132.76 L 117.37,132.41 L 114.68,131.65 L 113.42,131.19 L 110.96,130.22 L 109.86,129.68 L 107.76,128.54 L 106.89,127.93 L 105.28,126.68 L 104.71,126.03 L 103.72,124.71 L 103.51,124.04 L 102.97,122.81 L 102.55,122.27 L 102.31,122.14 L 101.83,121.98 L 101.69,122.01 L 101.82,121.75 L 101.98,121.38 L 102.25,120.25 L 102.37,119.63 L 102.57,118.09 L 102.77,115.41 L 103.03,108.85 L 97.96,103.68 L 97.26,102.96 L 95.74,101.14 L 94.97,100.19 L 93.44,98.08 L 92.69,97.01 L 91.33,94.87 L 89.69,91.89 L 89.31,91.09 L 88.66,89.78 L 88.35,89.16 L 87.81,88.16 L 87.29,87.23 L 86.36,86.12 L 85.88,85.66 L 84.72,85.19 L 82.26,84.77 L 80.79,84.59 L 78.34,83.91 L 77.20,83.52 L 75.39,82.39 L 74.56,81.76 L 73.31,80.12 L 72.01,77.04 L 71.74,76.02 L 71.50,73.91 L 71.42,72.87 L 71.55,70.99 L 71.66,70.12 L 72.11,68.84 L 72.24,68.58 L 72.56,68.22 L 73.11,68.00 L 73.35,68.00 L 73.74,67.56 L 74.00,66.52 L 73.97,67.29 M 103.74,131.95 L 104.15,133.50 L 103.73,131.91 M 102.60,128.79 L 103.66,131.74 L 102.57,128.70 M 101.48,125.82 L 101.73,126.53 L 102.28,127.99 L 102.15,127.67 L 101.55,126.04 L 101.30,125.29 L 101.22,124.98 M 117.07,101.63 L 116.64,101.72 L 116.43,102.29 L 116.44,102.47 L 116.62,102.90 L 117.17,103.70 L 117.58,104.20 L 118.62,105.03 L 119.16,105.41 L 120.41,106.02 L 121.71,106.56 L 124.64,106.96 L 126.12,107.04 L 129.01,106.48 L 129.71,106.28 L 130.99,105.69 L 131.61,105.37 L 132.69,104.53 L 133.37,103.94 L 134.22,103.15 L 134.57,102.80 L 134.80,102.41 L 134.84,102.24 L 134.47,102.10 L 133.30,102.03 L 132.69,102.02 L 131.00,102.35 L 128.56,103.16 L 128.05,103.39 L 127.12,103.65 L 126.66,103.75 L 125.70,103.75 L 125.20,103.72 L 124.03,103.44 L 121.87,102.68 L 120.73,102.23 L 118.93,101.75 L 118.12,101.58 M 140.65,63.27 L 140.01,63.41 L 138.85,63.80 L 138.29,64.01 L 137.37,64.54 L 136.95,64.82 L 136.37,65.47 L 136.00,66.54 L 136.00,66.98 L 136.35,67.54 L 136.60,67.77 L 137.58,67.92 L 138.17,67.95 L 139.98,67.69 L 140.49,67.60 L 141.69,67.35 L 142.33,67.21 L 143.81,66.85 L 144.51,66.68 L 145.68,66.38 L 146.23,66.24 L 147.10,65.99 L 147.90,65.75 L 148.72,65.34 L 149.00,65.14 L 148.92,64.73 L 147.97,63.96 L 147.53,63.68 L 146.43,63.30 L 145.86,63.14 L 144.60,62.99 L 143.31,62.89 M 106.42,62.02 L 104.68,62.25 L 103.84,62.40 L 102.44,62.82 L 101.81,63.05 L 101.06,63.56 L 100.93,63.69 L 100.85,63.94 L 101.03,64.29 L 101.12,64.36 L 101.63,64.56 L 101.93,64.67 L 102.79,64.92 L 103.72,65.18 L 106.18,65.75 L 107.44,66.03 L 109.92,66.50 L 110.50,66.60 L 111.53,66.75 L 112.75,66.88 L 113.43,66.92 L 114.39,66.57 L 114.78,66.33 L 115.00,65.54 L 115.00,65.02 L 114.43,64.11 L 114.06,63.68 L 112.83,62.99 L 112.15,62.68 L 110.40,62.27 L 107.32,62.02 M 81.57,64.94 L 81.74,65.06 L 81.75,65.28 L 81.70,65.39 L 81.24,65.62 L 80.00,66.04 L 79.41,66.22 L 79.32,66.25 L 80.36,65.85 L 81.13,65.47 L 81.30,65.31 L 81.51,65.01 L 81.41,64.87 L 81.34,64.81 M 104.96,141.35 L 104.96,143.00 L 104.96,141.35 M 139.44,134.41 L 139.79,134.84 L 140.00,135.55 L 140.00,135.64 M 74.71,65.31 L 75.15,64.96 L 76.21,64.56 L 75.14,64.97 L 74.70,65.32 L 74.00,66.08 L 74.00,66.08 Z" fill="rgba(187,119,100,1)"/>
<path d="M 65.31,368.00 L 65.52,368.82 L 65.87,370.26 L 66.03,370.95 L 66.29,372.18 L 66.52,373.37 L 66.71,375.41 L 66.76,376.43 L 66.62,378.57 L 66.06,382.50 L 65.98,382.98 L 65.81,384.19 L 65.72,384.83 L 65.53,386.32 L 65.35,387.87 L 64.97,391.56 L 63.99,403.50 L 63.76,407.20 L 63.21,414.47 L 62.92,418.13 L 62.23,425.65 L 61.86,429.49 L 60.98,437.72 L 60.75,439.84 L 60.24,444.30 L 59.42,451.34 L 59.22,452.97 L 58.90,456.00 L 58.76,457.45 L 58.55,459.92 L 58.46,461.06 L 58.39,462.70 L 58.38,463.04 L 58.39,463.53 L 58.45,463.92 L 58.48,463.96 L 58.49,464.47 L 58.49,464.78 L 58.44,465.79 L 58.41,466.35 L 58.31,467.82 L 58.26,468.61 L 58.12,470.48 L 58.04,471.47 L 57.85,473.70 L 57.75,474.86 L 57.53,477.41 L 57.30,480.03 L 56.73,486.01 L 56.44,489.09 L 55.79,495.69 L 55.45,499.04 L 54.74,505.89 L 54.38,509.30 L 53.65,516.01 L 52.58,525.50 L 52.37,527.30 L 51.90,531.61 L 51.67,533.85 L 51.17,538.82 L 50.67,543.91 L 49.69,554.86 L 49.46,557.57 L 49.02,562.82 L 48.81,565.40 L 48.44,570.17 L 48.26,572.48 L 47.99,576.48 L 47.93,577.42 L 47.83,579.11 L 47.71,581.32 L 47.66,582.46 L 47.48,584.37 L 47.39,585.26 L 47.12,586.66 L 46.97,587.30 L 46.61,588.21 L 45.96,589.02 L 45.76,589.15 L 44.87,589.35 L 44.36,589.45 L 42.96,589.59 L 37.76,589.71 L 31.00,589.50 L 31.00,586.50 L 31.00,586.31 L 31.03,585.67 L 31.05,585.29 L 31.11,584.22 L 31.15,583.62 L 31.27,582.06 L 31.33,581.22 L 31.50,579.10 L 31.59,577.97 L 31.82,575.23 L 31.94,573.78 L 32.23,570.35 L 32.39,568.55 L 32.75,564.37 L 32.94,562.18 L 33.37,557.19 L 33.60,554.58 L 34.12,548.70 L 34.39,545.64 L 35.00,538.81 L 35.31,535.27 L 36.01,527.42 L 36.19,525.39 L 36.57,521.13 L 36.77,518.96 L 37.17,514.43 L 37.38,512.12 L 37.81,507.30 L 38.03,504.86 L 38.49,499.74 L 38.72,497.15 L 39.21,491.73 L 39.45,488.98 L 39.97,483.26 L 40.23,480.35 L 40.77,474.31 L 41.04,471.25 L 41.62,464.88 L 41.91,461.65 L 42.51,454.94 L 43.45,444.50 L 43.67,442.09 L 44.08,437.51 L 44.28,435.26 L 44.66,430.99 L 44.85,428.89 L 45.21,424.92 L 45.38,422.97 L 45.72,419.29 L 45.88,417.48 L 46.18,414.08 L 46.34,412.41 L 46.62,409.27 L 46.90,406.19 L 47.39,400.80 L 47.63,398.22 L 48.05,393.75 L 48.25,391.62 L 48.60,387.99 L 48.77,386.27 L 49.07,383.39 L 49.22,382.04 L 49.47,379.83 L 49.60,378.80 L 49.82,377.17 L 49.93,376.42 L 50.13,375.29 L 50.22,374.78 L 50.41,374.05 L 50.50,373.73 L 50.69,373.33 L 50.87,372.99 L 51.28,372.91 L 52.03,373.00 L 52.50,373.00 L 53.23,372.58 L 53.57,372.28 L 54.09,371.08 L 54.21,370.73 L 54.43,369.83 L 54.53,369.34 L 54.72,368.17 L 54.81,367.55 L 54.98,366.08 L 55.24,363.50 L 55.30,362.80 L 55.48,361.86 L 55.60,361.45 L 56.06,360.96 L 56.34,360.76 L 57.28,360.58 L 59.44,360.50 L 63.38,360.50 M 177.36,471.33 L 177.54,471.53 L 177.88,472.25 L 178.32,473.85 L 178.51,474.78 L 178.58,476.53 L 178.57,477.38 L 178.29,478.82 L 178.11,479.48 L 177.53,480.40 L 176.38,481.00 L 176.16,481.00 L 175.78,480.78 L 175.61,480.64 L 175.35,480.13 L 175.24,479.85 L 175.09,479.06 L 175.03,478.64 L 175.00,477.58 L 175.00,476.78 L 175.10,475.37 L 175.16,474.70 L 175.37,473.56 L 175.49,473.03 L 175.77,472.21 L 175.93,471.84 L 176.27,471.36 L 176.44,471.16 L 176.81,471.05 L 176.99,471.04 M 173.50,81.23 L 174.42,81.31 L 174.81,81.36 L 175.22,81.53 L 175.36,81.63 L 175.32,81.93 L 174.81,82.55 L 174.38,82.96 L 172.87,83.67 L 172.06,84.00 L 170.27,84.46 L 169.40,84.64 L 167.98,84.70 L 167.68,84.69 L 167.27,84.56 L 167.10,84.48 L 167.00,84.20 L 167.00,83.76 L 167.45,82.97 L 167.74,82.60 L 168.68,82.01 L 169.21,81.74 L 170.54,81.39 L 172.84,81.21 Z" fill="rgba(197,90,36,1)"/>
<path d="M 120.21,582.11 L 119.42,582.03 L 118.05,581.85 L 117.39,581.75 L 116.27,581.51 L 115.21,581.26 L 113.75,580.54 L 113.13,580.14 L 112.42,579.03 L 112.02,576.82 L 112.01,576.22 L 112.48,575.05 L 112.78,574.49 L 113.72,573.51 L 114.24,573.06 L 115.49,572.41 L 117.52,572.00 L 117.85,572.00 L 118.84,572.09 L 119.39,572.14 L 120.69,572.32 L 124.95,573.08 L 126.00,573.31 L 127.53,573.73 L 128.22,573.95 L 129.17,574.45 L 129.58,574.72 L 130.12,575.40 L 130.65,576.74 L 130.83,577.45 L 130.82,578.84 L 130.76,579.51 L 130.34,580.68 L 130.09,581.23 L 129.33,582.02 L 127.89,582.61 L 127.70,582.62 L 126.86,582.60 L 126.37,582.58 L 125.06,582.50 L 123.67,582.41 M 115.99,563.98 L 115.79,563.61 L 115.56,562.39 L 115.47,561.68 L 115.44,559.67 L 115.46,558.55 L 115.65,555.59 L 115.71,554.79 L 115.87,552.97 L 116.17,549.93 L 116.32,548.52 L 116.58,546.18 L 116.70,545.07 L 116.93,543.27 L 117.04,542.43 L 117.27,541.10 L 117.38,540.48 L 117.62,539.52 L 117.74,539.08 L 118.03,538.41 L 118.18,538.11 L 118.52,537.66 L 119.93,536.70 L 120.60,536.37 L 121.66,535.42 L 122.15,534.88 L 122.87,533.43 L 123.19,532.63 L 123.59,530.59 L 123.90,526.75 L 123.93,525.72 L 124.18,524.35 L 124.28,524.06 L 124.58,523.63 L 124.76,523.43 L 125.25,523.18 L 125.53,523.08 L 126.27,522.98 L 126.67,522.96 L 127.70,523.01 L 128.26,523.05 L 129.62,523.23 L 132.11,523.62 L 135.71,524.22 L 135.61,530.18 L 135.59,531.41 L 135.64,533.24 L 135.68,534.07 L 135.91,535.29 L 136.05,535.84 L 136.50,536.65 L 137.50,537.65 L 137.96,538.00 L 138.50,538.45 L 138.69,538.64 L 138.62,538.81 L 138.50,538.87 L 137.73,538.79 L 135.69,538.45 L 135.17,538.35 L 133.79,538.29 L 133.06,538.28 L 131.40,538.36 L 129.70,538.47 L 126.14,539.00 L 125.29,539.15 L 123.77,539.48 L 123.05,539.66 L 121.90,540.02 L 121.39,540.20 L 120.79,540.56 L 120.70,541.07 L 120.81,541.17 L 121.43,541.28 L 121.79,541.32 L 122.82,541.30 L 126.79,540.78 L 127.83,540.57 L 129.50,540.32 L 130.28,540.23 L 131.56,540.22 L 132.16,540.24 L 133.23,540.47 L 134.79,541.09 L 137.50,542.47 L 133.00,542.74 L 131.52,542.83 L 128.47,543.27 L 126.97,543.52 L 124.31,544.15 L 123.70,544.32 L 122.64,544.66 L 122.15,544.83 L 121.39,545.17 L 121.05,545.34 L 120.66,545.65 L 120.55,546.09 L 120.70,546.32 L 121.66,546.40 L 123.60,545.96 L 124.41,545.65 L 126.64,545.27 L 127.80,545.12 L 130.29,545.05 L 131.52,545.05 L 133.70,545.29 L 134.20,545.37 L 135.04,545.59 L 136.00,546.00 L 136.41,546.27 L 136.80,546.69 L 136.63,546.98 L 136.39,546.99 L 136.38,547.44 L 137.00,548.50 L 137.27,548.83 L 137.44,549.29 L 137.44,549.49 L 136.92,549.74 L 136.56,549.85 L 135.17,549.96 L 134.75,549.98 L 133.73,550.00 L 131.87,550.02 L 130.77,550.02 L 128.89,550.09 L 128.01,550.14 L 126.60,550.29 L 125.95,550.36 L 125.03,550.56 L 124.63,550.66 L 124.23,550.87 L 124.10,550.98 L 124.26,551.19 L 124.41,551.29 L 125.14,551.48 L 125.58,551.57 L 126.93,551.70 L 129.67,551.82 L 130.56,551.83 L 132.10,551.92 L 132.84,551.97 L 134.11,552.15 L 134.72,552.25 L 135.73,552.52 L 136.21,552.67 L 136.99,553.05 L 137.71,553.45 L 138.54,554.65 L 139.00,557.09 L 139.00,557.36 L 138.76,557.93 L 138.60,558.23 L 138.07,558.85 L 137.46,559.48 L 135.49,560.80 L 134.40,561.46 L 131.63,562.74 L 126.84,564.46 L 125.97,564.71 L 124.43,565.13 L 123.69,565.32 L 122.39,565.59 L 121.15,565.83 L 119.29,565.90 L 118.45,565.86 L 117.25,565.37 L 116.72,565.05 M 166.59,561.69 L 166.06,561.30 L 165.54,560.37 L 165.37,559.90 L 165.56,558.89 L 165.74,558.39 L 166.58,557.42 L 168.54,556.16 L 169.11,555.90 L 170.16,555.61 L 170.66,555.50 L 171.55,555.48 L 171.97,555.50 L 172.67,555.71 L 172.99,555.84 L 173.46,556.24 L 173.66,556.46 L 173.86,557.01 L 173.93,557.30 L 173.83,557.96 L 173.74,558.31 L 173.31,559.05 L 172.25,560.19 L 171.51,560.83 L 170.37,561.68 L 169.83,562.04 L 168.97,562.38 L 168.56,562.49 L 167.81,562.36 L 167.42,562.24 M 34.30,264.50 L 33.31,263.54 L 31.40,262.03 L 30.97,261.71 L 30.25,261.28 L 29.50,261.00 L 29.24,261.00 L 28.39,260.51 L 27.92,260.19 L 26.73,259.18 L 26.11,258.62 L 24.72,257.24 L 24.02,256.52 L 22.58,254.93 L 21.14,253.32 L 18.67,250.10 L 18.12,249.34 L 17.31,248.03 L 16.62,246.50 L 16.53,246.09 L 16.14,244.80 L 15.93,244.10 L 15.37,242.39 L 13.36,236.72 L 10.80,229.94 L 15.06,218.22 L 16.26,214.91 L 18.50,208.76 L 19.59,205.77 L 21.62,200.22 L 22.61,197.52 L 24.45,192.53 L 25.35,190.10 L 27.02,185.63 L 27.83,183.45 L 29.34,179.45 L 30.08,177.50 L 31.46,173.92 L 32.13,172.18 L 33.38,168.99 L 34.00,167.44 L 35.15,164.59 L 35.71,163.21 L 36.78,160.66 L 37.30,159.42 L 38.30,157.13 L 39.29,154.89 L 41.13,151.01 L 42.04,149.14 L 43.84,145.73 L 46.64,140.77 L 47.36,139.54 L 48.75,137.36 L 49.45,136.32 L 50.84,134.47 L 51.54,133.59 L 52.98,132.03 L 53.71,131.29 L 55.25,129.97 L 56.04,129.35 L 57.73,128.24 L 58.61,127.70 L 60.51,126.76 L 61.49,126.30 L 63.65,125.47 L 67.24,124.31 L 68.70,123.89 L 71.07,123.21 L 72.17,122.90 L 73.92,122.47 L 74.73,122.28 L 75.95,122.12 L 76.50,122.07 L 77.27,122.21 L 77.60,122.32 L 78.02,122.78 L 78.19,123.05 L 78.34,123.87 L 78.39,124.32 L 78.36,125.53 L 78.21,127.79 L 78.13,128.91 L 78.08,130.64 L 78.08,131.44 L 78.22,132.64 L 78.31,133.19 L 78.64,133.99 L 79.39,134.91 L 79.84,135.28 L 80.53,136.56 L 81.00,138.65 L 81.00,139.57 L 81.45,141.65 L 81.73,142.70 L 82.57,144.70 L 83.01,145.64 L 84.01,147.05 L 84.26,147.35 L 84.74,147.75 L 85.43,148.00 L 85.85,148.00 L 86.70,148.74 L 87.59,150.51 L 87.70,150.95 L 88.17,151.79 L 88.45,152.20 L 89.27,153.00 L 89.73,153.40 L 90.94,154.20 L 93.25,155.43 L 94.35,155.96 L 96.28,156.67 L 97.21,156.96 L 98.80,157.18 L 99.56,157.22 L 100.83,156.93 L 101.43,156.72 L 102.42,155.89 L 102.87,155.40 L 103.59,154.01 L 103.91,153.24 L 104.38,151.26 L 104.58,150.19 L 104.82,147.60 L 104.96,143.00 L 104.96,141.35 L 104.85,138.61 L 104.77,137.32 L 104.47,135.08 L 104.29,134.00 L 103.74,131.95 L 102.60,128.79 L 102.28,128.00 L 101.73,126.53 L 101.48,125.82 L 101.10,124.60 L 100.94,124.03 L 100.77,123.20 L 100.79,122.54 L 101.06,122.27 L 101.58,122.04 L 101.83,121.98 L 102.31,122.14 L 102.55,122.27 L 102.97,122.81 L 103.51,124.04 L 103.72,124.71 L 104.71,126.03 L 105.28,126.68 L 106.89,127.93 L 107.76,128.54 L 109.86,129.68 L 110.96,130.22 L 113.42,131.19 L 114.68,131.65 L 117.37,132.41 L 118.73,132.76 L 121.51,133.25 L 122.90,133.46 L 125.65,133.65 L 129.59,133.53 L 131.38,133.34 L 134.23,133.22 L 135.54,133.21 L 137.48,133.47 L 138.33,133.64 L 139.38,134.27 L 140.00,135.64 L 140.00,135.95 L 140.25,136.66 L 140.40,137.03 L 140.92,137.82 L 141.49,138.63 L 143.14,140.24 L 144.02,141.01 L 145.89,142.19 L 146.35,142.44 L 147.22,142.78 L 148.38,143.00 L 148.98,143.00 L 149.79,143.14 L 150.15,143.26 L 150.58,143.90 L 150.77,144.31 L 150.98,145.77 L 151.02,146.20 L 151.10,147.28 L 151.20,149.25 L 151.24,150.00 L 151.31,151.24 L 151.34,151.82 L 151.43,152.77 L 151.53,153.65 L 151.88,154.74 L 152.10,155.21 L 152.81,155.76 L 154.50,156.39 L 154.91,156.52 L 155.82,156.99 L 156.28,157.25 L 157.21,157.94 L 159.50,160.39 L 159.78,160.82 L 160.61,161.76 L 161.07,162.23 L 162.16,163.17 L 165.75,165.48 L 166.92,166.02 L 168.93,167.41 L 169.37,167.76 L 170.03,168.43 L 170.60,169.30 L 170.64,169.43 L 170.64,169.96 L 170.63,170.27 L 170.54,171.14 L 170.49,171.61 L 170.32,172.76 L 170.22,173.37 L 169.97,174.77 L 169.70,176.22 L 168.97,179.67 L 167.65,185.32 L 166.68,189.22 L 164.77,197.53 L 164.33,199.50 L 163.59,202.96 L 163.43,203.76 L 163.14,205.19 L 162.81,206.98 L 162.67,207.77 L 162.41,209.12 L 162.29,209.77 L 162.04,210.86 L 161.80,211.89 L 161.28,213.32 L 161.01,213.95 L 160.33,214.79 L 159.00,215.71 L 158.76,215.83 L 157.82,216.04 L 157.26,216.14 L 155.58,216.31 L 154.65,216.39 L 152.15,216.53 L 150.79,216.60 L 147.37,216.70 L 146.46,216.73 L 144.43,216.77 L 143.38,216.79 L 141.09,216.83 L 139.91,216.85 L 137.34,216.88 L 136.02,216.89 L 133.16,216.92 L 131.70,216.93 L 128.53,216.95 L 126.91,216.95 L 123.43,216.97 L 121.65,216.97 L 117.84,216.98 L 111.75,216.99 L 67.00,217.00 L 66.99,210.25 L 66.99,207.98 L 66.70,202.75 L 66.52,200.11 L 65.98,195.01 L 65.84,193.79 L 65.52,191.58 L 65.36,190.53 L 65.03,188.74 L 64.87,187.92 L 64.54,186.70 L 64.06,185.66 L 63.90,185.50 L 63.35,185.87 L 63.03,186.16 L 62.18,187.41 L 61.72,188.15 L 60.58,190.28 L 58.56,194.44 L 57.68,196.33 L 56.18,199.71 L 55.47,201.35 L 54.28,204.33 L 53.72,205.79 L 52.81,208.52 L 52.38,209.86 L 51.71,212.48 L 51.40,213.79 L 50.94,216.45 L 50.73,217.79 L 50.44,220.63 L 50.32,222.08 L 50.17,225.24 L 50.07,230.50 L 50.06,232.29 L 49.99,236.39 L 49.95,238.48 L 49.83,242.80 L 49.76,244.94 L 49.61,248.97 L 49.36,254.11 L 49.29,255.39 L 49.15,257.52 L 49.08,258.51 L 48.95,260.13 L 48.88,260.88 L 48.72,262.08 L 48.64,262.63 L 48.44,263.49 L 48.22,264.28 L 47.54,265.22 L 45.96,266.36 L 44.87,267.01 L 42.87,267.71 L 41.88,267.96 L 40.01,267.87 L 39.07,267.72 L 37.21,266.80 L 36.27,266.25 M 198.67,253.33 L 198.62,253.29 L 198.53,252.89 L 198.49,252.64 L 198.41,251.87 L 198.37,251.44 L 198.29,250.34 L 198.26,249.76 L 198.20,248.37 L 198.14,246.93 L 198.05,243.37 L 198.00,237.39 L 198.00,236.25 L 198.00,234.17 L 198.01,233.16 L 198.02,231.34 L 198.05,229.59 L 198.19,226.79 L 198.28,225.50 L 198.62,223.52 L 198.82,222.63 L 199.45,221.33 L 199.81,220.75 L 200.82,219.99 L 201.38,219.66 L 202.86,219.30 L 203.67,219.15 L 205.70,219.04 L 209.47,219.00 L 210.56,219.00 L 212.53,219.11 L 213.48,219.18 L 215.19,219.44 L 216.01,219.59 L 217.49,220.02 L 218.21,220.25 L 219.48,220.86 L 220.10,221.18 L 221.19,221.98 L 221.72,222.41 L 222.66,223.41 L 225.04,227.27 L 225.36,227.98 L 225.87,229.22 L 226.11,229.82 L 226.45,230.86 L 226.76,231.85 L 226.85,233.34 L 226.80,234.01 L 226.19,235.02 L 224.48,236.19 L 223.78,236.51 L 222.52,237.76 L 221.36,239.92 L 221.25,240.39 L 220.82,241.52 L 220.58,242.10 L 219.93,243.38 L 219.24,244.68 L 217.45,247.39 L 216.52,248.70 L 214.63,250.92 L 214.17,251.41 L 213.32,252.18 L 212.20,252.94 L 211.89,253.08 L 210.94,253.33 L 210.42,253.45 L 209.17,253.64 L 207.87,253.82 L 204.89,253.97 L 203.42,254.01 L 200.88,253.88 L 200.31,253.83 L 199.45,253.67 L 199.07,253.58 M 187.67,215.33 L 187.58,215.24 L 187.41,214.83 L 187.34,214.59 L 187.22,213.96 L 187.09,211.58 L 187.18,208.50 L 188.15,211.86 L 188.39,212.70 L 188.66,214.00 L 188.75,214.58 L 188.74,215.33 L 188.70,215.63 L 188.41,215.79 L 188.23,215.80 M 187.50,162.51 L 186.34,161.52 L 184.44,159.88 L 183.56,159.11 L 182.14,157.83 L 181.48,157.23 L 180.46,156.18 L 180.00,155.68 L 179.29,154.76 L 178.65,153.85 L 177.95,151.89 L 177.80,151.35 L 177.54,150.09 L 177.13,147.81 L 176.81,146.00 L 176.51,142.65 L 176.47,141.89 L 176.47,140.68 L 176.64,139.49 L 176.74,139.23 L 177.31,138.61 L 177.64,138.28 L 178.59,137.59 L 179.61,136.88 L 182.34,135.46 L 183.75,134.78 L 186.63,133.73 L 187.32,133.51 L 188.57,133.21 L 190.16,133.01 L 190.61,133.01 L 191.50,133.21 L 191.94,133.34 L 192.84,133.81 L 193.29,134.08 L 194.19,134.82 L 195.54,136.23 L 196.21,137.02 L 197.08,138.25 L 197.45,138.87 L 197.82,140.32 L 197.89,140.72 L 197.96,141.71 L 197.99,142.24 L 197.97,143.53 L 197.96,144.22 L 197.88,145.90 L 197.72,148.98 L 197.58,151.40 L 197.02,155.72 L 196.86,156.74 L 196.49,158.61 L 196.30,159.51 L 195.86,161.11 L 195.64,161.88 L 195.16,163.16 L 194.91,163.76 L 194.39,164.70 L 194.12,165.11 L 193.58,165.65 L 192.74,165.97 L 192.57,165.97 L 191.94,165.69 L 191.59,165.51 L 190.69,164.95 L 189.74,164.32 M 89.00,122.00 L 89.54,121.24 L 90.61,120.15 L 91.14,119.68 L 92.13,119.18 L 92.62,119.00 L 93.47,119.11 L 94.50,120.00 L 94.59,120.14 L 94.55,120.46 L 94.50,120.63 L 94.21,120.98 L 92.66,121.94 L 91.98,122.20 L 90.73,122.91 L 89.54,123.94 L 89.36,124.23 L 88.78,124.69 L 87.87,125.00 L 87.73,125.00 L 87.65,124.76 L 87.64,124.61 L 87.79,124.12 L 87.99,123.57 M 74.00,66.52 L 74.00,66.08 L 74.70,65.32 L 75.14,64.97 L 76.43,64.47 L 77.12,64.26 L 78.63,64.13 L 80.75,64.47 L 81.09,64.60 L 81.41,64.87 L 81.51,65.01 L 81.30,65.31 L 81.13,65.47 L 80.36,65.85 L 78.50,66.56 L 77.89,66.78 L 76.90,67.13 L 76.44,67.29 L 75.73,67.53 L 75.08,67.75 L 74.41,67.85 L 74.16,67.85 L 74.01,67.52 L 73.97,67.29 Z" fill="rgba(220,213,207,1)"/>
</g>
</svg>
