<?xml version="1.0" encoding="UTF-8"?>
<!-- Generator: visioncortex VTracer 0.6.3 -->
<svg version="1.1" xmlns="http://www.w3.org/2000/svg" width="253" height="605">
<path d="M0 0 C0.65 0.46 1.29 0.93 1.96 1.41 C7.26 5.57 11 11 14 17 C14.14 18.35 14.23 19.71 14.28 21.07 C14.34 22.29 14.34 22.29 14.39 23.54 C14.43 24.39 14.46 25.25 14.5 26.12 C14.7 30.95 14.92 35.71 15.59 40.49 C16 44 16 44 15 46 C14.96 47.67 14.96 49.33 15 51 C16.36 50.94 16.36 50.94 17.75 50.88 C20.94 51 22.44 51.17 25 53 C27.7 56.51 27.54 60.77 27 65 C25.23 69.19 23.12 71.13 19 73 C17.87 72.98 16.73 72.96 15.56 72.94 C11.86 73.62 11.86 73.62 10.43 76.48 C9.42 78.61 8.44 80.75 7.49 82.9 C5.54 86.97 3.1 89.75 0 93 C0.7 93.4 1.4 93.8 2.12 94.21 C7.15 97.22 11.04 99.75 14.44 104.56 C18.93 110.11 24.99 111.24 31.68 112.8 C40.39 114.92 44.69 118.75 49.61 126.18 C52.91 131.64 55.65 137.23 58.19 143.06 C58.67 144.16 59.15 145.26 59.65 146.4 C65.18 159.1 70.33 171.96 75.5 184.81 C75.94 185.9 76.38 186.99 76.84 188.11 C89.47 219.41 89.47 219.41 90 232 C90.04 232.82 90.08 233.64 90.12 234.49 C90.24 239.16 89.89 243.16 88.55 247.68 C87.83 250.72 87.58 253.76 87.25 256.88 C86.26 263.67 84.94 269.04 80 274 C70.83 280.37 62.14 283.08 51.05 283.72 C48.13 283.66 48.13 283.66 47 285 C47.14 285.67 47.28 286.34 47.42 287.03 C49.39 297.07 48.76 307.43 45.02 316.92 C42.42 324.76 41.65 333.8 42 342 C42.33 342.33 42.66 342.66 43 343 C43.13 345.66 43.19 348.28 43.19 350.94 C43.2 351.68 43.21 352.42 43.22 353.19 C43.23 355.13 43.12 357.06 43 359 C42.34 359.66 41.68 360.32 41 361 C40.01 361 39.02 361 38 361 C37.94 361.55 37.87 362.11 37.8 362.68 C37.48 365.43 37.15 368.19 36.81 370.94 C36.62 372.52 36.62 372.52 36.43 374.14 C35.63 380.55 34.71 386.93 33.65 393.31 C33.42 394.74 33.19 396.18 32.95 397.61 C32.61 399.71 32.26 401.81 31.89 403.9 C28.35 423.91 31.66 444.22 33.52 464.29 C33.86 467.93 34.19 471.57 34.53 475.21 C35.58 486.78 36.64 498.35 37.71 509.92 C38.42 517.55 39.12 525.19 39.81 532.82 C40.2 537.13 40.6 541.44 41 545.75 C41.31 549.07 41.61 552.39 41.91 555.71 C42.08 557.47 42.08 557.47 42.25 559.27 C42.9 566.53 43.13 573.71 43 581 C39.24 582.59 36.42 583.27 32.31 583.25 C31.36 583.26 30.41 583.26 29.43 583.27 C27 583 27 583 25 581 C24.38 578.38 24.38 578.38 24 576 C20.55 576.7 20.55 576.7 17 578 C15.79 580 15.79 580 15 582 C11.78 583.18 8.65 583.1 5.25 583.06 C4.27 583.05 3.28 583.04 2.27 583.04 C1.14 583.02 1.14 583.02 0 583 C-0.99 581.02 -1.98 579.04 -3 577 C-3.66 578.32 -4.32 579.64 -5 581 C-12.91 581.45 -20.49 580.69 -28.31 579.62 C-29.25 579.5 -30.2 579.37 -31.17 579.24 C-36.27 578.52 -41.09 577.56 -46 576 C-46.34 569.65 -45.54 563.96 -44.28 557.74 C-43.46 553.66 -42.78 549.59 -42.24 545.47 C-42.11 544.53 -41.99 543.6 -41.86 542.63 C-41.63 540.78 -41.4 538.94 -41.18 537.09 C-40.08 528.65 -40.08 528.65 -37 525 C-36.01 525 -35.02 525 -34 525 C-34.51 523.55 -34.51 523.55 -35.04 522.08 C-36.34 517.52 -35.84 513.41 -35.38 508.75 C-34.82 501.45 -34.56 494.27 -39 488 C-40.33 487.66 -41.66 487.33 -43 487 C-44.24 485.21 -44.24 485.21 -45.31 482.81 C-45.94 481.47 -45.94 481.47 -46.58 480.11 C-47.05 479.08 -47.52 478.06 -48 477 C-49.15 474.53 -50.32 472.08 -51.5 469.62 C-52.05 468.46 -52.59 467.3 -53.16 466.1 C-54.76 462.91 -54.76 462.91 -57.47 461.27 C-64.07 455.35 -65.42 443.16 -67.57 434.84 C-67.89 433.62 -68.21 432.4 -68.54 431.14 C-69.38 427.91 -70.22 424.69 -71.05 421.46 C-71.9 418.2 -72.75 414.95 -73.6 411.69 C-74.56 408.01 -75.52 404.33 -76.48 400.65 C-78.27 393.76 -80.11 386.87 -82 380 C-84.4 405.52 -86.61 431.05 -88.74 456.59 C-89.17 461.65 -89.59 466.71 -90.01 471.77 C-90.3 475.2 -90.59 478.63 -90.88 482.06 C-90.95 482.91 -91.02 483.77 -91.09 484.65 C-91.9 494.35 -92.71 504.05 -93.51 513.75 C-94.16 521.58 -94.82 529.42 -95.48 537.25 C-95.82 541.36 -96.17 545.47 -96.5 549.59 C-96.82 553.42 -97.14 557.24 -97.46 561.07 C-97.58 562.47 -97.7 563.88 -97.81 565.28 C-97.96 567.19 -98.13 569.1 -98.29 571.01 C-98.38 572.07 -98.47 573.14 -98.56 574.24 C-98.98 576.9 -99.65 578.7 -101 581 C-103.92 581.05 -106.83 581.09 -109.75 581.12 C-110.58 581.14 -111.4 581.16 -112.25 581.18 C-113.45 581.19 -113.45 581.19 -114.67 581.2 C-115.77 581.21 -115.77 581.21 -116.89 581.23 C-119.3 580.97 -120.87 580.12 -123 579 C-123.26 569.31 -122.27 559.78 -121.36 550.15 C-121.19 548.24 -121.01 546.34 -120.84 544.43 C-120.46 540.34 -120.08 536.25 -119.7 532.16 C-119.09 525.66 -118.49 519.16 -117.89 512.66 C-116.19 494.19 -114.48 475.71 -112.77 457.23 C-111.82 447.02 -110.87 436.81 -109.94 426.59 C-109.44 421.2 -108.94 415.82 -108.44 410.43 C-106.36 388.3 -104.41 366.29 -104.14 344.05 C-104 342 -104 342 -103 341 C-101.32 340.77 -99.63 340.59 -97.94 340.44 C-97.02 340.35 -96.1 340.27 -95.15 340.18 C-94.44 340.12 -93.73 340.06 -93 340 C-93.68 339.48 -94.35 338.96 -95.05 338.42 C-103.24 331.66 -106.41 325.44 -107.88 315 C-108.28 308.95 -107.47 302.97 -106.59 296.99 C-105.86 291.53 -105.5 286.07 -108 281 C-111.12 279.02 -111.12 279.02 -115 278.25 C-116.36 277.87 -117.73 277.48 -119.09 277.09 C-119.76 276.91 -120.42 276.73 -121.11 276.54 C-128.48 274.42 -133.91 271.33 -137.89 264.67 C-139.6 260.56 -140.08 256.43 -140.48 252.02 C-141.05 248.7 -142.22 246.82 -144 244 C-144.73 241.57 -144.73 241.57 -145.19 239.12 C-145.35 238.32 -145.5 237.52 -145.67 236.7 C-146.38 230.92 -146.04 226.23 -144.1 220.74 C-143.77 219.8 -143.77 219.8 -143.44 218.85 C-142.93 217.4 -142.42 215.95 -141.9 214.51 C-140.89 211.69 -139.9 208.87 -138.91 206.05 C-136.87 200.29 -134.81 194.54 -132.74 188.8 C-131.88 186.41 -131.02 184.03 -130.18 181.64 C-125.51 168.5 -120.57 155.56 -114.79 142.86 C-114.31 141.82 -113.84 140.77 -113.35 139.69 C-108.45 129.21 -102.15 117.22 -90.85 112.75 C-86.87 111.51 -82.92 110.35 -78.82 109.6 C-73.83 108.61 -72.36 106.08 -69.68 102.1 C-66.79 98.48 -62.93 96.35 -59 94 C-58.01 93.34 -57.02 92.68 -56 92 C-56.69 91.18 -56.69 91.18 -57.39 90.35 C-60.64 86.36 -63.16 82.97 -64.81 78.06 C-65.61 75.79 -65.61 75.79 -67 74 C-69.57 73.04 -71.93 72.7 -74.65 72.38 C-77 72 -77 72 -79.56 70.06 C-82.59 65.72 -82.5 61.1 -82 56 C-80.88 53.5 -80.88 53.5 -79 52 C-75.25 50.96 -72.69 50.95 -69 52 C-69.14 49.69 -69.29 47.37 -69.44 45.06 C-69.52 43.77 -69.6 42.49 -69.68 41.16 C-69.65 38.14 -69.65 38.14 -71 37 C-71.81 24.93 -71.4 15.23 -63.19 5.81 C-46.72 -11.81 -19.41 -13.99 0 0 Z M-59 106 C-57.25 108.08 -57.25 108.08 -55 110 C-53.68 110 -52.36 110 -51 110 C-51 107.69 -51 105.38 -51 103 C-54.58 103 -56.05 104.09 -59 106 Z M-5 103 C-5 104.98 -5 106.96 -5 109 C-3.02 108.34 -1.04 107.68 1 107 C1 106.34 1 105.68 1 105 C-0.98 104.34 -2.96 103.68 -5 103 Z M16 491 C16 491.66 16 492.32 16 493 C14.02 493.33 12.04 493.66 10 494 C8.81 514.25 8.81 514.25 16.06 532.31 C18.09 534.5 18.09 534.5 20 536 C20.33 536 20.66 536 21 536 C20.55 525.67 19.94 515.36 19.06 505.06 C18.99 504.12 18.91 503.18 18.84 502.21 C18.76 501.33 18.68 500.45 18.6 499.54 C18.53 498.76 18.46 497.98 18.39 497.17 C17.97 494.82 17.16 493.08 16 491 Z " fill="#A6A6A6" transform="translate(153,12)"/>
<path d="M0 0 C3 2 3 2 3.67 4.09 C4.85 14.42 4.87 24.17 1.02 33.92 C-1.58 41.76 -2.35 50.8 -2 59 C-1.67 59.33 -1.34 59.66 -1 60 C-0.87 62.66 -0.81 65.28 -0.81 67.94 C-0.8 68.68 -0.79 69.42 -0.78 70.19 C-0.77 72.13 -0.88 74.06 -1 76 C-1.66 76.66 -2.32 77.32 -3 78 C-3.99 78 -4.98 78 -6 78 C-6.06 78.55 -6.13 79.11 -6.2 79.68 C-6.52 82.43 -6.85 85.19 -7.19 87.94 C-7.38 89.52 -7.38 89.52 -7.57 91.14 C-8.37 97.55 -9.29 103.93 -10.35 110.31 C-10.58 111.74 -10.81 113.18 -11.05 114.61 C-11.39 116.71 -11.74 118.81 -12.11 120.9 C-15.65 140.91 -12.34 161.22 -10.48 181.29 C-10.14 184.93 -9.81 188.57 -9.47 192.21 C-8.42 203.78 -7.36 215.35 -6.29 226.92 C-5.58 234.55 -4.88 242.19 -4.19 249.82 C-3.8 254.13 -3.4 258.44 -3 262.75 C-2.69 266.07 -2.39 269.39 -2.09 272.71 C-1.98 273.89 -1.86 275.06 -1.75 276.27 C-1.1 283.53 -0.87 290.71 -1 298 C-4.76 299.59 -7.58 300.27 -11.69 300.25 C-12.64 300.26 -13.59 300.26 -14.57 300.27 C-17 300 -17 300 -19 298 C-19.62 295.38 -19.62 295.38 -20 293 C-23.45 293.7 -23.45 293.7 -27 295 C-28.21 297 -28.21 297 -29 299 C-32.22 300.18 -35.35 300.1 -38.75 300.06 C-39.73 300.05 -40.72 300.04 -41.73 300.04 C-42.86 300.02 -42.86 300.02 -44 300 C-44.99 298.02 -45.98 296.04 -47 294 C-47.66 295.32 -48.32 296.64 -49 298 C-56.91 298.45 -64.49 297.69 -72.31 296.62 C-73.25 296.5 -74.2 296.37 -75.17 296.24 C-80.27 295.52 -85.09 294.56 -90 293 C-90.34 286.65 -89.54 280.96 -88.28 274.74 C-87.46 270.66 -86.78 266.59 -86.24 262.47 C-86.11 261.53 -85.99 260.6 -85.86 259.63 C-85.63 257.78 -85.4 255.94 -85.18 254.09 C-84.08 245.65 -84.08 245.65 -81 242 C-80.01 242 -79.02 242 -78 242 C-78.51 240.55 -78.51 240.55 -79.04 239.08 C-80.34 234.52 -79.84 230.41 -79.38 225.75 C-78.82 218.45 -78.56 211.27 -83 205 C-84.33 204.66 -85.66 204.33 -87 204 C-88.24 202.21 -88.24 202.21 -89.31 199.81 C-89.73 198.92 -90.15 198.03 -90.58 197.11 C-91.05 196.08 -91.52 195.06 -92 194 C-93.15 191.53 -94.32 189.08 -95.5 186.62 C-96.05 185.46 -96.59 184.3 -97.16 183.1 C-98.76 179.91 -98.76 179.91 -101.47 178.27 C-108.07 172.35 -109.42 160.16 -111.57 151.84 C-111.89 150.62 -112.21 149.4 -112.54 148.14 C-113.38 144.91 -114.22 141.69 -115.05 138.46 C-115.9 135.2 -116.75 131.95 -117.6 128.69 C-118.56 125.01 -119.52 121.33 -120.48 117.65 C-122.27 110.76 -124.11 103.87 -126 97 C-128.4 122.52 -130.61 148.05 -132.74 173.59 C-133.17 178.65 -133.59 183.71 -134.01 188.77 C-134.3 192.2 -134.59 195.63 -134.88 199.06 C-134.95 199.91 -135.02 200.77 -135.09 201.65 C-135.9 211.35 -136.71 221.05 -137.51 230.75 C-138.16 238.58 -138.82 246.42 -139.48 254.25 C-139.82 258.36 -140.17 262.47 -140.5 266.59 C-140.82 270.42 -141.14 274.24 -141.46 278.07 C-141.58 279.47 -141.7 280.88 -141.81 282.28 C-141.96 284.19 -142.13 286.1 -142.29 288.01 C-142.38 289.07 -142.47 290.14 -142.56 291.24 C-142.98 293.9 -143.65 295.7 -145 298 C-147.92 298.05 -150.83 298.09 -153.75 298.12 C-154.57 298.14 -155.4 298.16 -156.25 298.18 C-157.05 298.18 -157.85 298.19 -158.67 298.2 C-159.41 298.21 -160.14 298.22 -160.89 298.23 C-163.3 297.97 -164.87 297.12 -167 296 C-167.26 286.31 -166.27 276.78 -165.36 267.15 C-165.19 265.24 -165.01 263.34 -164.84 261.43 C-164.46 257.34 -164.08 253.25 -163.7 249.16 C-163.09 242.66 -162.49 236.16 -161.89 229.66 C-160.19 211.19 -158.48 192.71 -156.77 174.23 C-155.82 164.02 -154.87 153.81 -153.94 143.59 C-153.44 138.2 -152.94 132.82 -152.44 127.43 C-150.36 105.3 -148.41 83.29 -148.14 61.05 C-148 59 -148 59 -147 58 C-145.32 57.77 -143.63 57.59 -141.94 57.44 C-141.02 57.35 -140.1 57.27 -139.15 57.18 C-138.44 57.12 -137.73 57.06 -137 57 C-137.68 56.48 -138.35 55.96 -139.05 55.42 C-147.4 48.53 -150.52 42.23 -151.81 31.56 C-152.76 15.42 -152.76 15.42 -148 10 C-147.46 10.16 -146.92 10.33 -146.37 10.49 C-143.55 11.1 -140.97 11.12 -138.09 11.12 C-136.88 11.12 -135.67 11.12 -134.43 11.12 C-133.09 11.12 -131.76 11.12 -130.42 11.11 C-129.01 11.11 -127.6 11.11 -126.19 11.11 C-122.37 11.11 -118.54 11.11 -114.72 11.1 C-110.72 11.1 -106.72 11.09 -102.73 11.09 C-95.16 11.09 -87.59 11.08 -80.02 11.07 C-71.41 11.06 -62.79 11.06 -54.17 11.05 C-36.45 11.04 -18.72 11.02 -1 11 C-0.67 7.37 -0.34 3.74 0 0 Z M-28 208 C-28 208.66 -28 209.32 -28 210 C-29.98 210.33 -31.96 210.66 -34 211 C-35.19 231.25 -35.19 231.25 -27.94 249.31 C-25.91 251.5 -25.91 251.5 -24 253 C-23.67 253 -23.34 253 -23 253 C-23.45 242.67 -24.06 232.36 -24.94 222.06 C-25.01 221.12 -25.09 220.18 -25.16 219.21 C-25.24 218.33 -25.32 217.45 -25.4 216.54 C-25.47 215.76 -25.54 214.98 -25.61 214.17 C-26.03 211.82 -26.84 210.08 -28 208 Z " fill="#231714" transform="translate(197,295)"/>
<path d="M0 0 C0.65 0.46 1.29 0.93 1.96 1.41 C7.26 5.57 11 11 14 17 C14.14 18.35 14.23 19.71 14.28 21.07 C14.34 22.29 14.34 22.29 14.39 23.54 C14.45 24.82 14.45 24.82 14.5 26.12 C14.7 30.95 14.92 35.71 15.59 40.49 C16 44 16 44 15 46 C14.96 47.67 14.96 49.33 15 51 C16.36 50.94 16.36 50.94 17.75 50.88 C20.94 51 22.44 51.17 25 53 C27.7 56.51 27.54 60.77 27 65 C25.23 69.19 23.12 71.13 19 73 C17.87 72.98 16.73 72.96 15.56 72.94 C11.86 73.62 11.86 73.62 10.43 76.48 C9.42 78.61 8.44 80.75 7.49 82.9 C5.54 86.97 3.1 89.75 0 93 C0.71 93.41 1.43 93.83 2.16 94.25 C10.42 99.23 17.63 104.55 20.64 114.08 C21.24 117.27 20.68 119.84 20 123 C19.64 125.14 19.28 127.29 18.94 129.44 C18.63 131.29 18.31 133.15 18 135 C16.68 135.33 15.36 135.66 14 136 C13.67 137.65 13.34 139.3 13 141 C12.01 141.33 11.02 141.66 10 142 C9.59 142.52 9.18 143.03 8.75 143.56 C5.97 145.85 3.46 145.31 0 145 C-2.74 142.26 -2.26 140.69 -2.27 136.86 C-2.27 135 -2.27 135 -2.27 133.12 C-2.27 131.82 -2.26 130.52 -2.25 129.19 C-2.26 127.26 -2.26 127.26 -2.27 125.29 C-2.27 124.06 -2.27 122.82 -2.27 121.54 C-2.26 120.41 -2.26 119.27 -2.26 118.11 C-1.99 114.87 -1.7 112.78 0 110 C1.98 109.34 3.96 108.68 6 108 C2.04 106.35 -1.92 104.7 -6 103 C-5.83 104.34 -5.67 105.68 -5.5 107.06 C-5.5 110.09 -5.69 111.57 -7.46 114.05 C-14.06 120.15 -21.45 122.65 -30.38 122.36 C-37.24 121.42 -44.05 118.95 -49 114 C-50.26 111.48 -50.1 109.69 -50.06 106.88 C-50.05 105.96 -50.04 105.05 -50.04 104.12 C-50.02 103.42 -50.01 102.72 -50 102 C-52.64 103.32 -55.28 104.64 -58 106 C-57.07 107.01 -56.14 108.02 -55.19 109.06 C-48.97 115.83 -48.52 122.45 -48.62 131.25 C-48.61 132.24 -48.6 133.24 -48.59 134.26 C-48.59 135.21 -48.6 136.16 -48.6 137.14 C-48.6 138 -48.61 138.86 -48.61 139.75 C-49.08 142.49 -49.78 143.37 -52 145 C-57.45 145.84 -60.35 144.59 -64.62 141.48 C-66.27 139.72 -66.61 138.36 -67 136 C-68.32 135.67 -69.64 135.34 -71 135 C-71.11 134.24 -71.22 133.48 -71.33 132.7 C-71.49 131.71 -71.65 130.71 -71.81 129.69 C-71.96 128.7 -72.11 127.72 -72.27 126.7 C-73.05 123.8 -73.86 122.98 -76 121 C-77.04 113.56 -73.87 107.88 -69.94 101.81 C-66.25 97.65 -60.9 95.42 -56 93 C-56.38 92.55 -56.75 92.1 -57.14 91.64 C-60.35 87.59 -62.46 83.99 -64.25 79.12 C-65.87 75.13 -65.87 75.13 -69.39 73 C-71.15 72.71 -72.92 72.48 -74.69 72.31 C-77 72 -77 72 -79.56 70.06 C-82.59 65.72 -82.5 61.1 -82 56 C-80.88 53.5 -80.88 53.5 -79 52 C-75.25 50.96 -72.69 50.95 -69 52 C-69.14 49.69 -69.29 47.37 -69.44 45.06 C-69.52 43.77 -69.6 42.49 -69.68 41.16 C-69.65 38.14 -69.65 38.14 -71 37 C-71.81 24.93 -71.4 15.23 -63.19 5.81 C-46.72 -11.81 -19.41 -13.99 0 0 Z " fill="#BF6C59" transform="translate(153,12)"/>
<path d="M0 0 C0.5 0.99 0.5 0.99 1 2 C0.54 2.9 0.54 2.9 0.07 3.83 C-1.17 6.34 -1.21 7.97 -1.12 10.75 C-1.11 11.55 -1.09 12.35 -1.07 13.17 C-1.05 13.78 -1.02 14.38 -1 15 C-0.01 15.33 0.98 15.66 2 16 C2.99 21.44 2.99 21.44 4 27 C5.48 27.5 5.48 27.5 7 28 C7.45 28.78 7.91 29.57 8.38 30.38 C10.3 33.48 11.69 34.5 15 36 C18.7 36.72 18.7 36.72 22 37 C21.01 37.5 21.01 37.5 20 38 C20 38.66 20 39.32 20 40 C21.65 40 23.3 40 25 40 C25.78 36.57 26.12 33.43 26.1 29.92 C26.09 28.99 26.09 28.06 26.09 27.1 C26.08 26.14 26.07 25.18 26.06 24.19 C26.06 23.21 26.05 22.23 26.05 21.22 C26.04 18.81 26.02 16.41 26 14 C26.94 14.4 26.94 14.4 27.89 14.81 C32.1 16.42 36.39 17.73 40.69 19.06 C42.4 19.59 44.11 20.13 45.82 20.66 C46.58 20.89 47.33 21.13 48.11 21.37 C50 22 50 22 52 23 C52 23.66 52 24.32 52 25 C52.93 25.29 53.86 25.58 54.81 25.88 C58 27 58 27 61 29 C61 29.66 61 30.32 61 31 C62.65 31 64.3 31 66 31 C66 31.66 66 32.32 66 33 C67.65 33 69.3 33 71 33 C71.56 34.94 71.56 34.94 72 37 C71.67 37.33 71.34 37.66 71 38 C71.25 39.53 71.58 41.05 71.94 42.56 C72.23 43.8 72.23 43.8 72.53 45.07 C72.68 45.7 72.84 46.34 73 47 C73.66 47 74.32 47 75 47 C76 50 76 50 75.06 52.19 C74.71 52.79 74.36 53.38 74 54 C74.66 54 75.32 54 76 54 C76 55.32 76 56.64 76 58 C76.99 57.67 77.98 57.34 79 57 C78.63 58.24 78.26 59.47 77.88 60.75 C77.01 64.13 77.01 64.13 77.88 67.5 C78.43 68.24 78.43 68.24 79 69 C78.48 69.47 77.97 69.95 77.44 70.44 C75.25 74.33 76.33 77.72 77 82 C77.39 86.34 76.53 88.44 74 92 C73.62 92.54 73.25 93.07 72.86 93.63 C69.98 95.75 66.95 95.39 63.5 95.34 C62.36 95.34 62.36 95.34 61.19 95.34 C58.68 95.34 56.16 95.32 53.64 95.29 C51.9 95.29 50.16 95.28 48.41 95.28 C43.82 95.27 39.23 95.24 34.64 95.21 C29.95 95.18 25.27 95.16 20.58 95.15 C11.39 95.11 2.19 95.06 -7 95 C-7.03 93.27 -7.05 91.54 -7.06 89.81 C-7.07 88.85 -7.09 87.89 -7.1 86.89 C-7 84.14 -6.62 81.68 -6 79 C-4.68 72.28 -5.17 67.29 -8 61 C-8.33 60.67 -8.66 60.34 -9 60 C-9.24 57.65 -9.41 55.29 -9.56 52.94 C-9.65 51.65 -9.73 50.36 -9.82 49.03 C-9.88 48.03 -9.94 47.03 -10 46 C-11.65 45.67 -13.3 45.34 -15 45 C-16.25 47.33 -17.13 49.45 -17.88 52 C-19 55 -19 55 -20.94 56.88 C-23.39 59.41 -24.09 61.61 -25.21 64.89 C-26.44 68.16 -28.2 71.01 -30 74 C-30.66 74 -31.32 74 -32 74 C-32 74.99 -32 75.98 -32 77 C-32.66 77 -33.32 77 -34 77 C-34 78.32 -34 79.64 -34 81 C-35.48 81.99 -35.48 81.99 -37 83 C-37.72 85.02 -37.72 85.02 -38.06 87.31 C-38.72 90.74 -39.55 93.8 -41 97 C-39.86 97.4 -39.86 97.4 -38.69 97.81 C-36.11 98.95 -34.73 99.81 -33 102 C-33 102.66 -33 103.32 -33 104 C-33.66 104 -34.32 104 -35 104 C-35 104.99 -35 105.98 -35 107 C-34.01 107.33 -33.02 107.66 -32 108 C-28.2 112.46 -28.61 117.01 -28.75 122.56 C-28.77 123.89 -28.77 123.89 -28.78 125.25 C-28.89 131.86 -29.25 138.43 -30 145 C-34.91 145.16 -37.71 144.45 -42 142 C-41.51 139.03 -41.51 139.03 -41 136 C-41.66 136.33 -42.32 136.66 -43 137 C-45.81 137.38 -45.81 137.38 -49 137 C-51.5 134.75 -51.5 134.75 -54 132 C-55.05 131.42 -56.1 130.84 -57.19 130.25 C-60.73 127.42 -60.96 125.47 -61.58 121.12 C-61.92 118.71 -61.92 118.71 -64 116 C-64.12 113.31 -64.12 113.31 -64 111 C-64.66 110.67 -65.32 110.34 -66 110 C-65.39 106.44 -64.42 103.32 -63 100 C-63.66 99.67 -64.32 99.34 -65 99 C-48.82 52.95 -48.82 52.95 -40.44 34.31 C-40 33.33 -39.57 32.35 -39.12 31.34 C-34.34 20.94 -28.01 9.17 -16.85 4.75 C-13.58 3.73 -10.32 2.84 -7 2 C-5.56 1.59 -4.12 1.17 -2.69 0.75 C-1.36 0.38 -1.36 0.38 0 0 Z " fill="#E1DDD6" transform="translate(79,120)"/>
<path d="M0 0 C0.66 0 1.32 0 2 0 C2.01 0.66 2.03 1.33 2.04 2.01 C2.27 6.29 2.5 9.23 4.88 12.88 C12.13 17.81 20.24 20.33 29 19 C35.27 17.42 41.28 15.57 45 10 C45.66 7 45.93 4.07 46 1 C46.33 1 46.66 1 47 1 C47 2.98 47 4.96 47 7 C49.02 6.4 51.02 5.73 53 5 C53.33 4.34 53.66 3.68 54 3 C55.68 3.97 57.35 4.97 59 6 C59 6.33 59 6.66 59 7 C56.69 7.33 54.38 7.66 52 8 C51.08 11.92 50.87 15.56 50.87 19.58 C50.87 20.82 50.86 22.06 50.86 23.34 C50.87 24.63 50.87 25.92 50.88 27.25 C50.87 28.55 50.87 29.86 50.86 31.2 C50.86 32.44 50.87 33.68 50.87 34.95 C50.87 36.66 50.87 36.66 50.87 38.4 C50.7 40.93 50.7 40.93 52 42 C53.52 42.07 55.04 42.08 56.56 42.06 C57.39 42.05 58.22 42.04 59.07 42.04 C59.7 42.02 60.34 42.01 61 42 C61.33 41.01 61.66 40.02 62 39 C62.99 39 63.98 39 65 39 C65 37.35 65 35.7 65 34 C67.48 33.5 67.48 33.5 70 33 C70.06 32.21 70.12 31.43 70.18 30.62 C70.91 21.49 70.91 21.49 71.69 17.19 C72.06 13.36 71.13 10.64 70 7 C73.36 7.84 76.71 8.73 80.06 9.62 C81.01 9.86 81.95 10.1 82.92 10.34 C91.83 12.76 97.04 16.71 101.88 24.62 C102.45 25.55 103.02 26.47 103.62 27.41 C105.44 30.82 106.01 33.05 105.98 36.9 C106 40.07 106.52 42.53 107.38 45.56 C109.07 51.98 110.1 58.43 111 65 C111.66 64.67 112.32 64.34 113 64 C116.23 69.88 118.24 75.7 120.07 82.14 C120.91 85.15 120.91 85.15 123 88 C123.12 90.69 123.12 90.69 123 93 C123.66 93 124.32 93 125 93 C125.41 93.99 125.82 94.97 126.24 95.99 C126.79 97.29 127.33 98.58 127.88 99.88 C128.28 100.85 128.28 100.85 128.69 101.85 C129.88 104.67 130.81 106.81 133 109 C133.97 112.58 134.14 115.99 134.12 119.69 C134.13 120.64 134.13 121.59 134.13 122.57 C134 125 134 125 133 127 C132.01 127 131.02 127 130 127 C130.1 128.22 130.21 129.43 130.31 130.69 C130.33 134.38 130.08 134.9 127.62 138 C125 140 125 140 123 140 C122.67 140.99 122.34 141.98 122 143 C121.01 143 120.02 143 119 143 C119 143.66 119 144.32 119 145 C115.7 145 112.4 145 109 145 C109 146.98 109 148.96 109 151 C107.68 151 106.36 151 105 151 C104.67 151.99 104.34 152.98 104 154 C103.34 154 102.68 154 102 154 C102 154.66 102 155.32 102 156 C99.83 155.49 98 155 96 154 C95.99 153.42 95.99 152.83 95.98 152.23 C95.92 146.16 95.83 140.1 95.74 134.03 C95.7 131.76 95.68 129.5 95.65 127.23 C95.62 123.98 95.57 120.73 95.51 117.48 C95.5 115.95 95.5 115.95 95.49 114.39 C95.47 113.45 95.45 112.51 95.43 111.54 C95.42 110.71 95.41 109.88 95.4 109.02 C95.27 108.36 95.14 107.69 95 107 C91.56 104.71 90.33 104.75 86.29 104.76 C84.5 104.76 84.5 104.76 82.68 104.75 C80.72 104.76 80.72 104.76 78.72 104.77 C77.33 104.77 75.94 104.77 74.55 104.77 C70.77 104.77 67 104.78 63.22 104.8 C59.28 104.81 55.34 104.81 51.39 104.81 C43.92 104.82 36.45 104.84 28.98 104.86 C20.48 104.88 11.98 104.89 3.48 104.9 C-14.02 104.92 -31.51 104.96 -49 105 C-50.35 107.7 -50.34 110.12 -50.56 113.12 C-50.65 114.22 -50.73 115.32 -50.82 116.45 C-50.88 117.29 -50.94 118.13 -51 119 C-51.46 118.54 -51.92 118.07 -52.39 117.59 C-53.46 116.53 -54.56 115.5 -55.69 114.5 C-57 113 -57 113 -57 110 C-56.34 110 -55.68 110 -55 110 C-57.39 106.76 -59.2 104.49 -63 103 C-62.68 101.33 -62.34 99.67 -62 98 C-61.88 97.25 -61.76 96.5 -61.63 95.73 C-61.48 94.94 -61.34 94.14 -61.19 93.31 C-61.06 92.55 -60.93 91.78 -60.79 90.99 C-60 89 -60 89 -57.93 87.73 C-56.97 87.37 -56.97 87.37 -56 87 C-56 85.68 -56 84.36 -56 83 C-55.34 83 -54.68 83 -54 83 C-54 82.01 -54 81.02 -54 80 C-53.34 80 -52.68 80 -52 80 C-51.73 79.3 -51.46 78.6 -51.19 77.88 C-49.93 74.83 -48.47 71.94 -47 69 C-46.5 67.73 -46 66.46 -45.5 65.19 C-45 64.14 -44.51 63.08 -44 62 C-42.52 61.5 -42.52 61.5 -41 61 C-40.9 60.09 -40.79 59.19 -40.69 58.25 C-40 54.98 -39.18 53.46 -37 51 C-34.56 51.38 -34.56 51.38 -32 52 C-30.31 55.38 -30.65 59.22 -30.48 62.96 C-29.95 66.31 -28.78 68.15 -27 71 C-25.8 76.41 -25.82 81.59 -27 87 C-27.18 88.33 -27.34 89.67 -27.5 91 C-27.91 94.35 -28.42 97.67 -29 101 C-28.39 100.93 -27.77 100.85 -27.14 100.78 C-19.6 99.98 -12.13 99.93 -4.55 100.05 C-1.6 100.09 1.34 100.11 4.29 100.14 C9.75 100.18 15.22 100.24 20.68 100.32 C24.5 100.38 28.33 100.42 32.15 100.44 C33.6 100.45 35.05 100.47 36.51 100.5 C38.53 100.54 40.55 100.55 42.57 100.55 C44.29 100.57 44.29 100.57 46.05 100.59 C49.18 100.24 49.18 100.24 51.35 97.67 C54.26 92.97 54.16 88.68 53.38 83.38 C52.79 79.21 53.68 77.53 56 74 C55.35 72.66 54.68 71.33 54 70 C54.88 66.75 54.88 66.75 56 64 C55.34 64 54.68 64 54 64 C54 62.68 54 61.36 54 60 C53.34 60 52.68 60 52 60 C52.33 57.69 52.66 55.38 53 53 C52.34 53 51.68 53 51 53 C47.37 43.59 47.37 43.59 49 39 C47.35 39 45.7 39 44 39 C44 38.34 44 37.68 44 37 C43.24 37.06 42.47 37.12 41.69 37.19 C38.42 36.96 38.15 36.32 36 34 C34.02 32.95 32.03 31.95 30 31 C30 30.34 30 29.68 30 29 C29.26 28.83 28.52 28.66 27.76 28.48 C10.56 24.38 10.56 24.38 4 20 C4.04 20.71 4.08 21.42 4.12 22.16 C4.3 25.37 4.46 28.59 4.62 31.81 C4.69 32.93 4.75 34.05 4.82 35.21 C4.87 36.28 4.92 37.35 4.98 38.46 C5.03 39.45 5.08 40.44 5.14 41.46 C5 44 5 44 3 47 C1.35 46.67 -0.3 46.34 -2 46 C-2 45.34 -2 44.68 -2 44 C-1.34 44 -0.68 44 0 44 C0 43.34 0 42.68 0 42 C0.66 42 1.32 42 2 42 C2.12 38.21 2.19 34.42 2.25 30.62 C2.28 29.56 2.32 28.5 2.35 27.41 C2.44 20.09 1.26 14.56 -2 8 C-1.01 8 -0.02 8 1 8 C0.5 4.04 0.5 4.04 0 0 Z " fill="#B4AFAC" transform="translate(101,114)"/>
<path d="M0 0 C0.66 0 1.32 0 2 0 C2 1.32 2 2.64 2 4 C-1.96 4 -5.92 4 -10 4 C-10 9.94 -10 15.88 -10 22 C-8.68 22 -7.36 22 -6 22 C-6.02 21.31 -6.05 20.63 -6.07 19.92 C-6.09 19.02 -6.11 18.12 -6.12 17.19 C-6.15 16.29 -6.17 15.4 -6.2 14.48 C-6 12 -6 12 -4 9 C-0.37 8.81 -0.37 8.81 3 9 C4.01 12 5.01 15 6 18 C6.24 18.72 6.48 19.45 6.73 20.19 C10.92 33.1 11.34 44.13 10.04 57.54 C9.87 59.52 9.71 61.5 9.55 63.47 C9.11 68.78 8.63 74.08 8.14 79.38 C7.63 84.95 7.16 90.52 6.69 96.09 C5.89 105.43 5.07 114.76 4.22 124.09 C3.14 136.07 2.1 148.05 1.07 160.03 C0.19 170.36 -0.71 180.68 -1.62 191 C-1.91 194.31 -2.2 197.62 -2.49 200.93 C-2.94 206.13 -3.4 211.32 -3.87 216.51 C-4.04 218.41 -4.21 220.32 -4.38 222.23 C-4.61 224.82 -4.84 227.42 -5.08 230.02 C-5.14 230.77 -5.21 231.53 -5.27 232.31 C-5.62 235.93 -6.04 238.89 -8 242 C-10.92 242.05 -13.83 242.09 -16.75 242.12 C-17.99 242.15 -17.99 242.15 -19.25 242.18 C-20.05 242.18 -20.85 242.19 -21.67 242.2 C-22.41 242.21 -23.14 242.22 -23.89 242.23 C-26.3 241.97 -27.87 241.12 -30 240 C-30.26 230.31 -29.27 220.78 -28.36 211.15 C-28.19 209.24 -28.01 207.34 -27.84 205.43 C-27.46 201.34 -27.08 197.25 -26.7 193.16 C-26.09 186.66 -25.49 180.16 -24.89 173.66 C-23.19 155.19 -21.48 136.71 -19.77 118.23 C-18.82 108.02 -17.87 97.81 -16.94 87.59 C-16.44 82.2 -15.94 76.82 -15.44 71.43 C-13.36 49.3 -11.41 27.29 -11.14 5.05 C-11 3 -11 3 -10 2 C-8.32 1.77 -6.63 1.59 -4.94 1.44 C-3.56 1.31 -3.56 1.31 -2.15 1.18 C-1.44 1.12 -0.73 1.06 0 1 C0 0.67 0 0.34 0 0 Z " fill="#C15824" transform="translate(60,351)"/>
<path d="M0 0 C0.33 0 0.66 0 1 0 C1.33 1.65 1.66 3.3 2 5 C3.09 5.1 4.18 5.2 5.3 5.3 C13.43 6.1 20.81 7.19 28.48 10.2 C31.13 11.04 33.24 11.15 36 11 C36.66 9.02 37.32 7.04 38 5 C41.54 8.54 43 13.47 45 18 C45 12.06 45 6.12 45 0 C45.33 0 45.66 0 46 0 C46.02 0.59 46.05 1.18 46.07 1.78 C46.35 16.5 46.35 16.5 53.54 28.77 C54.02 29.18 54.5 29.58 55 30 C55.99 28.51 55.99 28.51 57 27 C57.04 28.01 57.08 29.02 57.12 30.06 C57.58 33.31 58.51 34.88 60.75 37.25 C64.8 41.58 66.88 46.52 69 52 C69.44 53.13 69.44 53.13 69.89 54.27 C71.13 58.03 71.14 59.7 69.44 63.31 C67 66 67 66 64.31 67.44 C61.58 68.9 61.58 68.9 61.19 72.69 C61.09 74.33 61.09 74.33 61 76 C60.67 76 60.34 76 60 76 C59.67 74.35 59.34 72.7 59 71 C55.55 71.7 55.55 71.7 52 73 C50.79 75 50.79 75 50 77 C46.78 78.18 43.65 78.1 40.25 78.06 C39.27 78.05 38.28 78.04 37.27 78.04 C36.52 78.02 35.77 78.01 35 78 C34.01 76.02 33.02 74.04 32 72 C31.34 73.32 30.68 74.64 30 76 C22.09 76.45 14.51 75.69 6.69 74.62 C5.27 74.44 5.27 74.44 3.83 74.24 C-1.27 73.52 -6.09 72.56 -11 71 C-11.34 64.65 -10.54 58.96 -9.28 52.74 C-8.46 48.66 -7.78 44.59 -7.24 40.47 C-7.11 39.53 -6.99 38.6 -6.86 37.63 C-6.63 35.78 -6.4 33.94 -6.18 32.09 C-5.08 23.65 -5.08 23.65 -2 20 C-1.01 20 -0.02 20 1 20 C0.65 19.11 0.3 18.23 -0.06 17.31 C-1.73 11.65 -0.64 5.77 0 0 Z " fill="#A39798" transform="translate(118,517)"/>
<path d="M0 0 C3 2 3 2 3.67 4.09 C4.85 14.42 4.87 24.17 1.02 33.92 C-1.58 41.76 -2.35 50.8 -2 59 C-1.67 59.33 -1.34 59.66 -1 60 C-0.87 62.66 -0.81 65.28 -0.81 67.94 C-0.8 68.68 -0.79 69.42 -0.78 70.19 C-0.77 72.13 -0.88 74.06 -1 76 C-1.66 76.66 -2.32 77.32 -3 78 C-3.99 78 -4.98 78 -6 78 C-6.33 81.3 -6.66 84.6 -7 88 C-7.99 88 -8.98 88 -10 88 C-10.13 88.9 -10.13 88.9 -10.26 89.81 C-11.61 98.11 -13.98 105.99 -16.41 114.02 C-17.21 116.71 -17.92 119.41 -18.62 122.12 C-19.74 126.28 -21.22 130.08 -23 134 C-23.99 136.55 -24.97 139.11 -25.94 141.67 C-27.03 144.07 -28.39 145.92 -30 148 C-30.43 149.18 -30.43 149.18 -30.88 150.38 C-32.06 153.14 -33.62 155.09 -35.6 157.34 C-37.08 159.1 -38.37 160.93 -39.69 162.81 C-43.79 168.35 -49.35 174.78 -56 177 C-56.81 175.31 -56.81 175.31 -57 173 C-54.56 170.25 -54.56 170.25 -52 168 C-52.66 167.67 -53.32 167.34 -54 167 C-53.64 163.29 -53.36 160.58 -51.38 157.38 C-49.71 155.06 -49.71 155.06 -50.38 152.31 C-50.58 151.55 -50.79 150.79 -51 150 C-50.67 149.34 -50.34 148.68 -50 148 C-49.01 148 -48.02 148 -47 148 C-46.94 147.32 -46.88 146.64 -46.81 145.94 C-45.91 142.67 -44.3 140.69 -42.27 138.03 C-40.37 134.99 -39.61 131.79 -38.77 128.33 C-38 126 -38 126 -36.55 124.12 C-34.52 121.34 -33.81 118.61 -32.88 115.31 C-31.09 109.09 -31.09 109.09 -30 108 C-29.62 105.08 -29.29 102.18 -29 99.25 C-28.51 94.44 -28 89.73 -27 85 C-26.24 80.35 -25.88 75.9 -25.9 71.19 C-25.91 69.95 -25.91 68.71 -25.91 67.43 C-25.92 66.15 -25.93 64.88 -25.94 63.56 C-25.94 62.26 -25.95 60.95 -25.95 59.61 C-25.96 56.41 -25.98 53.2 -26 50 C-25.34 50.99 -24.68 51.98 -24 53 C-24 45.41 -24 37.82 -24 30 C-24.66 30 -25.32 30 -26 30 C-26.66 26.7 -27.32 23.4 -28 20 C-28.66 21.32 -29.32 22.64 -30 24 C-30.1 23.38 -30.2 22.75 -30.3 22.11 C-30.87 19.6 -30.87 19.6 -34.19 18.19 C-40.61 16.09 -49.06 16.02 -55.16 19.09 C-59.23 22.39 -61.26 25.89 -62 31 C-62.14 33.13 -62.25 35.26 -62.32 37.39 C-62.36 38.6 -62.4 39.8 -62.44 41.04 C-62.48 42.28 -62.52 43.53 -62.56 44.81 C-62.61 46.08 -62.65 47.34 -62.69 48.65 C-62.8 51.76 -62.9 54.88 -63 58 C-66.63 58 -70.26 58 -74 58 C-75.36 52.48 -76.24 47.68 -76 42 C-76.66 42 -77.32 42 -78 42 C-78.25 41.08 -78.51 40.16 -78.77 39.22 C-81.79 26.48 -81.79 26.48 -89 16 C-89.33 14.68 -89.66 13.36 -90 12 C-60.63 11.67 -31.26 11.34 -1 11 C-0.67 7.37 -0.34 3.74 0 0 Z M-52 152 C-51.67 152.66 -51.34 153.32 -51 154 C-51.66 153.67 -52.32 153.34 -53 153 C-52.67 152.67 -52.34 152.34 -52 152 Z " fill="#0D0907" transform="translate(197,295)"/>
<path d="M0 0 C0.65 0.46 1.29 0.93 1.96 1.41 C7.26 5.57 11 11 14 17 C14.35 20.62 14.37 24.24 14.44 27.88 C14.48 28.88 14.53 29.89 14.58 30.93 C14.62 33.74 14.57 36.25 14 39 C11.06 41.94 9.28 42.84 5.18 43.36 C4.28 43.3 3.37 43.24 2.44 43.19 C-1.26 42.99 -4.39 43.14 -8 44 C-8 43.34 -8 42.68 -8 42 C-9.21 42.14 -10.41 42.29 -11.66 42.44 C-13.27 42.63 -14.89 42.81 -16.5 43 C-17.69 43.14 -17.69 43.14 -18.9 43.29 C-26.38 44.15 -33.46 44.21 -40.92 43.12 C-43.18 42.99 -44.83 43.41 -47 44 C-49.33 44 -51.67 44 -54 44 C-54.99 44.29 -55.98 44.58 -57 44.88 C-60.57 45.02 -61.03 44.47 -63.62 42.19 C-64.17 41.64 -64.72 41.1 -65.29 40.54 C-67.08 38.92 -68.8 37.98 -71 37 C-71.44 24.8 -71.56 15.41 -63.19 5.81 C-46.72 -11.81 -19.41 -13.99 0 0 Z " fill="#2A211B" transform="translate(153,12)"/>
<path d="M0 0 C0.66 0 1.32 0 2 0 C2.01 0.66 2.03 1.33 2.04 2.01 C2.27 6.29 2.5 9.23 4.88 12.88 C12.13 17.81 20.24 20.33 29 19 C35.27 17.42 41.28 15.57 45 10 C45.66 7 45.93 4.07 46 1 C46.33 1 46.66 1 47 1 C47 2.98 47 4.96 47 7 C49.02 6.4 51.02 5.73 53 5 C53.33 4.34 53.66 3.68 54 3 C55.68 3.97 57.35 4.97 59 6 C59 6.33 59 6.66 59 7 C56.69 7.33 54.38 7.66 52 8 C51.07 11.93 50.88 15.58 50.9 19.61 C50.91 20.86 50.91 22.11 50.91 23.39 C50.92 24.69 50.93 25.98 50.94 27.31 C50.94 28.63 50.95 29.94 50.95 31.29 C50.96 34.53 50.98 37.76 51 41 C52.12 41.45 53.23 41.9 54.38 42.37 C57.87 43.94 59.2 44.72 61 48 C61 48.66 61 49.32 61 50 C63.97 50.66 66.94 51.32 70 52 C71.39 56.79 70.69 61.15 70 66 C69.34 66 68.68 66 68 66 C68.03 66.56 68.07 67.12 68.11 67.7 C68.32 74.12 67.34 79.87 65.85 86.12 C64.7 91.37 63.88 96.69 63 102 C71.91 102 80.82 102 90 102 C90 102.33 90 102.66 90 103 C45.12 103 0.24 103 -46 103 C-46 102.67 -46 102.34 -46 102 C-42.37 102 -38.74 102 -35 102 C-35.07 101.2 -35.14 100.4 -35.22 99.58 C-35.86 92.03 -36.12 84.57 -36 77 C-40.41 80.82 -42.29 84.42 -44 90 C-44.33 91.08 -44.66 92.16 -45 93.27 C-45.69 95.52 -46.37 97.78 -47.04 100.05 C-48 103 -48 103 -49.08 105 C-50.34 107.74 -50.43 110.25 -50.62 113.25 C-50.7 114.33 -50.77 115.41 -50.85 116.52 C-50.9 117.34 -50.95 118.16 -51 119 C-51.46 118.54 -51.92 118.07 -52.39 117.59 C-53.46 116.53 -54.56 115.5 -55.69 114.5 C-57 113 -57 113 -57 110 C-56.34 110 -55.68 110 -55 110 C-57.39 106.76 -59.2 104.49 -63 103 C-62.68 101.33 -62.34 99.67 -62 98 C-61.88 97.25 -61.76 96.5 -61.63 95.73 C-61.48 94.94 -61.34 94.14 -61.19 93.31 C-61.06 92.55 -60.93 91.78 -60.79 90.99 C-60 89 -60 89 -57.93 87.73 C-56.97 87.37 -56.97 87.37 -56 87 C-56 85.68 -56 84.36 -56 83 C-55.34 83 -54.68 83 -54 83 C-54 82.01 -54 81.02 -54 80 C-53.34 80 -52.68 80 -52 80 C-51.73 79.3 -51.46 78.6 -51.19 77.88 C-49.93 74.83 -48.47 71.94 -47 69 C-46.5 67.73 -46 66.46 -45.5 65.19 C-45 64.14 -44.51 63.08 -44 62 C-42.52 61.5 -42.52 61.5 -41 61 C-40.9 60.09 -40.79 59.19 -40.69 58.25 C-40 54.98 -39.18 53.46 -37 51 C-34.56 51.38 -34.56 51.38 -32 52 C-30.31 55.38 -30.65 59.22 -30.48 62.96 C-29.95 66.31 -28.78 68.15 -27 71 C-25.8 76.41 -25.82 81.59 -27 87 C-27.18 88.33 -27.34 89.67 -27.5 91 C-27.91 94.35 -28.42 97.67 -29 101 C-28.39 100.93 -27.77 100.85 -27.14 100.78 C-19.6 99.98 -12.13 99.93 -4.55 100.05 C-1.6 100.09 1.34 100.11 4.29 100.14 C9.75 100.18 15.22 100.24 20.68 100.32 C24.5 100.38 28.33 100.42 32.15 100.44 C33.6 100.45 35.05 100.47 36.51 100.5 C38.53 100.54 40.55 100.55 42.57 100.55 C44.29 100.57 44.29 100.57 46.05 100.59 C49.18 100.24 49.18 100.24 51.35 97.67 C54.26 92.97 54.16 88.68 53.38 83.38 C52.79 79.21 53.68 77.53 56 74 C55.35 72.66 54.68 71.33 54 70 C54.88 66.75 54.88 66.75 56 64 C55.34 64 54.68 64 54 64 C54 62.68 54 61.36 54 60 C53.34 60 52.68 60 52 60 C52.33 57.69 52.66 55.38 53 53 C52.34 53 51.68 53 51 53 C47.37 43.59 47.37 43.59 49 39 C47.35 39 45.7 39 44 39 C44 38.34 44 37.68 44 37 C43.24 37.06 42.47 37.12 41.69 37.19 C38.42 36.96 38.15 36.32 36 34 C34.02 32.95 32.03 31.95 30 31 C30 30.34 30 29.68 30 29 C29.26 28.83 28.52 28.66 27.76 28.48 C10.56 24.38 10.56 24.38 4 20 C4.04 20.71 4.08 21.42 4.12 22.16 C4.3 25.37 4.46 28.59 4.62 31.81 C4.69 32.93 4.75 34.05 4.82 35.21 C4.87 36.28 4.92 37.35 4.98 38.46 C5.03 39.45 5.08 40.44 5.14 41.46 C5 44 5 44 3 47 C1.35 46.67 -0.3 46.34 -2 46 C-2 45.34 -2 44.68 -2 44 C-1.34 44 -0.68 44 0 44 C0 43.34 0 42.68 0 42 C0.66 42 1.32 42 2 42 C2.12 38.21 2.19 34.42 2.25 30.62 C2.28 29.56 2.32 28.5 2.35 27.41 C2.44 20.09 1.26 14.56 -2 8 C-1.01 8 -0.02 8 1 8 C0.5 4.04 0.5 4.04 0 0 Z " fill="#CBC9C3" transform="translate(101,114)"/>
<path d="M0 0 C4 1 4 1 5.94 3.62 C10.27 6.99 13.35 6.09 18.63 5.47 C19.74 5.31 20.85 5.16 22 5 C23.87 4.78 25.75 4.57 27.62 4.38 C28.79 4.23 28.79 4.23 29.98 4.09 C32 4 32 4 35 5 C37.74 5.07 40.45 5.09 43.19 5.06 C44.31 5.06 44.31 5.06 45.46 5.05 C47.31 5.04 49.15 5.02 51 5 C51 5.66 51 6.32 51 7 C51.99 7.49 51.99 7.49 53 8 C52.83 8.74 52.67 9.48 52.5 10.25 C51.88 13.19 51.88 13.19 52 17 C55.3 17 58.6 17 62 17 C63.95 23.45 63.95 23.45 64 26 C62.32 28.8 62.32 28.8 60 32 C59.25 33.29 58.53 34.6 57.82 35.91 C57.45 36.59 57.08 37.27 56.69 37.97 C55.94 39.37 55.19 40.77 54.44 42.17 C52.11 46.42 49.76 49.82 46 53 C42.38 54 42.38 54 39 54 C37.38 52.62 37.38 52.62 36 51 C33.5 50.1 33.5 50.1 31 50 C30.34 50.66 29.68 51.32 29 52 C26.94 51.75 26.94 51.75 25 51 C24.67 50.34 24.34 49.68 24 49 C22.11 48.32 22.11 48.32 19.94 47.88 C19.2 47.71 18.47 47.54 17.71 47.37 C16.87 47.19 16.87 47.19 16 47 C16 46.34 16 45.68 16 45 C15.07 44.71 14.14 44.42 13.19 44.12 C10 43 10 43 7 41 C7 41.99 7 42.98 7 44 C8.65 44.33 10.3 44.66 12 45 C12.33 45.99 12.66 46.98 13 48 C13.66 48.16 14.32 48.33 15 48.5 C15.66 48.66 16.32 48.83 17 49 C17.33 49.99 17.66 50.98 18 52 C18.66 52.33 19.32 52.66 20 53 C17.63 54.56 17.63 54.56 15 56 C9.46 53.23 6.78 46.63 4.75 41.12 C3.13 37.13 3.13 37.13 -0.39 35 C-2.15 34.71 -3.92 34.48 -5.69 34.31 C-8 34 -8 34 -10.56 32.06 C-13.59 27.72 -13.5 23.1 -13 18 C-11.88 15.5 -11.88 15.5 -10 14 C-6.02 12.9 -4.07 12.98 0 14 C0 9.38 0 4.76 0 0 Z " fill="#CB7F6B" transform="translate(84,50)"/>
<path d="M0 0 C2.29 2.09 3.64 3.95 4.9 6.78 C5.24 7.54 5.59 8.3 5.94 9.08 C6.3 9.91 6.67 10.75 7.04 11.6 C7.43 12.48 7.82 13.36 8.22 14.26 C12.7 24.45 16.88 34.77 21 45.1 C22.32 48.4 23.65 51.68 24.98 54.97 C36.48 83.6 36.48 83.6 37 96 C37.06 97.23 37.06 97.23 37.12 98.49 C37.24 103.16 36.89 107.16 35.55 111.68 C34.83 114.72 34.58 117.76 34.25 120.88 C33.26 127.67 31.94 133.04 27 138 C18.75 143.74 10.42 147.06 0.38 147.62 C-0.41 147.68 -1.2 147.73 -2.02 147.78 C-4.01 147.9 -6 147.95 -8 148 C-9.61 146.39 -9.13 144.67 -9.13 142.45 C-9.13 141.52 -9.14 140.6 -9.14 139.64 C-9.13 138.18 -9.13 138.18 -9.12 136.69 C-9.13 135.72 -9.13 134.76 -9.14 133.77 C-9.14 132.84 -9.13 131.91 -9.13 130.95 C-9.13 130.1 -9.13 129.24 -9.13 128.37 C-9.01 126.11 -8.63 124.16 -8 122 C-6.35 122 -4.7 122 -3 122 C-3 121.34 -3 120.68 -3 120 C-1.75 118.38 -1.75 118.38 0 117 C1.32 117 2.64 117 4 117 C4 115.02 4 113.04 4 111 C7.3 111 10.6 111 14 111 C14 110.34 14 109.68 14 109 C15.49 108.5 15.49 108.5 17 108 C18.71 106.38 20.38 104.71 22 103 C22.99 102.01 22.99 102.01 24 101 C24.46 99.03 24.46 99.03 24.62 96.88 C24.81 94.96 24.81 94.96 25 93 C25.99 93 26.98 93 28 93 C28.05 90.96 28.09 88.92 28.12 86.88 C28.15 85.74 28.17 84.6 28.2 83.43 C27.87 77.69 25.87 73.75 22.95 68.88 C21.35 65.72 20.73 62.46 20 59 C19.34 59 18.68 59 18 59 C17.75 58.05 17.5 57.1 17.25 56.12 C15.86 51.27 13.94 46.65 12 42 C11.72 41.32 11.44 40.64 11.14 39.95 C9.86 36.91 8.52 33.92 7 31 C6.34 31.33 5.68 31.66 5 32 C4.88 31.28 4.77 30.57 4.65 29.83 C4.12 26.59 3.59 23.36 3.06 20.12 C2.88 19 2.7 17.87 2.51 16.71 C2.33 15.63 2.16 14.55 1.97 13.45 C1.81 12.45 1.65 11.46 1.48 10.43 C1.11 8 1.11 8 0 6 C-0.04 4 -0.04 2 0 0 Z " fill="#A9A09B" transform="translate(206,148)"/>
<path d="M0 0 C0.33 0 0.66 0 1 0 C3.09 18.98 4.98 37.98 6.7 57 C6.88 58.99 7.06 60.98 7.24 62.97 C7.81 69.17 8.37 75.37 8.93 81.58 C9.5 87.93 10.08 94.28 10.66 100.63 C11.16 106.15 11.67 111.67 12.16 117.19 C12.46 120.46 12.75 123.72 13.05 126.99 C13.39 130.62 13.71 134.25 14.04 137.88 C14.14 138.94 14.23 139.99 14.34 141.08 C14.95 148.07 15.11 154.98 15 162 C11.2 163.61 8.4 164.25 4.25 164.19 C3.29 164.18 2.32 164.17 1.33 164.17 C-1 164 -1 164 -2 163 C-2.69 157.86 -2.69 157.86 -2 155 C-0.35 153.42 1.25 152.44 3.27 151.4 C5.91 149.26 6.34 147.29 7 144 C5.06 135.23 0.37 126.37 -6 120 C-8.56 111.08 -8.79 101.4 -9.56 92.19 C-9.75 89.97 -9.94 87.75 -10.13 85.53 C-10.31 83.53 -10.47 81.54 -10.64 79.54 C-10.95 76.05 -10.95 76.05 -11.59 72.82 C-12 70.03 -11.88 68.25 -11.25 65.53 C-11.06 64.65 -10.86 63.77 -10.66 62.86 C-10.45 61.9 -10.23 60.93 -10 59.94 C-7.23 47.01 -5.19 34 -3.19 20.94 C-3.03 19.9 -2.87 18.87 -2.71 17.81 C-1.8 11.87 -0.9 5.94 0 0 Z " fill="#A4401D" transform="translate(181,431)"/>
<path d="M0 0 C0.81 0 1.63 0 2.46 0 C3.37 0 4.27 -0 5.2 -0 C6.14 0.02 7.08 0.04 8.05 0.07 C8.97 0.06 9.89 0.05 10.84 0.04 C16.66 0.1 22.26 0.73 26.86 4.63 C27.57 6.77 27.57 6.77 27.86 8.63 C26.87 8.63 25.88 8.63 24.86 8.63 C25.85 9.29 26.84 9.95 27.86 10.63 C28.15 15.49 28.08 19.9 26.86 24.63 C23.66 28.18 20.14 30.53 15.86 32.63 C15.2 32.63 14.54 32.63 13.86 32.63 C12.87 35.11 12.87 35.11 11.86 37.63 C13.84 37.96 15.82 38.29 17.86 38.63 C17.53 41.27 17.2 43.91 16.86 46.63 C7.45 46.75 -1.77 46.48 -11.14 45.63 C-11.02 45.01 -10.9 44.39 -10.77 43.75 C-9.74 38.31 -8.88 32.88 -8.18 27.39 C-8.02 26.14 -7.86 24.89 -7.69 23.6 C-7.36 21.01 -7.04 18.43 -6.73 15.84 C-6.57 14.6 -6.41 13.36 -6.24 12.08 C-6.1 10.96 -5.96 9.84 -5.82 8.69 C-4.95 4.77 -4.15 1.22 0 0 Z " fill="#C9B7B2" transform="translate(118.141357421875,536.368896484375)"/>
<path d="M0 0 C0.78 0 1.56 0 2.37 0.01 C3.17 0.02 3.98 0.03 4.81 0.04 C5.62 0.04 6.43 0.04 7.26 0.04 C10.96 0.07 14.23 0.22 17.81 1.23 C17.81 1.89 17.81 2.55 17.81 3.23 C18.8 3.23 19.79 3.23 20.81 3.23 C23.68 6.27 25.75 9.17 26.81 13.23 C26.44 17.04 26.44 17.04 25.81 20.23 C24.49 20.23 23.17 20.23 21.81 20.23 C21.77 21.22 21.73 22.21 21.69 23.23 C21 28.08 18.3 31.88 14.81 35.23 C12.61 35.96 12.61 35.96 10.81 36.23 C10.81 36.89 10.81 37.55 10.81 38.23 C4.87 38.23 -1.07 38.23 -7.19 38.23 C-7.19 38.89 -7.19 39.55 -7.19 40.23 C-6.53 40.23 -5.87 40.23 -5.19 40.23 C-5.19 40.89 -5.19 41.55 -5.19 42.23 C-2.22 42.89 0.75 43.55 3.81 44.23 C3.81 44.89 3.81 45.55 3.81 46.23 C0.84 46.73 0.84 46.73 -2.19 47.23 C-2.52 48.55 -2.85 49.87 -3.19 51.23 C-4.84 50.9 -6.49 50.57 -8.19 50.23 C-8.19 34.39 -8.19 18.55 -8.19 2.23 C-4.62 0.45 -3.66 -0.02 0 0 Z " fill="#CBC2BD" transform="translate(205.1875,217.76953125)"/>
<path d="M0 0 C8.11 4.31 14.71 10.15 17.6 19.05 C18.26 22.25 17.69 24.82 17 28 C16.64 30.14 16.28 32.29 15.94 34.44 C15.63 36.29 15.31 38.15 15 40 C13.02 40.5 13.02 40.5 11 41 C10.67 42.65 10.34 44.3 10 46 C8.51 46.5 8.51 46.5 7 47 C6.59 47.52 6.18 48.03 5.75 48.56 C2.97 50.85 0.46 50.31 -3 50 C-5.74 47.26 -5.26 45.69 -5.27 41.86 C-5.27 40.62 -5.27 39.39 -5.27 38.12 C-5.27 36.82 -5.26 35.52 -5.25 34.19 C-5.26 32.9 -5.27 31.62 -5.27 30.29 C-5.27 29.06 -5.27 27.82 -5.27 26.54 C-5.26 25.41 -5.26 24.27 -5.26 23.11 C-5 19.95 -4.51 17.78 -3 15 C0.12 13.69 0.12 13.69 3 13 C2.29 12.73 1.58 12.47 0.85 12.2 C-0.07 11.84 -0.99 11.49 -1.94 11.12 C-2.85 10.78 -3.77 10.43 -4.71 10.07 C-7 9 -7 9 -8 7 C-8.04 4.67 -8.04 2.33 -8 0 C-4.92 -1.54 -3.32 -0.91 0 0 Z " fill="#383737" transform="translate(156,107)"/>
<path d="M0 0 C1.5 1 1.5 1 3 3 C3.27 5.72 3.13 8.26 3 11 C2.34 11 1.68 11 1 11 C0.71 11.95 0.42 12.9 0.12 13.88 C-1 17 -1 17 -3 19 C-3.24 19.95 -3.47 20.91 -3.71 21.89 C-5.39 25.94 -7.73 27.12 -11.56 28.81 C-12.21 29.11 -12.87 29.41 -13.54 29.72 C-21.09 32.88 -28.9 33.31 -37 33 C-38 32 -38 32 -38.13 29.74 C-38.12 24.39 -37.94 19.28 -37 14 C-30.25 12 -30.25 12 -28 12 C-28 11.01 -28 10.02 -28 9 C-23.45 6.27 -18.48 6.18 -13.31 5.56 C-10.35 5.06 -8.6 4.35 -6 3 C-4.68 3 -3.36 3 -2 3 C-2 2.34 -2 1.68 -2 1 C-1.34 0.67 -0.68 0.34 0 0 Z " fill="#767371" transform="translate(235,263)"/>
<path d="M0 0 C1.2 13.93 1.2 13.93 -1.46 18.52 C-7.84 24.33 -15.86 26.63 -24.38 26.36 C-31.24 25.42 -38.05 22.95 -43 18 C-44.53 14.93 -44.1 11.73 -44.06 8.38 C-44.06 7.67 -44.05 6.96 -44.05 6.23 C-44.04 4.49 -44.02 2.74 -44 1 C-43.22 1.36 -42.45 1.72 -41.65 2.09 C-30.3 6.97 -19.84 7.39 -8 4 C-7.28 3.85 -6.56 3.71 -5.82 3.56 C-5.22 3.37 -4.62 3.19 -4 3 C-3.67 2.34 -3.34 1.68 -3 1 C-1 0 -1 0 0 0 Z " fill="#CB6F50" transform="translate(147,108)"/>
<path d="M0 0 C0.66 0 1.32 0 2 0 C1.39 3.56 0.42 6.68 -1 10 C-0.01 10.33 0.98 10.66 2 11 C1.94 11.7 1.88 12.4 1.81 13.12 C1.82 16.12 1.82 16.12 3.5 18.94 C5.13 22.27 5.26 24.35 5 28 C5.7 28.23 6.4 28.45 7.12 28.69 C10.74 30.34 13.09 32.29 16 35 C16 35.66 16 36.32 16 37 C18.64 36.67 21.28 36.34 24 36 C24 37.98 24 39.96 24 42 C27.65 43.61 31.05 44.45 35 45 C35 45.99 35 46.98 35 48 C32 50 32 50 28 50 C27.67 50.99 27.34 51.98 27 53 C25.52 52.75 24.04 52.47 22.56 52.19 C21.74 52.04 20.92 51.89 20.07 51.73 C19.38 51.49 18.7 51.25 18 51 C17.67 50.01 17.34 49.02 17 48 C16.24 47.92 15.47 47.83 14.69 47.75 C11.35 46.82 11.02 45.73 9 43 C7.84 42.29 6.64 41.63 5.44 41 C0.92 38.37 0.92 38.37 0 35 C-0.12 32.25 -0.12 32.25 0 30 C-0.99 30 -1.98 30 -3 30 C-4.63 28 -4.63 28 -6 26 C-6.33 26 -6.66 26 -7 26 C-7.26 20.65 -6.42 16.31 -4.62 11.31 C-4.4 10.66 -4.18 10.01 -3.95 9.34 C-2.83 6.11 -1.63 3.01 0 0 Z " fill="#C6C0BA" transform="translate(14,220)"/>
<path d="M0 0 C0.93 -0.02 1.85 -0.05 2.8 -0.07 C8.68 -0.1 14.23 0.41 18.88 4.38 C19.59 6.51 19.59 6.51 19.88 8.38 C18.88 8.38 17.9 8.38 16.88 8.38 C17.87 9.03 18.85 9.7 19.88 10.38 C19.55 13.35 19.22 16.32 18.88 19.38 C18.13 19.11 17.39 18.84 16.62 18.56 C11.44 16.92 6.16 15.66 0.88 14.38 C1.2 15.7 1.53 17.01 1.88 18.38 C3.53 18.71 5.18 19.03 6.88 19.38 C6.88 20.37 6.88 21.36 6.88 22.38 C3.14 24.87 1.13 24.58 -3.31 24.5 C-4.58 24.48 -5.86 24.46 -7.17 24.45 C-8.14 24.42 -9.12 24.4 -10.12 24.38 C-10.15 22.08 -10.17 19.79 -10.19 17.5 C-10.2 16.22 -10.21 14.95 -10.22 13.63 C-10.12 10.38 -10.12 10.38 -9.12 8.38 C-9.37 5.81 -9.37 5.81 -10.12 3.38 C-10.78 3.04 -11.44 2.72 -12.12 2.38 C-8.8 -0.95 -4.51 0.01 0 0 Z " fill="#D6C5BC" transform="translate(126.125,536.625)"/>
<path d="M0 0 C1.32 0 2.64 0 4 0 C4.67 1.79 5.34 3.58 6 5.38 C6.56 6.87 6.56 6.87 7.12 8.4 C8 11 8 11 8 13 C12.79 12.56 14.85 11.62 18 8 C18.33 8 18.66 8 19 8 C19.09 11.44 19.14 14.87 19.19 18.31 C19.21 19.29 19.24 20.27 19.26 21.27 C19.27 22.21 19.28 23.15 19.29 24.11 C19.31 24.98 19.32 25.84 19.34 26.73 C19 29 19 29 17.68 30.77 C14.76 32.9 12.49 32.47 9 32 C6.34 30.67 4.03 29.18 2 27 C1.3 24.83 1.3 24.83 1 23 C-0.32 22.67 -1.64 22.34 -3 22 C-3.36 19.9 -3.72 17.79 -4.06 15.69 C-4.36 13.93 -4.36 13.93 -4.66 12.14 C-5 9 -5 9 -4 6 C-3.01 6 -2.02 6 -1 6 C-0.67 4.02 -0.34 2.04 0 0 Z " fill="#100F0F" transform="translate(85,125)"/>
<path d="M0 0 C0 1.98 0 3.96 0 6 C-3.96 7.98 -3.96 7.98 -8 10 C-7.07 10.99 -6.14 11.98 -5.19 13 C-1.93 16.77 -0.49 20.28 1 25 C-3.18 29.92 -3.18 29.92 -7.31 30.31 C-8.2 30.21 -9.09 30.11 -10 30 C-10.67 28.21 -11.34 26.42 -12 24.62 C-12.37 23.63 -12.74 22.63 -13.12 21.6 C-14 19 -14 19 -14 17 C-15.32 17 -16.64 17 -18 17 C-18.33 18.98 -18.66 20.96 -19 23 C-19.99 23.33 -20.98 23.66 -22 24 C-22.73 26.02 -22.73 26.02 -23 28 C-24.5 26.94 -24.5 26.94 -26 25 C-26.94 18.26 -24.52 12.63 -20.73 7.16 C-16.92 2.44 -13.84 0.77 -7.94 -0.19 C-6.34 -0.46 -6.34 -0.46 -4.71 -0.73 C-2 -1 -2 -1 0 0 Z " fill="#393533" transform="translate(103,108)"/>
<path d="M0 0 C3.57 4.41 3.56 9.42 3.43 14.88 C2.76 19.77 0.95 24.04 -2 28 C-2.99 28.33 -3.98 28.66 -5 29 C-5.99 28.34 -6.98 27.68 -8 27 C-9.66 26.62 -11.32 26.27 -13 26 C-13.14 25.4 -13.29 24.8 -13.44 24.19 C-13.89 22.44 -14.43 20.71 -15 19 C-15.66 19 -16.32 19 -17 19 C-18.48 14.07 -18.25 8.95 -17 4 C-14.81 2 -14.81 2 -12 1 C-11.03 0.59 -10.06 0.18 -9.06 -0.25 C-5.5 -1.12 -3.47 -1.23 0 0 Z " fill="#CEC8C4" transform="translate(195,133)"/>
<path d="M0 0 C0.33 0 0.66 0 1 0 C1 9.67 1 19.33 1 29 C2.64 33.26 2.64 33.26 6 36 C6 36.66 6 37.32 6 38 C5.05 37.79 4.1 37.59 3.12 37.38 C2.09 37.25 1.06 37.13 0 37 C-0.66 37.66 -1.32 38.32 -2 39 C-2.06 38.25 -2.12 37.5 -2.18 36.73 C-2.31 35.26 -2.31 35.26 -2.44 33.75 C-2.52 32.78 -2.6 31.8 -2.68 30.8 C-2.79 29.87 -2.89 28.95 -3 28 C-3.05 26.91 -3.05 26.91 -3.1 25.79 C-3.94 23.64 -3.94 23.64 -7.03 22.69 C-8.33 22.3 -9.63 21.93 -10.94 21.56 C-27.28 16.58 -27.28 16.58 -31 11 C-31.19 8.38 -31.19 8.38 -31 6 C-30 5 -30 5 -27.5 4.88 C-25 5 -25 5 -24 6 C-22.32 6.39 -20.63 6.74 -18.94 7.06 C-18.02 7.24 -17.1 7.42 -16.15 7.6 C-15.44 7.73 -14.73 7.86 -14 8 C-14 8.66 -14 9.32 -14 10 C-11.1 9.81 -11.1 9.81 -8 9 C-6.99 7.67 -5.99 6.34 -5 5 C-2.31 4.75 -2.31 4.75 0 5 C0 3.35 0 1.7 0 0 Z " fill="#858482" transform="translate(49,269)"/>
<path d="M0 0 C0.33 0 0.66 0 1 0 C1.33 1.65 1.66 3.3 2 5 C3.09 5.1 4.18 5.2 5.3 5.3 C14.16 6.17 22.84 7.16 31 11 C32.41 13.81 31.67 15.57 31.06 18.62 C30.87 19.63 30.67 20.63 30.47 21.66 C30.32 22.43 30.16 23.21 30 24 C22.38 22.12 22.38 22.12 19 21 C17.59 20.86 16.18 20.75 14.77 20.68 C13.97 20.64 13.16 20.6 12.34 20.56 C11.5 20.52 10.67 20.48 9.81 20.44 C8.97 20.39 8.12 20.35 7.25 20.31 C5.17 20.2 3.08 20.1 1 20 C-0.66 15.02 -1.17 11.36 -0.62 6.06 C-0.51 4.92 -0.4 3.78 -0.29 2.6 C-0.19 1.74 -0.1 0.88 0 0 Z " fill="#F3B89A" transform="translate(118,517)"/>
<path d="M0 0 C0.99 0 1.98 0 3 0 C3.18 1.3 3.36 2.61 3.55 3.95 C5.13 15.35 5.13 15.35 7.69 26.56 C9.2 32.09 9.3 37.3 9 43 C8.34 42.34 7.68 41.68 7 41 C6.67 41.66 6.34 42.32 6 43 C2.37 43 -1.26 43 -5 43 C-5.26 8.82 -5.26 8.82 0 0 Z " fill="#9C9B9B" transform="translate(181,172)"/>
<path d="M0 0 C0.33 0 0.66 0 1 0 C1 1.98 1 3.96 1 6 C3.02 5.4 5.02 4.73 7 4 C7.33 3.34 7.66 2.68 8 2 C9.68 2.97 11.35 3.97 13 5 C13 5.33 13 5.66 13 6 C10.69 6.33 8.38 6.66 6 7 C5.15 10.75 4.82 14.33 4.68 18.18 C4.64 19.33 4.6 20.49 4.56 21.68 C4.52 22.88 4.48 24.08 4.44 25.31 C4.39 26.53 4.35 27.75 4.31 29 C4.2 32 4.1 35 4 38 C3.67 38 3.34 38 3 38 C3 35.69 3 33.38 3 31 C2.22 30.94 1.43 30.88 0.62 30.81 C-3.54 29.88 -6.76 28.18 -10.52 26.21 C-13.64 24.69 -16.63 23.81 -20 23 C-20.33 21.68 -20.66 20.36 -21 19 C-20.14 18.78 -19.29 18.56 -18.4 18.34 C-8.38 15.77 -8.38 15.77 -1 9 C-0.19 5.97 0.05 3.13 0 0 Z " fill="#C0C0B9" transform="translate(147,115)"/>
<path d="M0 0 C0.33 0 0.66 0 1 0 C3.04 10.2 4.63 24.04 -0.88 33.25 C-2.53 35.5 -3.51 36.75 -6 38 C-6.74 33.24 -4.73 30.44 -2.29 26.57 C-1.86 26.05 -1.44 25.54 -1 25 C-0.34 25 0.32 25 1 25 C0.75 20.95 0.75 20.95 0 17 C-1.92 15.41 -1.92 15.41 -4 15 C-4 15.66 -4 16.32 -4 17 C-10.2 19.73 -16.12 20.74 -22.83 21.57 C-25.3 21.91 -27.6 22.32 -30 23 C-30 23.99 -30 24.98 -30 26 C-32.64 26.66 -35.28 27.32 -38 28 C-38.33 30.31 -38.66 32.62 -39 35 C-39.33 35 -39.66 35 -40 35 C-40.03 33.42 -40.05 31.83 -40.06 30.25 C-40.07 29.37 -40.09 28.49 -40.1 27.58 C-40.01 25.22 -39.67 23.26 -39 21 C-37.93 21.06 -36.85 21.12 -35.75 21.19 C-31.73 20.99 -30.95 20.44 -28 18 C-26.68 18 -25.36 18 -24 18 C-24 16.35 -24 14.7 -24 13 C-20.7 13 -17.4 13 -14 13 C-14 12.34 -14 11.68 -14 11 C-12.73 10.35 -11.46 9.71 -10.19 9.06 C-9.48 8.7 -8.77 8.34 -8.04 7.97 C-6 7 -6 7 -3 6 C-1.83 4.08 -1.83 4.08 -1 2 C-0.67 1.34 -0.34 0.68 0 0 Z " fill="#948D89" transform="translate(237,249)"/>
<path d="M0 0 C0.33 0 0.66 0 1 0 C1.33 9.57 1.66 19.14 2 29 C6.79 31.39 9.19 32.43 14.19 33.12 C17.29 33.57 20.02 34.01 23 35 C20.03 35.99 17.06 36.98 14 38 C14.19 38.76 14.37 39.53 14.56 40.31 C15 43 15 43 14 46 C15.65 46 17.3 46 19 46 C18.67 47.32 18.34 48.64 18 50 C14.69 51 11.7 51.1 8.25 51.06 C7.27 51.05 6.28 51.04 5.27 51.04 C4.52 51.02 3.77 51.01 3 51 C2.48 49.89 1.97 48.77 1.44 47.62 C0.19 45.4 -0.53 44.24 -2.82 43.09 C-4.95 42.47 -4.95 42.47 -8 42 C-8 41.67 -8 41.34 -8 41 C-5.69 41.33 -3.38 41.66 -1 42 C-1 41.01 -1 40.02 -1 39 C-0.01 38.5 -0.01 38.5 1 38 C0.67 37.49 0.34 36.99 0 36.46 C-1.38 33.08 -1.15 30.21 -1.06 26.56 C-0.89 21.49 -0.89 21.49 -1.55 16.48 C-2.17 13.06 -1.61 10.11 -1.06 6.69 C-0.87 5.43 -0.67 4.18 -0.47 2.89 C-0.32 1.93 -0.16 0.98 0 0 Z " fill="#928C99" transform="translate(150,544)"/>
<path d="M0 0 C0.33 0 0.66 0 1 0 C1.33 4.62 1.66 9.24 2 14 C1.67 14 1.34 14 1 14 C0.34 25.88 -0.32 37.76 -1 50 C-0.01 48.68 0.98 47.36 2 46 C2 48.97 2 51.94 2 55 C1.67 55 1.34 55 1 55 C0.5 57.48 0.5 57.48 0 60 C-0.66 59.34 -1.32 58.68 -2 58 C-2.69 66.78 -3.09 75.37 -2.84 84.17 C-3 87 -3 87 -5 90 C-5.39 92.32 -5.73 94.66 -6 97 C-5.67 97 -5.34 97 -5 97 C-4.67 100.96 -4.34 104.92 -4 109 C-5.98 109.5 -5.98 109.5 -8 110 C-9 109 -9 109 -9.13 107.07 C-9.1 100.93 -8.75 94.89 -8.17 88.78 C-8.09 87.81 -8 86.84 -7.91 85.85 C-7.62 82.69 -7.33 79.53 -7.03 76.37 C-6.83 74.16 -6.63 71.96 -6.43 69.75 C-5.9 63.97 -5.36 58.2 -4.83 52.42 C-4.28 46.52 -3.74 40.61 -3.2 34.7 C-2.14 23.13 -1.07 11.57 0 0 Z " fill="#BF6C46" transform="translate(39,482)"/>
<path d="M0 0 C2.39 2.62 2.9 4.57 3.69 8 C2.9 11.45 2.38 11.87 -0.44 13.81 C-4.84 16.27 -9.01 16.87 -14 17 C-14.33 16.01 -14.66 15.02 -15 14 C-15.99 13.67 -16.98 13.34 -18 13 C-18 11.02 -18 9.04 -18 7 C-17.34 6.67 -16.68 6.34 -16 6 C-15.67 5.01 -15.34 4.02 -15 3 C-9.64 -0.94 -6.46 -1.83 0 0 Z " fill="#C7B0AA" transform="translate(176,551)"/>
<path d="M0 0 C0.33 0 0.66 0 1 0 C0.39 18.35 -1.24 36.61 -2.85 54.89 C-3.21 58.97 -3.56 63.06 -3.92 67.14 C-4.61 75.1 -5.3 83.05 -6 91 C-6.33 91 -6.66 91 -7 91 C-7.75 77.13 -8.18 63.29 -7.8 49.4 C-7.75 47.42 -7.71 45.43 -7.67 43.45 C-7.44 36.37 -6.65 30.58 -4 24 C-3.67 24 -3.34 24 -3 24 C-2.67 18.39 -2.34 12.78 -2 7 C-1.67 7 -1.34 7 -1 7 C-0.67 4.69 -0.34 2.38 0 0 Z " fill="#A95F48" transform="translate(66,427)"/>
<path d="M0 0 C0.33 0 0.66 0 1 0 C1.09 3.44 1.14 6.87 1.19 10.31 C1.23 11.78 1.23 11.78 1.26 13.27 C1.28 14.68 1.28 14.68 1.29 16.11 C1.32 17.41 1.32 17.41 1.34 18.73 C1 21 1 21 -0.31 22.78 C-3.18 24.85 -5.58 24.41 -9 24 C-11.94 22 -11.94 22 -14 20 C-13.01 19.67 -12.02 19.34 -11 19 C-10.67 14.38 -10.34 9.76 -10 5 C-8.02 4.67 -6.04 4.34 -4 4 C-1.71 2.04 -1.71 2.04 0 0 Z " fill="#2D2C2B" transform="translate(103,133)"/>
<path d="M0 0 C0.76 -0.02 1.53 -0.04 2.31 -0.06 C5.77 -0.09 8 -0.05 11.1 1.58 C12.56 3.25 12.56 3.25 12.56 6.25 C11.57 6.25 10.58 6.25 9.56 6.25 C10.55 6.91 11.54 7.57 12.56 8.25 C12.23 11.22 11.9 14.19 11.56 17.25 C10.78 16.96 10 16.67 9.19 16.38 C0.97 13.83 -5.89 12.9 -14.44 14.25 C-14.44 13.59 -14.44 12.93 -14.44 12.25 C-10.44 11.29 -6.73 11.15 -2.62 11.19 C-1.46 11.2 -0.3 11.21 0.89 11.21 C1.77 11.23 2.66 11.24 3.56 11.25 C3.56 10.59 3.56 9.93 3.56 9.25 C2.9 8.92 2.24 8.59 1.56 8.25 C1.89 7.92 2.22 7.59 2.56 7.25 C0.81 7.22 -0.94 7.2 -2.69 7.19 C-3.66 7.18 -4.64 7.16 -5.64 7.15 C-8.1 7.24 -10.1 7.54 -12.44 8.25 C-12.44 7.59 -12.44 6.93 -12.44 6.25 C-8.91 4.1 -5.77 3.87 -1.69 3.62 C-0.52 3.55 0.65 3.48 1.86 3.4 C2.75 3.35 3.64 3.3 4.56 3.25 C-1.35 2.48 -6.57 2.1 -12.44 3.25 C-10.23 -1.17 -4.34 0.03 0 0 Z " fill="#88B0CA" transform="translate(133.4375,538.75)"/>
<path d="M0 0 C0.66 0 1.32 0 2 0 C2 1.32 2 2.64 2 4 C-1.96 4 -5.92 4 -10 4 C-9.86 7.75 -9.71 11.5 -9.56 15.25 C-9.52 16.31 -9.48 17.38 -9.44 18.47 C-9.4 19.5 -9.36 20.52 -9.32 21.58 C-9.28 22.52 -9.24 23.46 -9.21 24.43 C-9.07 26.96 -9.07 26.96 -8.45 29.18 C-7.77 31.9 -8.53 34.23 -9 37 C-9.28 41.77 -9.39 46.55 -9.52 51.33 C-9.73 57.48 -10.5 63.03 -12 69 C-12 69.33 -12 69.66 -12 70 C-11.34 70 -10.68 70 -10 70 C-10.33 71.98 -10.66 73.96 -11 76 C-11.66 75.67 -12.32 75.34 -13 75 C-13.66 77.97 -14.32 80.94 -15 84 C-15.33 84 -15.66 84 -16 84 C-15.59 73.04 -14.76 62.15 -13.7 51.24 C-13.64 50.54 -13.57 49.84 -13.5 49.12 C-13.43 48.43 -13.36 47.73 -13.29 47.01 C-12.17 35.25 -11.55 23.54 -11.29 11.72 C-11.26 10.59 -11.24 9.45 -11.21 8.28 C-11.19 7.28 -11.18 6.28 -11.16 5.25 C-11 3 -11 3 -10 2 C-8.32 1.77 -6.63 1.59 -4.94 1.44 C-3.56 1.31 -3.56 1.31 -2.15 1.18 C-1.44 1.12 -0.73 1.06 0 1 C0 0.67 0 0.34 0 0 Z " fill="#97593D" transform="translate(60,351)"/>
<path d="M0 0 C3.97 0.59 6.21 2.14 9 5 C10.58 8.25 11.83 11.58 13 15 C8.82 19.92 8.82 19.92 4.69 20.31 C3.8 20.21 2.91 20.11 2 20 C1.33 18.21 0.66 16.42 0 14.62 C-0.56 13.13 -0.56 13.13 -1.12 11.6 C-2 9 -2 9 -2 7 C-2.66 6.67 -3.32 6.34 -4 6 C-2.68 4.02 -1.36 2.04 0 0 Z " fill="#504B49" transform="translate(91,118)"/>
<path d="M0 0 C0.99 0 1.98 0 3 0 C8 16.27 8 16.27 8 21 C10.65 22.08 13.28 23.09 16 24 C16.33 24.66 16.66 25.32 17 26 C18.11 26.12 19.23 26.25 20.38 26.38 C24 27 24 27 25.44 29 C27.3 31.39 28.03 31.46 30.94 31.94 C33.91 32.19 34.74 32.15 37.38 30.56 C37.91 30.05 38.45 29.53 39 29 C39.66 29 40.32 29 41 29 C41 29.99 41 30.98 41 32 C38 34 38 34 34 34 C33.67 34.99 33.34 35.98 33 37 C31.52 36.75 30.04 36.47 28.56 36.19 C27.74 36.04 26.92 35.89 26.07 35.73 C25.38 35.49 24.7 35.25 24 35 C23.67 34.01 23.34 33.02 23 32 C22.24 31.92 21.47 31.83 20.69 31.75 C17.35 30.82 17.02 29.73 15 27 C13.84 26.29 12.64 25.63 11.44 25 C6.92 22.37 6.92 22.37 6 19 C5.88 16.25 5.88 16.25 6 14 C5.01 14 4.02 14 3 14 C1.37 12 1.37 12 0 10 C-0.33 10 -0.66 10 -1 10 C-1.12 3.38 -1.12 3.38 0 0 Z " fill="#B3AFAA" transform="translate(8,236)"/>
<path d="M0 0 C1.32 0 2.64 0 4 0 C4 1.98 4 3.96 4 6 C5.32 6 6.64 6 8 6 C8.03 7.73 8.05 9.46 8.06 11.19 C8.07 12.15 8.09 13.11 8.1 14.11 C8 16.86 7.62 19.32 7 22 C5.68 22.33 4.36 22.66 3 23 C2.67 24.65 2.34 26.3 2 28 C1.01 28 0.02 28 -1 28 C-1.18 9.18 -1.18 9.18 0 0 Z " fill="#0E0D0D" transform="translate(164,125)"/>
<path d="M0 0 C0.33 0 0.66 0 1 0 C1.08 2.77 1.14 5.54 1.19 8.31 C1.23 9.49 1.23 9.49 1.26 10.69 C1.28 11.83 1.28 11.83 1.29 12.99 C1.32 14.03 1.32 14.03 1.34 15.1 C0.89 17.62 0.04 18.48 -2 20 C-5.56 20.31 -5.56 20.31 -9 20 C-11.41 17.59 -11.3 16.87 -11.31 13.56 C-11.33 12.78 -11.35 12 -11.36 11.19 C-10.91 8.48 -10.14 7.68 -8 6 C-6.99 5.5 -5.98 5.01 -4.94 4.5 C-1.77 3.18 -1.77 3.18 0 0 Z " fill="#282828" transform="translate(162,137)"/>
<path d="M0 0 C1.94 0.42 3.88 0.86 5.81 1.31 C7.43 1.68 7.43 1.68 9.08 2.05 C13.47 3.48 13.47 3.48 15 6 C14.86 8.7 14.86 8.7 14.19 11.69 C13.97 12.68 13.76 13.68 13.54 14.7 C13.36 15.46 13.18 16.22 13 17 C8.69 15.99 4.92 15.1 1 13 C1.01 12.31 1.02 11.63 1.04 10.92 C1.04 10.02 1.05 9.12 1.06 8.19 C1.07 7.29 1.09 6.4 1.1 5.48 C1.11 2.87 1.11 2.87 0 0 Z " fill="#DC8D6E" transform="translate(135,524)"/>
<path d="M0 0 C3 2 3 2 3.67 4.09 C4.86 14.55 4.86 24.48 0.96 34.36 C-0.45 38.24 -0.73 41.9 -1 46 C-1.33 46 -1.66 46 -2 46 C-2.26 39.39 -1.68 33.34 -0.34 26.86 C0.04 23.69 -0.34 21.11 -1 18 C-1.66 18 -2.32 18 -3 18 C-3.66 15.69 -4.32 13.38 -5 11 C-3.68 11 -2.36 11 -1 11 C-0.67 7.37 -0.34 3.74 0 0 Z " fill="#1E1D1D" transform="translate(197,295)"/>
<path d="M0 0 C0.33 0 0.66 0 1 0 C1.43 4.48 1.86 8.96 2.28 13.44 C2.43 14.96 2.57 16.48 2.72 18 C3.59 27.02 4.24 35.92 4 45 C-0.37 46.07 -2.79 45.66 -7 44 C-7 43.67 -7 43.34 -7 43 C-5.35 43 -3.7 43 -2 43 C-2.01 42.07 -2.02 41.15 -2.04 40.19 C-2.04 38.99 -2.05 37.8 -2.06 36.56 C-2.07 35.37 -2.09 34.17 -2.1 32.94 C-2 30 -2 30 -1 29 C-0.77 26.98 -0.59 24.96 -0.44 22.94 C-0.35 21.83 -0.27 20.73 -0.18 19.59 C-0.12 18.74 -0.06 17.88 0 17 C-0.33 17 -0.66 17 -1 17 C-0.67 11.39 -0.34 5.78 0 0 Z " fill="#9A3618" transform="translate(192,548)"/>
<path d="M0 0 C0.66 0.33 1.32 0.66 2 1 C1.84 2.29 1.69 3.58 1.53 4.9 C1.33 6.58 1.13 8.26 0.94 9.94 C0.83 10.79 0.73 11.64 0.62 12.51 C0.53 13.32 0.44 14.13 0.34 14.96 C0.21 16.09 0.21 16.09 0.07 17.23 C0.05 17.82 0.02 18.4 0 19 C0.33 19.33 0.66 19.66 1 20 C1.1 21.98 1.13 23.96 1.12 25.94 C1.13 27.02 1.13 28.1 1.13 29.21 C1 32 1 32 0 34 C-3.63 33.34 -7.26 32.68 -11 32 C-10.67 30.68 -10.34 29.36 -10 28 C-9.34 28 -8.68 28 -8 28 C-7.6 26.86 -7.6 26.86 -7.19 25.69 C-6 23 -6 23 -4.45 21.58 C-1.92 18.83 -2.5 15.06 -2.44 11.5 C-2.25 3.38 -2.25 3.38 0 0 Z " fill="#A68E8A" transform="translate(149,543)"/>
<path d="M0 0 C2.36 0.94 4.7 1.93 7 3 C7.18 7.5 7.18 10.99 5 15 C1.56 17.29 0.01 17.18 -4 17 C-4.05 15.27 -4.09 13.54 -4.12 11.81 C-4.15 10.85 -4.17 9.89 -4.2 8.89 C-3.99 5.84 -3.38 3.72 -2 1 C-1.34 0.67 -0.68 0.34 0 0 Z " fill="#544F4D" transform="translate(155,121)"/>
<path d="M0 0 C0 0.99 0 1.98 0 3 C-2.97 3 -5.94 3 -9 3 C-9.33 5.31 -9.66 7.62 -10 10 C-8.68 10 -7.36 10 -6 10 C-5.01 11.48 -5.01 11.48 -4 13 C-1.44 13.73 -1.44 13.73 1 14 C1.33 15.65 1.66 17.3 2 19 C0.74 19.04 -0.52 19.08 -1.81 19.12 C-2.52 19.15 -3.23 19.17 -3.96 19.2 C-6 19 -6 19 -9 17 C-9 16.34 -9 15.68 -9 15 C-9.99 15.33 -10.98 15.66 -12 16 C-13.35 11.96 -13.44 8.23 -13 4 C-9.93 -1.85 -5.92 -1 0 0 Z " fill="#D38F74" transform="translate(84,64)"/>
<path d="M0 0 C1.02 0.22 1.02 0.22 2.06 0.44 C3.03 0.62 4 0.81 5 1 C6.13 1.23 7.27 1.45 8.44 1.69 C12.24 2.02 14.51 1.45 18 0 C19.03 2.79 19.05 3.87 18.06 6.75 C17.54 7.86 17.54 7.86 17 9 C16.34 9 15.68 9 15 9 C14.67 8.01 14.34 7.02 14 6 C13.41 6.05 12.82 6.09 12.21 6.14 C7.96 6.33 5.65 6.4 1.94 4.12 C0 2 0 2 0 0 Z M-1 9 C-0.31 9.08 0.37 9.17 1.08 9.25 C2.43 9.41 2.43 9.41 3.81 9.56 C4.71 9.67 5.6 9.77 6.52 9.88 C9.13 10.16 9.13 10.16 12 9 C12.99 9.33 13.98 9.66 15 10 C13.89 11.98 13.89 11.98 12 14 C9.08 14.39 9.08 14.39 5.81 14.25 C4.73 14.21 3.64 14.18 2.52 14.14 C1.69 14.09 0.86 14.05 0 14 C-0.33 12.35 -0.66 10.7 -1 9 Z " fill="#BC6451" transform="translate(116,101)"/>
<path d="M0 0 C0.33 0 0.66 0 1 0 C1.33 9.9 1.66 19.8 2 30 C-2.13 25.87 -4.51 21.67 -6 16 C-5.55 9.97 -4.01 4.61 0 0 Z " fill="#9C3716" transform="translate(162,506)"/>
<path d="M0 0 C1.99 1.58 2.87 2.73 4 5 C4.35 10.34 4.46 13.65 1 18 C0.01 18.66 -0.98 19.32 -2 20 C-4.23 15.55 -3.47 9.48 -2 4.88 C-1.67 4.26 -1.34 3.64 -1 3 C-3.64 3 -6.28 3 -9 3 C-9 2.01 -9 1.02 -9 0 C-5.45 -1.18 -3.6 -0.9 0 0 Z " fill="#C47558" transform="translate(176,64)"/>
<path d="M0 0 C0.33 0 0.66 0 1 0 C1.19 15.24 1.19 15.24 0 22 C-0.33 22.33 -0.66 22.66 -1 23 C-1.16 24.63 -1.25 26.27 -1.32 27.91 C-1.36 28.9 -1.4 29.89 -1.44 30.91 C-1.5 32.47 -1.5 32.47 -1.56 34.06 C-1.61 35.11 -1.65 36.15 -1.69 37.23 C-1.8 39.82 -1.9 42.41 -2 45 C-4.2 43.26 -4.95 42.43 -5.3 39.6 C-5.26 38.67 -5.22 37.73 -5.18 36.77 C-5.14 35.72 -5.1 34.68 -5.06 33.61 C-5 32.5 -4.94 31.39 -4.88 30.25 C-4.82 29.13 -4.77 28 -4.71 26.85 C-3.62 7.24 -3.62 7.24 0 0 Z " fill="#A03916" transform="translate(66,413)"/>
<path d="M0 0 C-0.33 1.65 -0.66 3.3 -1 5 C-1.99 5.33 -2.98 5.66 -4 6 C-4 6.99 -4 7.98 -4 9 C-4.66 9 -5.32 9 -6 9 C-6.66 12.96 -7.32 16.92 -8 21 C-9.65 21 -11.3 21 -13 21 C-13.33 21.99 -13.66 22.98 -14 24 C-14.64 16.48 -12.16 10.43 -7.44 4.56 C-3.1 0 -3.1 0 0 0 Z " fill="#625D5B" transform="translate(91,109)"/>
<path d="M0 0 C0.33 0 0.66 0 1 0 C1 1.98 1 3.96 1 6 C3.02 5.4 5.02 4.73 7 4 C7.33 3.34 7.66 2.68 8 2 C9.68 2.97 11.35 3.97 13 5 C13 5.33 13 5.66 13 6 C10.69 6.33 8.38 6.66 6 7 C5.15 10.75 4.82 14.33 4.68 18.18 C4.64 19.33 4.6 20.49 4.56 21.68 C4.52 22.88 4.48 24.08 4.44 25.31 C4.39 26.53 4.35 27.75 4.31 29 C4.2 32 4.1 35 4 38 C3.67 38 3.34 38 3 38 C2.99 37.39 2.97 36.78 2.96 36.15 C2.88 33.37 2.78 30.59 2.69 27.81 C2.66 26.85 2.64 25.89 2.62 24.9 C2.45 17.91 2.45 17.91 -1 12 C-1.99 12 -2.98 12 -4 12 C-3.52 11.6 -3.04 11.2 -2.54 10.79 C-0.63 8.57 -0.52 7.21 -0.31 4.31 C-0.21 3.1 -0.21 3.1 -0.11 1.86 C-0.08 1.25 -0.04 0.63 0 0 Z " fill="#A8A5A2" transform="translate(147,115)"/>
<path d="M0 0 C1.76 0.03 1.76 0.03 3.55 0.05 C4.88 0.09 4.88 0.09 6.25 0.12 C6.25 0.46 6.25 0.78 6.25 1.12 C5.02 1.22 5.02 1.22 3.77 1.31 C2.15 1.43 2.15 1.43 0.5 1.56 C-0.57 1.64 -1.63 1.72 -2.73 1.81 C-5.19 2.07 -7.39 2.44 -9.75 3.12 C-7.52 3.12 -5.29 3.11 -3.06 3.05 C-1.64 3.03 -1.64 3.03 -0.19 3 C0.76 2.98 1.71 2.95 2.69 2.93 C5.25 3.12 5.25 3.12 8.25 5.12 C7.26 5.62 7.26 5.62 6.25 6.12 C6.25 6.78 6.25 7.45 6.25 8.12 C-2.16 8.62 -2.16 8.62 -10.75 9.12 C-10.75 6.82 -10.75 4.5 -10.75 2.12 C-7.16 -0.13 -4.18 -0.08 0 0 Z " fill="#B7D3E4" transform="translate(130.75,541.875)"/>
<path d="M0 0 C0.33 0 0.66 0 1 0 C1 1.65 1 3.3 1 5 C1.66 5 2.32 5 3 5 C3.33 3.68 3.66 2.36 4 1 C3.86 3.69 3.71 6.38 3.56 9.06 C3.5 10.19 3.5 10.19 3.44 11.34 C3.18 15.95 2.72 20.44 2 25 C1.34 24.34 0.68 23.68 0 23 C0.01 23.71 0.02 24.42 0.04 25.15 C0.04 26.07 0.05 26.99 0.06 27.94 C0.07 28.85 0.09 29.77 0.1 30.71 C0 33 0 33 -1 34 C-1.37 36.33 -1.7 38.66 -2 41 C-2.33 41 -2.66 41 -3 41 C-2.4 27.29 -1.33 13.66 0 0 Z " fill="#C06D46" transform="translate(43,438)"/>
<path d="M0 0 C0 0.66 0 1.32 0 2 C-0.99 2.5 -0.99 2.5 -2 3 C-0.68 3 0.64 3 2 3 C2 3.99 2 4.98 2 6 C-1.96 7.32 -5.92 8.64 -10 10 C-13 5 -13 5 -13 2 C-8.5 -0.25 -4.92 -0.17 0 0 Z " fill="#759FBA" transform="translate(161,536)"/>
<path d="M0 0 C3.8 0.54 5.47 2.2 8 5 C7.34 5 6.68 5 6 5 C6 7.64 6 10.28 6 13 C5.01 13 4.02 13 3 13 C2.77 12.2 2.55 11.39 2.31 10.56 C1.88 9.72 1.45 8.87 1 8 C-1.55 7.11 -1.55 7.11 -4 7 C-2.68 4.69 -1.36 2.38 0 0 Z " fill="#615B58" transform="translate(91,118)"/>
<path d="M0 0 C0.31 0.64 0.62 1.28 0.94 1.94 C1.83 3.94 1.83 3.94 3 5 C3.13 7.66 3.19 10.28 3.19 12.94 C3.2 13.68 3.21 14.42 3.22 15.19 C3.23 17.13 3.12 19.06 3 21 C2.34 21.66 1.68 22.32 1 23 C0.01 23 -0.98 23 -2 23 C-2.33 23.99 -2.66 24.98 -3 26 C-3 24.68 -3 23.36 -3 22 C-2.34 21.67 -1.68 21.34 -1 21 C-1.01 20.15 -1.02 19.31 -1.04 18.44 C-1.08 12.18 -0.97 6.18 0 0 Z " fill="#525255" transform="translate(193,350)"/>
<path d="M0 0 C0.33 0 0.66 0 1 0 C1.33 4.95 1.66 9.9 2 15 C1.67 15 1.34 15 1 15 C1 15.78 1 16.56 1 17.37 C1 20.58 1 23.79 1 27 C1.66 27 2.32 27 3 27 C2.67 28.98 2.34 30.96 2 33 C1.34 32.67 0.68 32.34 0 32 C-0.66 34.97 -1.32 37.94 -2 41 C-2.33 41 -2.66 41 -3 41 C-2.4 27.29 -1.33 13.66 0 0 Z " fill="#C48060" transform="translate(47,394)"/>
<path d="M0 0 C0.33 0 0.66 0 1 0 C1.34 3.48 1.67 6.96 2 10.44 C2.1 11.41 2.19 12.39 2.29 13.39 C2.84 19.29 3.1 25.07 3 31 C2.67 31 2.34 31 2 31 C0.81 25.62 -0.29 20.55 0 15 C-0.99 15.33 -1.98 15.66 -3 16 C-3.33 13.03 -3.66 10.06 -4 7 C-3.67 7.66 -3.34 8.32 -3 9 C-2.34 8.67 -1.68 8.34 -1 8 C-0.53 6.1 -0.53 6.1 -0.38 3.94 C-0.25 2.64 -0.13 1.34 0 0 Z " fill="#A66553" transform="translate(189,514)"/>
<path d="M0 0 C5.61 0 11.22 0 17 0 C16.67 1.32 16.34 2.64 16 4 C12.69 5 9.7 5.1 6.25 5.06 C5.27 5.05 4.28 5.04 3.27 5.04 C2.52 5.02 1.77 5.01 1 5 C0.67 3.35 0.34 1.7 0 0 Z " fill="#A05843" transform="translate(152,590)"/>
<path d="M0 0 C0.33 0 0.66 0 1 0 C1.34 3.44 1.67 6.87 2 10.31 C2.14 11.75 2.14 11.75 2.29 13.21 C2.91 19.83 3.12 26.36 3 33 C2.01 33.5 2.01 33.5 1 34 C-0.53 30.93 -0.1 27.73 -0.06 24.38 C-0.06 23.67 -0.05 22.96 -0.05 22.23 C-0.04 20.49 -0.02 18.74 0 17 C-0.33 17 -0.66 17 -1 17 C-0.67 11.39 -0.34 5.78 0 0 Z " fill="#A45036" transform="translate(192,548)"/>
<path d="M0 0 C0.66 0.33 1.32 0.66 2 1 C2.1 7.11 2.07 12.97 1 19 C0.67 19 0.34 19 0 19 C-0.7 16.75 -1.38 14.5 -2.06 12.25 C-2.45 11 -2.83 9.74 -3.22 8.45 C-4.31 3.61 -4.31 3.61 -3 1 C-2.01 0.67 -1.02 0.34 0 0 Z " fill="#CE8B72" transform="translate(119,497)"/>
<path d="M0 0 C0.33 0 0.66 0 1 0 C1.08 4.83 0.95 9.24 0 14 C-0.66 14 -1.32 14 -2 14 C-2 14.66 -2 15.32 -2 16 C-3.32 16.33 -4.64 16.66 -6 17 C-5.67 15.68 -5.34 14.36 -5 13 C-6.32 12.67 -7.64 12.34 -9 12 C-7.68 11.67 -6.36 11.34 -5 11 C-5 9.35 -5 7.7 -5 6 C-3.35 5.67 -1.7 5.34 0 5 C0 3.35 0 1.7 0 0 Z " fill="#A0A09B" transform="translate(171,142)"/>
<path d="M0 0 C1.02 0.22 1.02 0.22 2.06 0.44 C3.03 0.62 4 0.81 5 1 C6.13 1.23 7.27 1.45 8.44 1.69 C12.24 2.02 14.51 1.45 18 0 C17.69 1.88 17.69 1.88 17 4 C12.98 6.68 9.72 6.69 5 6 C1.94 4.12 1.94 4.12 0 2 C0 1.34 0 0.68 0 0 Z " fill="#423A3D" transform="translate(116,101)"/>
<path d="M0 0 C0.33 0.66 0.66 1.32 1 2 C1.99 2.33 2.98 2.66 4 3 C4.92 5.59 5.63 8.02 6.25 10.69 C6.53 11.75 6.53 11.75 6.81 12.83 C7.88 17.21 8.1 20.53 7 25 C5.57 22.3 4.53 19.72 3.71 16.78 C3.49 15.99 3.27 15.21 3.05 14.4 C2.83 13.59 2.6 12.77 2.38 11.94 C2.15 11.12 1.92 10.31 1.68 9.47 C0 3.38 0 3.38 0 0 Z " fill="#38312E" transform="translate(72,393)"/>
<path d="M0 0 C0.66 0 1.32 0 2 0 C2 1.65 2 3.3 2 5 C2.66 5.33 3.32 5.66 4 6 C4.38 9.1 4.38 9.1 4.56 13.06 C4.87 19.21 4.87 19.21 5.62 25.31 C6.1 29.99 5.62 34.36 5 39 C4.67 39 4.34 39 4 39 C3.91 38.03 3.83 37.06 3.74 36.07 C3.42 32.45 3.1 28.84 2.77 25.23 C2.63 23.67 2.5 22.11 2.36 20.55 C2.16 18.3 1.96 16.05 1.75 13.8 C1.69 13.11 1.63 12.42 1.57 11.71 C1.21 7.77 0.7 3.89 0 0 Z " fill="#B37863" transform="translate(169,501)"/>
<path d="M0 0 C1.88 0.25 1.88 0.25 4 1 C5.92 4.02 6.35 6.71 6.62 10.25 C6.7 11.14 6.77 12.03 6.85 12.95 C6.9 13.63 6.95 14.3 7 15 C5.02 14.34 3.04 13.68 1 13 C1.01 12.31 1.02 11.63 1.04 10.92 C1.04 10.02 1.05 9.12 1.06 8.19 C1.07 7.29 1.09 6.4 1.1 5.48 C1.11 2.87 1.11 2.87 0 0 Z " fill="#E6A384" transform="translate(135,524)"/>
<path d="M0 0 C0.66 0 1.32 0 2 0 C2.09 7.42 2.17 14.66 1 22 C0.34 22 -0.32 22 -1 22 C-1.03 19.08 -1.05 16.17 -1.06 13.25 C-1.07 12.43 -1.08 11.6 -1.09 10.75 C-1.09 9.95 -1.09 9.15 -1.1 8.33 C-1.1 7.59 -1.11 6.86 -1.11 6.11 C-1 3.95 -0.59 2.07 0 0 Z " fill="#9B3716" transform="translate(67,389)"/>
<path d="M0 0 C0.33 0 0.66 0 1 0 C1 10.89 1 21.78 1 33 C0.34 33 -0.32 33 -1 33 C-0.98 31.57 -0.98 31.57 -0.96 30.11 C-0.96 28.86 -0.95 27.6 -0.94 26.31 C-0.93 25.07 -0.91 23.83 -0.9 22.55 C-0.88 19.15 -0.88 19.15 -1.56 16.5 C-2.16 13.07 -1.61 10.12 -1.06 6.69 C-0.87 5.43 -0.67 4.18 -0.47 2.89 C-0.32 1.93 -0.16 0.98 0 0 Z " fill="#81726F" transform="translate(150,544)"/>
<path d="M0 0 C0.78 -0.01 1.56 -0.03 2.37 -0.04 C4.56 0.19 4.56 0.19 7.56 2.19 C7.56 3.18 7.56 4.17 7.56 5.19 C-1.85 4.22 -1.85 4.22 -6.44 3.19 C-6.44 2.53 -6.44 1.87 -6.44 1.19 C-4.1 0.02 -2.6 0.02 0 0 Z " fill="#352F2D" transform="translate(107.4375,61.8125)"/>
<path d="M0 0 C0.33 0 0.66 0 1 0 C1.23 3.94 1.43 7.87 1.62 11.81 C1.69 12.93 1.75 14.05 1.82 15.21 C1.87 16.28 1.92 17.35 1.98 18.46 C2.03 19.45 2.08 20.44 2.14 21.46 C2 24 2 24 0 27 C-1.65 26.67 -3.3 26.34 -5 26 C-5 25.34 -5 24.68 -5 24 C-4.34 24 -3.68 24 -3 24 C-3 23.34 -3 22.68 -3 22 C-2.34 22 -1.68 22 -1 22 C-0.67 14.74 -0.34 7.48 0 0 Z " fill="#B2B2AA" transform="translate(104,134)"/>
<path d="M0 0 C0.33 0.99 0.66 1.98 1 3 C-7.43 5.29 -7.43 5.29 -12 5 C-12 3.68 -12 2.36 -12 1 C-8.02 -0.33 -4.15 -0.07 0 0 Z " fill="#362E2C" transform="translate(148,63)"/>
<path d="M0 0 C0.99 0 1.98 0 3 0 C2.67 6.93 2.34 13.86 2 21 C1.67 21 1.34 21 1 21 C1 17.37 1 13.74 1 10 C0.01 10 -0.98 10 -2 10 C-2.33 10.66 -2.66 11.32 -3 12 C-2.4 7.81 -1.43 3.99 0 0 Z " fill="#AD6B56" transform="translate(56,521)"/>
<path d="M0 0 C2.69 2.69 3.06 5.38 4 9 C0.37 9.66 -3.26 10.32 -7 11 C-6.67 9.68 -6.34 8.36 -6 7 C-5.38 6.96 -4.76 6.92 -4.12 6.88 C-3.42 6.59 -2.72 6.3 -2 6 C-0.7 3 -0.7 3 0 0 Z " fill="#95857F" transform="translate(156,522)"/>
<path d="M0 0 C0.99 0 1.98 0 3 0 C3.18 5.22 2.97 9.07 1 14 C0.67 13.01 0.34 12.02 0 11 C-0.66 11 -1.32 11 -2 11 C-1.86 9.35 -1.71 7.71 -1.56 6.06 C-1.48 5.15 -1.4 4.23 -1.32 3.29 C-1 1 -1 1 0 0 Z " fill="#EAA788" transform="translate(121,522)"/>
<path d="M0 0 C3.59 5.38 2.33 12.52 1.5 18.75 C1.34 19.49 1.17 20.24 1 21 C0.67 21 0.34 21 0 21 C-1.81 14.21 -1.44 6.82 0 0 Z " fill="#9E3716" transform="translate(61,459)"/>
<path d="M0 0 C0.66 0 1.32 0 2 0 C2.03 0.66 2.05 1.33 2.08 2.01 C2.43 7.54 2.83 10.97 7 15 C6.36 15.12 5.72 15.25 5.06 15.38 C4.38 15.58 3.7 15.79 3 16 C2.67 16.66 2.34 17.32 2 18 C0.68 14.7 -0.64 11.4 -2 8 C-1.01 8 -0.02 8 1 8 C0.67 5.36 0.34 2.72 0 0 Z " fill="#CEC7BE" transform="translate(101,114)"/>
<path d="M0 0 C0 0.99 0 1.98 0 3 C-0.6 3.05 -1.21 3.1 -1.83 3.15 C-2.63 3.22 -3.43 3.3 -4.25 3.38 C-5.04 3.44 -5.83 3.51 -6.64 3.59 C-9.09 4.02 -10.85 4.79 -13 6 C-12.14 3.29 -11.55 1.45 -9.31 -0.38 C-6.03 -1.26 -3.3 -0.63 0 0 Z " fill="#E8C0AD" transform="translate(84,64)"/>
<path d="M0 0 C3 1 3 1 3.98 2.79 C5.86 8.36 6.16 12.22 5 18 C3.31 14.89 2.29 11.85 1.38 8.44 C1.11 7.49 0.85 6.54 0.59 5.56 C0 3 0 3 0 0 Z " fill="#3B3836" transform="translate(79,419)"/>
<path d="M0 0 C1.88 1.56 1.88 1.56 3 3 C-1.08 4.53 -4.79 3.63 -9 3 C-9 2.01 -9 1.02 -9 0 C-5.45 -1.18 -3.6 -0.9 0 0 Z " fill="#D6A08A" transform="translate(176,64)"/>
<path d="M0 0 C0.66 0 1.32 0 2 0 C2 2.64 2 5.28 2 8 C4.97 8.33 7.94 8.66 11 9 C11 9.33 11 9.66 11 10 C9.19 10.03 7.38 10.05 5.56 10.06 C4.55 10.07 3.54 10.09 2.5 10.1 C0 10 0 10 -1 9 C-1.13 7.19 -1.13 7.19 -1.12 5 C-1.13 4.28 -1.13 3.56 -1.13 2.81 C-1 1 -1 1 0 0 Z " fill="#A25136" transform="translate(180,585)"/>
<path d="M0 0 C0.66 0.33 1.32 0.66 2 1 C1.69 2.46 1.38 3.92 1.06 5.38 C0.89 6.19 0.71 7 0.54 7.84 C0 10 0 10 -1 12 C-1.22 13.54 -1.41 15.08 -1.56 16.62 C-1.65 17.44 -1.73 18.26 -1.82 19.1 C-1.88 19.73 -1.94 20.35 -2 21 C-2.33 21 -2.66 21 -3 21 C-3.26 14.12 -2.84 7.67 -1 1 C-0.67 0.67 -0.34 0.34 0 0 Z " fill="#5C5C5C" transform="translate(198,320)"/>
<path d="M0 0 C0.33 0 0.66 0 1 0 C1.44 8.67 1.44 8.67 -2 13 C-2.99 13.66 -3.98 14.32 -5 15 C-5.33 12.69 -5.66 10.38 -6 8 C-4.68 8.33 -3.36 8.66 -2 9 C-1.34 6.03 -0.68 3.06 0 0 Z " fill="#C08A78" transform="translate(179,69)"/>
<path d="M0 0 C0.33 0 0.66 0 1 0 C1 4.29 1 8.58 1 13 C-0.32 11.68 -1.64 10.36 -3 9 C-2.79 2.79 -2.79 2.79 0 0 Z " fill="#A04F36" transform="translate(162,506)"/>
<path d="M0 0 C0.33 0 0.66 0 1 0 C2.17 4.55 2.54 9.33 2 14 C1.34 14.66 0.68 15.32 0 16 C-1.18 12.45 -0.89 10.02 -0.56 6.31 C-0.46 5.13 -0.36 3.95 -0.25 2.74 C-0.17 1.83 -0.09 0.93 0 0 Z " fill="#B7AEB9" transform="translate(118,517)"/>
<path d="M0 0 C-0.33 6.93 -0.66 13.86 -1 21 C-1.33 21 -1.66 21 -2 21 C-2.33 14.4 -2.66 7.8 -3 1 C-1 0 -1 0 0 0 Z " fill="#AE7D70" transform="translate(63,474)"/>
<path d="M0 0 C1.13 3.38 0.82 4.77 0.06 8.19 C-0.13 9.09 -0.33 9.99 -0.53 10.92 C-0.68 11.61 -0.84 12.29 -1 13 C-1.99 13.33 -2.98 13.66 -4 14 C-4.73 16.02 -4.73 16.02 -5 18 C-5.66 17.67 -6.32 17.34 -7 17 C-7 15.35 -7 13.7 -7 12 C-5.35 12 -3.7 12 -2 12 C-2.04 10.76 -2.08 9.53 -2.12 8.25 C-2.14 4.98 -1.86 2.79 0 0 Z " fill="#454240" transform="translate(85,118)"/>
<path d="M0 0 C-0.33 0.99 -0.66 1.98 -1 3 C-3.64 3.33 -6.28 3.66 -9 4 C-8.67 2.68 -8.34 1.36 -8 0 C-4.95 -0.98 -3.05 -0.98 0 0 Z " fill="#71A0BD" transform="translate(158,532)"/>
<path d="M0 0 C0.33 0 0.66 0 1 0 C1.14 1.07 1.29 2.14 1.44 3.25 C1.87 6.78 1.87 6.78 2.69 9.25 C3 11 3 11 1 14 C0.61 15.99 0.27 17.99 0 20 C-0.33 20 -0.66 20 -1 20 C-0.67 13.4 -0.34 6.8 0 0 Z " fill="#C28060" transform="translate(49,371)"/>
<path d="M0 0 C0.33 0 0.66 0 1 0 C1.33 6.27 1.66 12.54 2 19 C1.01 18.34 0.02 17.68 -1 17 C-1.06 14.03 -0.96 11.31 -0.69 8.38 C-0.63 7.57 -0.57 6.77 -0.5 5.95 C-0.35 3.96 -0.18 1.98 0 0 Z " fill="#A7766A" transform="translate(192,548)"/>
<path d="M0 0 C3.36 1.12 4.69 2.37 7 5 C7 5.66 7 6.32 7 7 C6.05 6.79 5.1 6.59 4.12 6.38 C2.58 6.19 2.58 6.19 1 6 C0.34 6.66 -0.32 7.32 -1 8 C-0.67 5.36 -0.34 2.72 0 0 Z " fill="#747574" transform="translate(48,300)"/>
<path d="M0 0 C0.66 0 1.32 0 2 0 C1.67 1.98 1.34 3.96 1 6 C0.34 5.67 -0.32 5.34 -1 5 C-1.66 7.97 -2.32 10.94 -3 14 C-3.33 14 -3.66 14 -4 14 C-4.12 6.38 -4.12 6.38 -3 3 C-2.34 3 -1.68 3 -1 3 C-0.67 2.01 -0.34 1.02 0 0 Z " fill="#C06A43" transform="translate(48,421)"/>
<path d="M0 0 C-3.47 2.97 -3.47 2.97 -7 6 C-7.66 5.67 -8.32 5.34 -9 5 C-8 2.51 -7.31 1.21 -5.06 -0.31 C-3 -1 -3 -1 0 0 Z " fill="#4A423E" transform="translate(106,9)"/>
<path d="M0 0 C2.87 0.57 3.86 0.86 6 3 C4.3 3.43 4.3 3.43 2.56 3.88 C1.39 4.25 0.21 4.62 -1 5 C-1.33 5.66 -1.66 6.32 -2 7 C-2.66 6.67 -3.32 6.34 -4 6 C-2.68 4.02 -1.36 2.04 0 0 Z " fill="#C4C1BC" transform="translate(91,118)"/>
<path d="M0 0 C0.33 0 0.66 0 1 0 C1 3.96 1 7.92 1 12 C0.67 11.34 0.34 10.68 0 10 C-0.66 10 -1.32 10 -2 10 C-1.33 6.67 -0.67 3.33 0 0 Z " fill="#A56857" transform="translate(195,581)"/>
<path d="M0 0 C1.56 1 1.56 1 3 3 C2.97 5.77 2.49 8.26 2 11 C-0.33 7.37 -0.16 4.23 0 0 Z " fill="#322C2A" transform="translate(77,407)"/>
<path d="M0 0 C0.33 0.66 0.66 1.32 1 2 C1.99 2.33 2.98 2.66 4 3 C3.67 5.31 3.34 7.62 3 10 C0.7 6.56 0.46 4.06 0 0 Z " fill="#514B49" transform="translate(72,393)"/>
<path d="M0 0 C0.33 1.32 0.66 2.64 1 4 C-2.47 5.49 -2.47 5.49 -6 7 C-6 6.01 -6 5.02 -6 4 C-3 1.81 -3 1.81 0 0 Z " fill="#827D7A" transform="translate(223,287)"/>
<path d="M0 0 C0.66 0 1.32 0 2 0 C2.05 1.6 2.09 3.21 2.12 4.81 C2.15 5.71 2.17 6.6 2.2 7.52 C2 10 2 10 0 13 C-0.66 11.35 -1.32 9.7 -2 8 C-1.01 8 -0.02 8 1 8 C0.67 5.36 0.34 2.72 0 0 Z " fill="#BAA99F" transform="translate(101,114)"/>
<path d="M0 0 C1.64 0.09 1.64 0.09 3.31 0.19 C3.31 0.85 3.31 1.51 3.31 2.19 C0.01 2.52 -3.29 2.85 -6.69 3.19 C-3.69 0.19 -3.69 0.19 0 0 Z " fill="#6B6563" transform="translate(97.6875,105.8125)"/>
<path d="M0 0 C0 0.99 0 1.98 0 3 C-3 5 -3 5 -5.19 4.62 C-5.79 4.42 -6.38 4.21 -7 4 C-2.25 0 -2.25 0 0 0 Z " fill="#83817F" transform="translate(91,109)"/>
<path d="M0 0 C0.66 0 1.32 0 2 0 C3.35 2.71 3.07 5.01 3 8 C2.34 7.67 1.68 7.34 1 7 C0.59 4.68 0.26 2.34 0 0 Z " fill="#373636" transform="translate(84,437)"/>
<path d="M0 0 C0.66 0.33 1.32 0.66 2 1 C1.67 2.65 1.34 4.3 1 6 C0.01 6 -0.98 6 -2 6 C-2 4.68 -2 3.36 -2 2 C-1.34 2 -0.68 2 0 2 C0 1.34 0 0.68 0 0 Z " fill="#DAD6D0" transform="translate(79,135)"/>
</svg>
