<?xml version="1.0" encoding="UTF-8"?>
<!-- Generator: visioncortex VTracer 0.6.3 -->
<svg version="1.1" xmlns="http://www.w3.org/2000/svg" width="518" height="174">
<path d="M0 0 C3.22 1.37 6.11 3.04 9 5 C9.58 4.53 10.16 4.05 10.75 3.56 C16.31 -0.3 23.5 0.56 30 1 C35.31 2.71 37.76 5.64 41 10 C42.61 13.23 42.12 16.75 42.1 20.29 C42.1 21.11 42.09 21.93 42.09 22.77 C42.09 25.39 42.08 28.01 42.06 30.62 C42.06 32.4 42.05 34.17 42.05 35.95 C42.04 40.3 42.02 44.65 42 49 C38.37 49 34.74 49 31 49 C31.03 48.03 31.05 47.05 31.08 46.05 C31.17 42.43 31.23 38.8 31.27 35.18 C31.3 33.61 31.33 32.04 31.38 30.48 C31.44 28.22 31.47 25.96 31.49 23.71 C31.51 23.01 31.54 22.31 31.57 21.6 C31.57 17.7 31.12 16.14 28.62 13.08 C25.8 10.84 24.58 10 21 10 C17.22 10.98 17.22 10.98 14 13 C12.75 16.9 12.93 20.75 13 24.81 C13.06 32.91 12.59 40.93 12 49 C8.7 49 5.4 49 2 49 C0.83 45.48 0.9 42.74 0.94 39.03 C0.94 38.35 0.95 37.68 0.95 36.98 C0.97 34.09 0.99 31.2 1.02 28.31 C1.04 26.19 1.05 24.08 1.06 21.97 C1.07 20.7 1.09 19.44 1.1 18.14 C1.15 14.97 1.15 14.97 0 12 C-4.51 10.29 -7.42 9.39 -11.94 11.31 C-14.79 12.7 -14.79 12.7 -16 14 C-16.15 16.51 -16.23 18.99 -16.28 21.5 C-16.3 22.25 -16.32 23 -16.34 23.78 C-16.4 26.18 -16.45 28.59 -16.5 31 C-16.57 34.17 -16.64 37.33 -16.72 40.5 C-16.73 41.24 -16.75 41.97 -16.76 42.73 C-16.89 47.89 -16.89 47.89 -18 49 C-19.69 49.07 -21.38 49.08 -23.06 49.06 C-23.98 49.05 -24.9 49.04 -25.85 49.04 C-26.56 49.02 -27.27 49.01 -28 49 C-28.91 46.26 -29.13 44.64 -29.13 41.82 C-29.13 40.98 -29.14 40.14 -29.14 39.28 C-29.14 37.93 -29.14 37.93 -29.13 36.55 C-29.13 35.63 -29.13 34.7 -29.14 33.75 C-29.14 31.79 -29.13 29.84 -29.13 27.88 C-29.13 24.88 -29.13 21.88 -29.14 18.87 C-29.14 16.97 -29.13 15.08 -29.13 13.18 C-29.13 12.28 -29.14 11.37 -29.14 10.44 C-29.11 4.11 -29.11 4.11 -28 3 C-26.55 2.74 -25.09 2.54 -23.62 2.38 C-22.83 2.28 -22.04 2.18 -21.23 2.09 C-19 2 -19 2 -16 3 C-15.15 2.53 -14.31 2.05 -13.44 1.56 C-8.82 -0.54 -4.99 -0.84 0 0 Z " fill="#5C6FD1" transform="translate(213,70)"/>
<path d="M0 0 C0 3.3 0 6.6 0 10 C-3 10 -3 10 -5.12 9.12 C-12.84 6.1 -19.02 5.29 -26.81 8.5 C-29.8 9.69 -29.8 9.69 -31 11 C-31.32 13 -31.32 13 -31.38 15.31 C-31.42 16.09 -31.47 16.87 -31.52 17.68 C-31.16 20.19 -31.16 20.19 -29 22.17 C-25.28 24.44 -21.93 25.14 -17.69 25.94 C-9.65 27.65 -3.77 29.45 1.44 36.12 C4.14 41.1 4.79 45.43 4 51 C1.4 57.28 -3.14 62.04 -9.18 65.11 C-12.82 66.26 -16.28 66.38 -20.06 66.38 C-20.81 66.37 -21.56 66.37 -22.33 66.37 C-30.2 66.21 -37.4 64.4 -44 60 C-44.41 57.29 -44.13 54.76 -44 52 C-41.26 50.92 -40.15 50.95 -37.34 51.96 C-36.36 52.43 -35.38 52.89 -34.38 53.38 C-27.7 56.28 -21.16 58.5 -14.06 55.81 C-11.06 54.04 -9.51 53.11 -8 50 C-7.33 47.04 -7.33 47.04 -8 44 C-12.8 37.55 -19.7 36.28 -27.12 34.56 C-33.63 32.96 -37.89 30.87 -41.88 25.38 C-44.58 20.63 -45.15 16.33 -44 11 C-41.63 5.56 -37.9 0.76 -32.65 -2.12 C-21.56 -5.8 -10.61 -4.3 0 0 Z " fill="#5E76EC" transform="translate(147,54)"/>
<path d="M0 0 C5.28 3.79 9.3 8.38 11.26 14.62 C12.29 23.49 11.82 31.38 6.26 38.62 C3.78 40.98 1.21 42.89 -1.74 44.62 C-2.33 45 -2.93 45.37 -3.54 45.75 C-9.5 48.11 -17.63 47.46 -23.73 45.82 C-30.1 43.01 -33.81 38.89 -36.74 32.62 C-37.8 29.63 -38.38 26.78 -38.74 23.62 C-38.84 22.89 -38.95 22.16 -39.06 21.41 C-39.61 14.61 -36.82 9.91 -32.74 4.62 C-23.99 -4.87 -11.23 -6.37 0 0 Z M-24.61 11.06 C-28.02 15.17 -28.03 19.19 -27.95 24.38 C-27.52 28.91 -25.65 31.72 -22.49 34.88 C-19.1 37.03 -16.75 38.09 -12.74 38.62 C-8.6 37.68 -5.03 36.22 -2.31 32.86 C-1.08 30.79 -1.08 30.79 0.26 27.62 C0.59 26.97 0.92 26.31 1.26 25.62 C1.69 20.16 0.9 16.44 -1.74 11.62 C-8.88 4.07 -16.91 4.53 -24.61 11.06 Z " fill="#5F76E8" transform="translate(302.73828125,73.375)"/>
<path d="M0 0 C5.09 2.23 8.39 5.3 10.75 10.34 C12.39 18.35 11.87 26.84 11.82 34.97 C11.81 36.26 11.81 37.55 11.8 38.88 C11.79 42.03 11.77 45.19 11.75 48.34 C8.12 48.34 4.49 48.34 0.75 48.34 C0.75 47.37 0.75 46.4 0.74 45.39 C0.72 41.77 0.67 38.14 0.6 34.52 C0.58 32.95 0.56 31.39 0.56 29.82 C0.55 27.56 0.51 25.31 0.46 23.05 C0.46 22.35 0.47 21.66 0.47 20.94 C0.36 17.07 -0.15 15.46 -2.65 12.43 C-5.49 10.15 -6.61 9.26 -10.25 9.34 C-11.66 9.96 -13.05 10.64 -14.41 11.35 C-15.13 11.72 -15.85 12.09 -16.59 12.47 C-17.14 12.76 -17.68 13.05 -18.25 13.34 C-18.27 14.33 -18.3 15.32 -18.32 16.34 C-18.42 20.01 -18.52 23.67 -18.62 27.33 C-18.66 28.92 -18.7 30.51 -18.74 32.09 C-18.8 34.37 -18.86 36.65 -18.93 38.93 C-18.95 40 -18.95 40 -18.98 41.09 C-19.13 46.12 -19.13 46.12 -20.25 48.34 C-23.55 48.34 -26.85 48.34 -30.25 48.34 C-30.25 33.16 -30.25 17.98 -30.25 2.34 C-26.29 2.34 -22.33 2.34 -18.25 2.34 C-11.85 -0.73 -7.05 -2.06 0 0 Z " fill="#657DF4" transform="translate(354.24609375,70.65625)"/>
<path d="M0 0 C0.29 2.92 0.51 5.15 0 8 C-3.03 10.8 -5.83 11.94 -9.7 13.34 C-14.1 14.97 -18.21 17.03 -22.38 19.19 C-29.73 23 -29.73 23 -32 23 C-32 23.66 -32 24.32 -32 25 C-30.82 25.34 -30.82 25.34 -29.62 25.69 C-24.87 27.41 -20.5 29.7 -16 32 C-13.13 33.44 -10.25 34.88 -7.38 36.31 C-5.97 37.02 -4.56 37.72 -3.15 38.43 C-1.59 39.21 -1.59 39.21 0 40 C0 42.64 0 45.28 0 48 C-0.99 48.5 -0.99 48.5 -2 49 C-4.39 48.07 -6.68 47.08 -9 46 C-10.49 45.34 -11.97 44.68 -13.46 44.02 C-21.9 40.24 -30.32 36.42 -38.69 32.5 C-39.77 31.99 -39.77 31.99 -40.88 31.48 C-45.88 29.12 -45.88 29.12 -47 28 C-47.47 22.2 -47.47 22.2 -47 20 C-44.2 17.33 -40.88 15.89 -37.38 14.31 C-36.23 13.8 -35.09 13.28 -33.92 12.75 C-31.09 11.48 -28.26 10.23 -25.43 8.97 C-24.64 8.62 -23.86 8.28 -23.05 7.92 C-21.51 7.24 -19.98 6.56 -18.44 5.89 C-17.72 5.57 -17 5.26 -16.26 4.93 C-15.2 4.46 -15.2 4.46 -14.12 3.99 C-11.29 2.67 -8.56 1.17 -5.84 -0.36 C-3.54 -1.16 -2.27 -0.78 0 0 Z " fill="#5D73E6" transform="translate(98,67)"/>
<path d="M0 0 C0.91 0.31 1.81 0.62 2.75 0.94 C5.17 1.73 7.53 2.43 10 3 C10 3.66 10 4.32 10 5 C10.74 5.13 11.47 5.27 12.23 5.4 C22.4 7.6 31.81 13.31 41 18 C42.33 18.67 43.67 19.34 45 20 C45.29 23.38 45.41 26.63 45 30 C43.12 31.88 43.12 31.88 40 33 C30.97 36.39 22.31 40.55 13.64 44.74 C11.79 45.63 9.93 46.52 8.07 47.39 C6.97 47.92 5.88 48.44 4.75 48.98 C2 50 2 50 -1 49 C-1.69 43.91 -1.69 43.91 -1 41 C3.88 36.43 11.2 33.92 17.25 31.25 C18.13 30.85 19.02 30.45 19.93 30.04 C23.6 28.41 27.07 26.87 31 26 C31 25.34 31 24.68 31 24 C30.18 23.75 29.35 23.5 28.5 23.25 C25.94 22.33 23.74 21.42 21.34 20.19 C16.94 17.95 12.48 15.84 8 13.75 C6.84 13.2 6.84 13.2 5.65 12.65 C3.77 11.76 1.88 10.88 0 10 C0 6.7 0 3.4 0 0 Z " fill="#607AF8" transform="translate(451,66)"/>
<path d="M0 0 C-0.5 5.68 -2.08 9.75 -4.75 14.75 C-5.49 16.17 -6.22 17.6 -6.95 19.02 C-7.31 19.71 -7.66 20.39 -8.03 21.1 C-10.53 26 -12.7 31.06 -14.92 36.09 C-15.61 37.65 -16.31 39.22 -17 40.79 C-17.69 42.34 -18.37 43.9 -19.06 45.46 C-20.9 49.62 -22.84 53.72 -24.9 57.78 C-26.21 60.43 -27.47 63.1 -28.73 65.78 C-29.2 66.78 -29.68 67.79 -30.16 68.83 C-31.15 70.93 -32.13 73.03 -33.11 75.13 C-33.58 76.13 -34.05 77.12 -34.54 78.15 C-34.96 79.06 -35.39 79.97 -35.83 80.9 C-37 83 -37 83 -39 84 C-41.67 84.13 -44.32 84.04 -47 84 C-46.33 79.13 -44.39 74.99 -42.38 70.56 C-42.02 69.77 -41.66 68.97 -41.29 68.15 C-38.55 62.09 -35.6 56.16 -32.58 50.23 C-30.63 46.25 -28.98 42.18 -27.32 38.07 C-25.83 34.6 -24.15 31.24 -22.44 27.88 C-20.02 23.12 -17.89 18.37 -15.96 13.39 C-14.88 10.69 -13.69 8.07 -12.44 5.44 C-12.04 4.61 -11.65 3.78 -11.25 2.93 C-8.67 -1.06 -4.28 -0.08 0 0 Z " fill="#5F79F1" transform="translate(448,46)"/>
<path d="M0 0 C1.37 0.02 1.37 0.02 2.78 0.04 C3.7 0.04 4.62 0.05 5.56 0.06 C6.27 0.07 6.98 0.09 7.71 0.1 C8.86 4.2 8.86 8.17 8.85 12.41 C8.85 13.21 8.85 14.01 8.85 14.84 C8.85 16.54 8.85 18.24 8.85 19.93 C8.84 22.52 8.85 25.11 8.85 27.7 C8.85 29.35 8.85 31 8.85 32.66 C8.85 33.43 8.85 34.2 8.85 34.99 C8.84 38.91 8.49 42.22 7.71 46.1 C4.08 46.1 0.45 46.1 -3.29 46.1 C-3.31 39.71 -3.33 33.32 -3.34 26.93 C-3.35 24.75 -3.35 22.57 -3.36 20.4 C-3.37 17.28 -3.38 14.16 -3.38 11.04 C-3.39 10.06 -3.39 9.08 -3.4 8.07 C-3.4 7.17 -3.4 6.27 -3.4 5.34 C-3.4 4.54 -3.4 3.75 -3.41 2.93 C-3.22 0.15 -2.78 0.12 0 0 Z " fill="#5462AD" transform="translate(163.28515625,72.90234375)"/>
<path d="M0 0 C3.63 0.33 7.26 0.66 11 1 C12.32 0.67 13.64 0.34 15 0 C16 3 16 3 15 6 C13.27 6.86 13.27 6.86 11.51 7.73 C9.58 8.7 9.58 8.7 8 10 C6.87 13.43 6.87 13.43 6.91 17.36 C6.88 18.06 6.85 18.76 6.82 19.48 C6.72 21.72 6.67 23.95 6.62 26.19 C6.55 28.43 6.46 30.68 6.37 32.92 C6.29 34.95 6.24 36.98 6.19 39.01 C6 42 6 42 5 43 C3.35 43 1.7 43 0 43 C0 28.81 0 14.62 0 0 Z " fill="#627BF8" transform="translate(326,75)"/>
<path d="M0 0 C1.98 0 3.96 0 6 0 C6 14.19 6 28.38 6 43 C4.02 43 2.04 43 0 43 C-0.17 37.04 -0.33 31.07 -0.48 25.11 C-0.54 23.08 -0.59 21.05 -0.65 19.02 C-0.73 16.11 -0.81 13.2 -0.88 10.29 C-0.91 9.37 -0.93 8.46 -0.96 7.52 C-1.01 5.35 -1.01 3.17 -1 1 C-0.67 0.67 -0.34 0.34 0 0 Z " fill="#5F7BFD" transform="translate(163,74)"/>
<path d="M0 0 C0.91 0.31 1.81 0.62 2.75 0.94 C5.17 1.73 7.53 2.43 10 3 C10 3.66 10 4.32 10 5 C10.72 5.13 11.44 5.25 12.18 5.38 C14.97 5.99 17.47 6.83 20.12 7.88 C20.97 8.2 21.82 8.53 22.7 8.87 C24.98 9.99 26.34 11.1 28 13 C20.38 12.12 20.38 12.12 17 11 C17.61 13.76 18.31 15.52 20.67 17.16 C22.79 18.29 24.94 19.32 27.12 20.31 C27.88 20.67 28.63 21.03 29.41 21.4 C31.27 22.28 33.13 23.14 35 24 C35 24.66 35 25.32 35 26 C33.09 27.04 31.17 28.05 29.25 29.06 C28.18 29.63 27.12 30.2 26.02 30.79 C22.97 32.01 21.95 32.25 19 31 C20.62 30.16 22.25 29.33 23.88 28.5 C24.78 28.04 25.68 27.57 26.62 27.09 C29 26 29 26 31 26 C31 25.34 31 24.68 31 24 C30.18 23.75 29.35 23.5 28.5 23.25 C25.94 22.33 23.74 21.42 21.34 20.19 C16.94 17.95 12.48 15.84 8 13.75 C6.84 13.2 6.84 13.2 5.65 12.65 C3.77 11.76 1.88 10.88 0 10 C0 6.7 0 3.4 0 0 Z " fill="#485DB9" transform="translate(451,66)"/>
<path d="M0 0 C2.44 0.38 2.44 0.38 5 1 C6.59 4.17 6.12 7.59 6.1 11.07 C6.1 11.87 6.09 12.66 6.09 13.48 C6.09 16.03 6.08 18.58 6.06 21.12 C6.06 22.85 6.05 24.58 6.05 26.3 C6.04 30.53 6.02 34.77 6 39 C4.02 39 2.04 39 0 39 C-0.17 33.77 -0.33 28.53 -0.48 23.3 C-0.54 21.52 -0.59 19.74 -0.65 17.96 C-0.73 15.4 -0.81 12.85 -0.88 10.29 C-0.91 9.49 -0.93 8.69 -0.96 7.87 C-1.11 2.23 -1.11 2.23 0 0 Z " fill="#5F7BFD" transform="translate(217,78)"/>
<path d="M0 0 C-0.33 0.66 -0.66 1.32 -1 2 C2.3 2.66 5.6 3.32 9 4 C4.24 7.57 -0.67 9.8 -6.06 12.25 C-7.07 12.72 -8.07 13.19 -9.11 13.68 C-10.08 14.12 -11.04 14.56 -12.04 15.02 C-12.92 15.42 -13.8 15.83 -14.7 16.24 C-17 17 -17 17 -20 16 C-20.69 10.92 -20.69 10.92 -20 8 C-17.69 5.63 -14.97 4.38 -12 3 C-11.2 2.6 -10.4 2.19 -9.57 1.77 C-3.48 -1.16 -3.48 -1.16 0 0 Z " fill="#5F7AF5" transform="translate(470,99)"/>
<path d="M0 0 C0.99 0.33 1.98 0.66 3 1 C4.19 4.03 4.1 7.02 4.06 10.25 C4.05 11.14 4.04 12.03 4.04 12.95 C4.02 13.63 4.01 14.3 4 15 C4.66 15 5.32 15 6 15 C6 23.91 6 32.82 6 42 C3.03 42.5 3.03 42.5 0 43 C0 28.81 0 14.62 0 0 Z " fill="#5E7BFD" transform="translate(187,75)"/>
<path d="M0 0 C0.99 0 1.98 0 3 0 C3 0.99 3 1.98 3 3 C3.66 3 4.32 3 5 3 C5 14.22 5 25.44 5 37 C3.35 37 1.7 37 0 37 C-0.33 35.35 -0.66 33.7 -1 32 C-0.34 32 0.32 32 1 32 C0.34 31.67 -0.32 31.34 -1 31 C-1.23 26.58 -1.43 22.17 -1.62 17.75 C-1.69 16.5 -1.75 15.24 -1.82 13.95 C-1.87 12.74 -1.92 11.54 -1.98 10.3 C-2.03 9.19 -2.08 8.08 -2.14 6.93 C-2 4.01 -1.53 2.45 0 0 Z " fill="#607BFC" transform="translate(248,81)"/>
<path d="M0 0 C2.89 2.61 4.37 4.17 5 8 C5.08 10.32 5.11 12.64 5.1 14.95 C5.1 15.61 5.09 16.27 5.09 16.95 C5.09 19.05 5.08 21.15 5.06 23.25 C5.06 24.68 5.05 26.1 5.05 27.53 C5.04 31.02 5.02 34.51 5 38 C3.02 38 1.04 38 -1 38 C-1.33 27.44 -1.66 16.88 -2 6 C-1.34 6 -0.68 6 0 6 C0 4.02 0 2.04 0 0 Z " fill="#5E7CFD" transform="translate(358,79)"/>
<path d="M0 0 C1 1 1 1 1.1 2.85 C1.07 4.9 1.03 6.95 1 9 C-2.88 8.12 -2.88 8.12 -4 7 C-12.21 5.52 -20.7 5.9 -29 6 C-29.33 5.01 -29.66 4.02 -30 3 C-29.01 2.67 -28.02 2.34 -27 2 C-27 1.34 -27 0.68 -27 0 C-17.4 -2.35 -9.44 -4.18 0 0 Z " fill="#627AF2" transform="translate(145,53)"/>
<path d="M0 0 C0.66 0 1.32 0 2 0 C2 14.85 2 29.7 2 45 C4.48 44.5 4.48 44.5 7 44 C7.05 43.04 7.1 42.07 7.15 41.08 C7.34 37.51 7.54 33.95 7.74 30.38 C7.83 28.84 7.91 27.29 7.99 25.75 C8.11 23.53 8.24 21.31 8.37 19.1 C8.4 18.4 8.43 17.71 8.47 16.99 C8.57 15.32 8.78 13.66 9 12 C9.66 11.67 10.32 11.34 11 11 C11.02 15.66 11.04 20.33 11.05 24.99 C11.06 26.58 11.07 28.16 11.08 29.75 C11.09 32.03 11.09 34.31 11.1 36.59 C11.1 37.3 11.11 38.01 11.11 38.74 C11.11 43.77 11.11 43.77 10 46 C6.7 46 3.4 46 0 46 C0 30.82 0 15.64 0 0 Z " fill="#3C4FA7" transform="translate(324,73)"/>
<path d="M0 0 C1.65 0 3.3 0 5 0 C5 0.99 5 1.98 5 3 C4.36 3.47 3.72 3.95 3.06 4.44 C0.65 6.27 0.56 7.13 0 10 C-2.4 10.05 -4.79 10.09 -7.19 10.12 C-8.2 10.15 -8.2 10.15 -9.23 10.18 C-13.29 10.22 -16.35 9.8 -20 8 C-20 7.34 -20 6.68 -20 6 C-20.66 5.34 -21.32 4.68 -22 4 C-18.38 1 -18.38 1 -15 1 C-15 1.66 -15 2.32 -15 3 C-14.34 2.67 -13.68 2.34 -13 2 C-10.96 1.93 -8.92 1.92 -6.88 1.94 C-5.78 1.95 -4.68 1.96 -3.55 1.96 C-2.71 1.98 -1.87 1.99 -1 2 C-0.67 1.34 -0.34 0.68 0 0 Z " fill="#617BFA" transform="translate(297,110)"/>
<path d="M0 0 C5.75 1.88 5.75 1.88 8 3 C7.84 3.71 7.67 4.41 7.51 5.14 C6.99 8.08 6.89 10.76 6.9 13.74 C6.91 14.8 6.91 15.87 6.91 16.97 C6.92 18.07 6.93 19.18 6.94 20.31 C6.94 21.43 6.95 22.56 6.95 23.71 C6.96 26.48 6.98 29.24 7 32 C7.99 32.33 8.98 32.66 10 33 C9.01 33.5 9.01 33.5 8 34 C8 34.99 8 35.98 8 37 C9.65 37.33 11.3 37.66 13 38 C13.33 26.45 13.66 14.9 14 3 C14.33 3 14.66 3 15 3 C15 14.88 15 26.76 15 39 C11.37 39 7.74 39 4 39 C4.02 38.03 4.04 37.06 4.06 36.07 C4.14 32.45 4.18 28.84 4.22 25.23 C4.24 23.67 4.27 22.11 4.3 20.55 C4.35 18.3 4.37 16.05 4.39 13.8 C4.41 13.11 4.43 12.42 4.45 11.71 C4.46 6.48 3.12 3.97 0 0 Z " fill="#5162AA" transform="translate(240,80)"/>
<path d="M0 0 C2.56 2.06 2.56 2.06 5 5 C4.93 9.02 4.88 11.12 2 14 C-3.18 14.67 -3.18 14.67 -6 14 C-8.5 11 -8.5 11 -10 8 C-8.94 5.12 -8.94 5.12 -7 2 C-3.31 0.62 -3.31 0.62 0 0 Z " fill="#627AEF" transform="translate(168,48)"/>
<path d="M0 0 C1.32 0.33 2.64 0.66 4 1 C4 2.98 4 4.96 4 7 C3.34 7 2.68 7 2 7 C2.33 7.99 2.66 8.98 3 10 C3.08 12.21 3.11 14.42 3.1 16.64 C3.09 17.94 3.09 19.23 3.09 20.57 C3.08 21.94 3.07 23.32 3.06 24.69 C3.06 26.07 3.05 27.45 3.05 28.84 C3.04 32.23 3.02 35.61 3 39 C4.98 39 6.96 39 9 39 C9 31.41 9 23.82 9 16 C9.33 16 9.66 16 10 16 C10 24.25 10 32.5 10 41 C7.03 41 4.06 41 1 41 C0.99 40.03 0.98 39.06 0.97 38.07 C0.93 34.45 0.87 30.84 0.79 27.23 C0.76 25.67 0.74 24.11 0.73 22.55 C0.71 20.3 0.66 18.05 0.61 15.8 C0.61 15.11 0.61 14.42 0.61 13.71 C0.45 8.54 -0.91 5.95 -4 2 C-3.01 2.33 -2.02 2.66 -1 3 C-0.67 2.01 -0.34 1.02 0 0 Z " fill="#5C74E1" transform="translate(354,78)"/>
<path d="M0 0 C1.26 2.52 0.92 3.85 0.56 6.62 C0.46 7.44 0.36 8.26 0.25 9.1 C0.17 9.73 0.09 10.35 0 11 C-1.32 11.33 -2.64 11.66 -4 12 C-3.67 14.31 -3.34 16.62 -3 19 C-3.99 19 -4.98 19 -6 19 C-6.33 19.66 -6.66 20.32 -7 21 C-5.35 21 -3.7 21 -2 21 C-2 20.34 -2 19.68 -2 19 C-1.34 19 -0.68 19 0 19 C0 17.35 0 15.7 0 14 C0.66 14 1.32 14 2 14 C1.94 13.24 1.88 12.47 1.81 11.69 C2 9 2 9 3.38 7.19 C5 6 5 6 7 6 C6.4 10.51 4.63 13.86 2.44 17.81 C1.94 18.71 1.94 18.71 1.44 19.62 C0.63 21.09 -0.18 22.54 -1 24 C-3.97 24 -6.94 24 -10 24 C-9.33 18.86 -7.12 14.42 -5 9.75 C-4.45 8.51 -4.45 8.51 -3.88 7.24 C-1.14 1.14 -1.14 1.14 0 0 Z " fill="#5369C4" transform="translate(411,106)"/>
<path d="M0 0 C-0.5 5.63 -2.04 9.67 -4.69 14.62 C-5.41 16.02 -6.13 17.42 -6.86 18.82 C-7.22 19.52 -7.58 20.21 -7.95 20.93 C-10.46 25.87 -12.71 30.95 -15 36 C-16.19 32.57 -15.8 30.62 -14.56 27.25 C-14.28 26.45 -13.99 25.65 -13.69 24.83 C-13.46 24.22 -13.24 23.62 -13 23 C-12.34 23 -11.68 23 -11 23 C-10.34 19.04 -9.68 15.08 -9 11 C-7.35 10.67 -5.7 10.34 -4 10 C-3.67 7.69 -3.34 5.38 -3 3 C-4.32 3 -5.64 3 -7 3 C-7.66 4.32 -8.32 5.64 -9 7 C-9.99 7 -10.98 7 -12 7 C-11.49 4.83 -11 3 -10 1 C-6.53 -0.16 -3.64 -0.07 0 0 Z " fill="#6370C0" transform="translate(448,46)"/>
<path d="M0 0 C-4.62 3 -4.62 3 -8 3 C-8.33 4.65 -8.66 6.3 -9 8 C-6.54 9.23 -4.72 9.07 -2 9 C-3.31 11.63 -4.51 11.82 -7.19 12.94 C-10 14.13 -12.71 15.36 -15.44 16.75 C-18 18 -18 18 -20 18 C-20 18.66 -20 19.32 -20 20 C-18.68 20.66 -17.36 21.32 -16 22 C-20.75 21.12 -20.75 21.12 -23 20 C-23 19.34 -23 18.68 -23 18 C-21.02 17.34 -19.04 16.68 -17 16 C-17 15.34 -17 14.68 -17 14 C-15.68 14 -14.36 14 -13 14 C-13.33 13.01 -13.66 12.02 -14 11 C-13.67 10.67 -13.34 10.34 -13 10 C-13.66 9.67 -14.32 9.34 -15 9 C-15 8.34 -15 7.68 -15 7 C-16.32 7.33 -17.64 7.66 -19 8 C-16.35 4.86 -13.19 3.46 -9.5 1.75 C-8.36 1.21 -7.21 0.67 -6.03 0.11 C-3 -1 -3 -1 0 0 Z " fill="#4A62BD" transform="translate(86,72)"/>
<path d="M0 0 C7.75 -0.73 12.57 0.65 19 5 C19.58 4.53 20.16 4.05 20.75 3.56 C26.3 -0.3 33.51 0.55 40 1 C44.28 2.5 47.08 4.52 50 8 C50 8.66 50 9.32 50 10 C48.68 10 47.36 10 46 10 C46 9.01 46 8.02 46 7 C45.34 7 44.68 7 44 7 C44 6.34 44 5.68 44 5 C43.01 5 42.02 5 41 5 C41 4.34 41 3.68 41 3 C38.21 3.09 35.42 3.19 32.62 3.31 C31.83 3.34 31.04 3.36 30.22 3.38 C28.14 3.48 26.07 3.73 24 4 C23.01 5.48 23.01 5.48 22 7 C18.38 7.19 18.38 7.19 15 7 C14.67 6.34 14.34 5.68 14 5 C9.3 2.27 4.25 2.82 -1 3 C-0.67 2.01 -0.34 1.02 0 0 Z " fill="#586BC1" transform="translate(203,70)"/>
<path d="M0 0 C0.66 0.33 1.32 0.66 2 1 C2 4.96 2 8.92 2 13 C2.66 13 3.32 13 4 13 C4.33 13.99 4.66 14.98 5 16 C7 17.69 7 17.69 9 19 C8.34 19.99 7.68 20.98 7 22 C6.59 21.53 6.17 21.05 5.75 20.56 C3.82 18.84 2.52 18.43 0 18 C0 17.34 0 16.68 0 16 C-1.32 15.67 -2.64 15.34 -4 15 C-4.45 8.54 -3.59 5.39 0 0 Z " fill="#617AFB" transform="translate(109,59)"/>
<path d="M0 0 C0.91 0.31 1.81 0.62 2.75 0.94 C5.8 2.04 5.8 2.04 8.25 2.31 C10 3 10 3 11.31 5.38 C12 8 12 8 11 11 C9.54 11.03 8.08 11.05 6.62 11.06 C5.81 11.07 5 11.09 4.16 11.1 C2 11 2 11 0 10 C0 6.7 0 3.4 0 0 Z " fill="#637CF7" transform="translate(451,66)"/>
<path d="M0 0 C2.47 0.99 2.47 0.99 5 2 C5 3.32 5 4.64 5 6 C4.38 6.27 3.76 6.54 3.12 6.81 C0.7 7.96 0.7 7.96 -1 11 C-4.62 11.69 -4.62 11.69 -8 12 C-8.66 10.68 -9.32 9.36 -10 8 C-9.34 7.67 -8.68 7.34 -8 7 C-8 6.34 -8 5.68 -8 5 C-2.25 2 -2.25 2 0 2 C0 1.34 0 0.68 0 0 Z " fill="#637BF7" transform="translate(86,70)"/>
<path d="M0 0 C2.5 0.31 2.5 0.31 5 1 C5.33 1.66 5.66 2.32 6 3 C4.68 3.33 3.36 3.66 2 4 C2.11 6.45 2.11 6.45 3 9 C5.07 10.35 5.07 10.35 8 11 C9.24 11.37 10.47 11.74 11.75 12.12 C19.01 13.71 26.61 13.15 34 13 C30.29 15.47 27.36 15.38 23.06 15.38 C22.31 15.37 21.55 15.37 20.77 15.37 C12.85 15.22 5.64 13.43 -1 9 C-1.47 6.26 -1.18 3.8 -1 1 C-0.67 0.67 -0.34 0.34 0 0 Z " fill="#5363C6" transform="translate(104,105)"/>
<path d="M0 0 C5.88 1.88 5.88 1.88 7 3 C7.14 5.67 7.04 8.32 7 11 C6.01 11.5 6.01 11.5 5 12 C2.61 11.06 0.32 10.07 -2 9 C-3.31 8.43 -4.62 7.87 -5.94 7.31 C-6.95 6.88 -7.96 6.45 -9 6 C-5.06 4.85 -1.06 4.47 3 4 C3.33 4.66 3.66 5.32 4 6 C4 5.01 4 4.02 4 3 C2.68 2.67 1.36 2.34 0 2 C0 1.34 0 0.68 0 0 Z " fill="#536AD6" transform="translate(91,104)"/>
<path d="M0 0 C5.08 1.33 8.29 3.29 12 7 C15 12.2 15.89 17.1 15 23 C13.5 25.56 13.5 25.56 12 27 C12.33 24.69 12.66 22.38 13 20 C12.34 20 11.68 20 11 20 C10.67 20.66 10.34 21.32 10 22 C10.14 21.46 10.29 20.93 10.44 20.38 C11.98 14.18 11.98 14.18 11 8 C10.34 8 9.68 8 9 8 C9 7.34 9 6.68 9 6 C7.68 5.67 6.36 5.34 5 5 C5 4.34 5 3.68 5 3 C2.03 2.5 2.03 2.5 -1 2 C-0.67 1.34 -0.34 0.68 0 0 Z " fill="#6E7FD1" transform="translate(136,82)"/>
<path d="M0 0 C-6.75 4 -6.75 4 -9 4 C-9 4.66 -9 5.32 -9 6 C-10.98 6 -12.96 6 -15 6 C-15 6.66 -15 7.32 -15 8 C-15.66 8 -16.32 8 -17 8 C-17 9.98 -17 11.96 -17 14 C-15.68 14.33 -14.36 14.66 -13 15 C-14.98 15.66 -16.96 16.32 -19 17 C-20 16 -20 16 -20.56 12.25 C-20.52 9.57 -20.43 8.44 -18.53 6.5 C-16.41 5.15 -14.28 4.06 -12 3 C-11.2 2.6 -10.4 2.19 -9.57 1.77 C-3.48 -1.16 -3.48 -1.16 0 0 Z " fill="#414F9C" transform="translate(470,99)"/>
<path d="M0 0 C0 0.66 0 1.32 0 2 C0.99 2.33 1.98 2.66 3 3 C2.67 4.32 2.34 5.64 2 7 C-1.98 8.33 -5.85 8.07 -10 8 C-10.33 7.34 -10.66 6.68 -11 6 C-8.24 2.78 -4.35 0 0 0 Z " fill="#617BF9" transform="translate(71,79)"/>
<path d="M0 0 C0.66 0.33 1.32 0.66 2 1 C2 1.99 2 2.98 2 4 C1.34 4 0.68 4 0 4 C0 5.32 0 6.64 0 8 C0.66 8.33 1.32 8.66 2 9 C2 9.66 2 10.32 2 11 C2.66 11 3.32 11 4 11 C4 10.34 4 9.68 4 9 C5.65 9 7.3 9 9 9 C9.33 7.35 9.66 5.7 10 4 C10.33 4 10.66 4 11 4 C10.25 10.75 10.25 10.75 8 13 C2.82 13.67 2.82 13.67 0 13 C-2.5 10 -2.5 10 -4 7 C-1.12 1.12 -1.12 1.12 0 0 Z " fill="#566CD4" transform="translate(162,49)"/>
<path d="M0 0 C0.33 0 0.66 0 1 0 C1.66 3.3 2.32 6.6 3 10 C4.32 10.33 5.64 10.66 7 11 C7 12.32 7 13.64 7 15 C6.34 15 5.68 15 5 15 C4.34 16.98 3.68 18.96 3 21 C0.25 17.87 -0.43 15.7 -0.69 11.56 C-0.75 10.64 -0.82 9.71 -0.89 8.75 C-0.99 6.16 -1.1 3.6 -1 1 C-0.67 0.67 -0.34 0.34 0 0 Z " fill="#4866D3" transform="translate(265,87)"/>
<path d="M0 0 C1.32 0.33 2.64 0.66 4 1 C4 2.98 4 4.96 4 7 C3.34 7 2.68 7 2 7 C2 18.22 2 29.44 2 41 C1.67 41 1.34 41 1 41 C0.99 40.03 0.98 39.06 0.97 38.07 C0.93 34.45 0.87 30.84 0.79 27.23 C0.76 25.67 0.74 24.11 0.73 22.55 C0.71 20.3 0.66 18.05 0.61 15.8 C0.61 15.11 0.61 14.42 0.61 13.71 C0.45 8.54 -0.91 5.95 -4 2 C-3.01 2.33 -2.02 2.66 -1 3 C-0.67 2.01 -0.34 1.02 0 0 Z " fill="#2F42A1" transform="translate(354,78)"/>
<path d="M0 0 C2 2 2 2 2.23 4.98 C2.22 6.23 2.21 7.47 2.2 8.76 C2.19 9.42 2.19 10.08 2.19 10.77 C2.18 12.89 2.15 15.01 2.12 17.12 C2.11 18.56 2.11 20 2.1 21.43 C2.08 24.96 2.04 28.48 2 32 C1.01 32 0.02 32 -1 32 C-1.02 27.76 -1.04 23.53 -1.05 19.29 C-1.06 17.85 -1.07 16.41 -1.08 14.97 C-1.09 12.9 -1.09 10.83 -1.1 8.76 C-1.1 7.51 -1.11 6.27 -1.11 4.98 C-1 2 -1 2 0 0 Z " fill="#36479F" transform="translate(215,86)"/>
<path d="M0 0 C2 1 2 1 3 2 C3 3.67 3 5.33 3 7 C4.65 7 6.3 7 8 7 C8.33 7.66 8.66 8.32 9 9 C6.36 9.33 3.72 9.66 1 10 C0 7 0 7 1 4 C0.01 4 -0.98 4 -2 4 C-2.33 4.66 -2.66 5.32 -3 6 C-6.68 5.4 -10.35 4.75 -14 4 C-14 3.34 -14 2.68 -14 2 C-12.99 2.03 -12.99 2.03 -11.95 2.07 C-11.06 2.09 -10.17 2.11 -9.25 2.12 C-8.37 2.15 -7.49 2.17 -6.58 2.2 C-3.87 1.99 -2.37 1.23 0 0 Z " fill="#516CCA" transform="translate(340,71)"/>
<path d="M0 0 C1.32 0.33 2.64 0.66 4 1 C4.29 4.38 4.41 7.63 4 11 C2.12 12.88 2.12 12.88 -1 14 C-1.82 14.35 -2.64 14.69 -3.49 15.05 C-10.49 18 -10.49 18 -13 18 C-13 16.35 -13 14.7 -13 13 C-11.93 13.02 -10.86 13.04 -9.75 13.06 C-6.85 13.01 -4.71 12.87 -2 12 C-2 11.34 -2 10.68 -2 10 C-0.68 10 0.64 10 2 10 C1.34 6.7 0.68 3.4 0 0 Z " fill="#5A6CC7" transform="translate(492,85)"/>
<path d="M0 0 C0.33 0 0.66 0 1 0 C1 1.98 1 3.96 1 6 C1.66 6.33 2.32 6.66 3 7 C3 16.9 3 26.8 3 37 C2.34 37 1.68 37 1 37 C0.67 24.79 0.34 12.58 0 0 Z " fill="#9598D0" transform="translate(363,82)"/>
<path d="M0 0 C1.65 0.99 3.3 1.98 5 3 C4.65 3.48 4.3 3.96 3.94 4.46 C3.49 5.09 3.03 5.72 2.56 6.38 C2.11 7 1.66 7.63 1.19 8.27 C-0.06 9.99 -0.06 9.99 -1 12 C-1.7 11.38 -2.4 10.76 -3.12 10.12 C-6.06 7.96 -8.51 6.97 -12 6 C-12 5.67 -12 5.34 -12 5 C-8.92 4.71 -8.92 4.71 -5.85 4.41 C-5.24 4.28 -4.63 4.14 -4 4 C-3.67 3.34 -3.34 2.68 -3 2 C-2.01 2 -1.02 2 0 2 C0 1.34 0 0.68 0 0 Z " fill="#4F64D1" transform="translate(302,74)"/>
<path d="M0 0 C5 0 10 0 15 0 C15 0.66 15 1.32 15 2 C15.66 2.33 16.32 2.66 17 3 C16.01 3 15.02 3 14 3 C14 4.98 14 6.96 14 9 C13.01 8.34 12.02 7.68 11 7 C11 6.34 11 5.68 11 5 C9.74 4.65 8.48 4.3 7.19 3.94 C6.48 3.74 5.77 3.54 5.04 3.34 C2.81 2.8 2.81 2.8 0 4 C0 2.68 0 1.36 0 0 Z " fill="#5676EE" transform="translate(202,77)"/>
<path d="M0 0 C8.57 1 8.57 1 12 2 C12 2.66 12 3.32 12 4 C12.66 4 13.32 4 14 4 C14.33 4.99 14.66 5.98 15 7 C13.68 7.33 12.36 7.66 11 8 C11 7.34 11 6.68 11 6 C10.34 5.67 9.68 5.34 9 5 C8.67 5.33 8.34 5.66 8 6 C5.67 6.04 3.33 6.04 1 6 C0.67 4.02 0.34 2.04 0 0 Z " fill="#627CFB" transform="translate(57,93)"/>
<path d="M0 0 C5.01 1.28 7.71 3 11 7 C12.81 10.3 14 13.18 14 17 C12.19 16.94 12.19 16.94 10 16 C8.85 13.66 7.9 11.43 7 9 C5.68 5.68 5.68 5.68 4 3 C1.92 2.04 1.92 2.04 0 2 C0 1.34 0 0.68 0 0 Z " fill="#5F6CBA" transform="translate(352,71)"/>
<path d="M0 0 C1.39 0.09 1.39 0.09 2.81 0.19 C1.01 1.39 -0.81 2.55 -2.69 3.62 C-6.58 6.03 -6.58 6.03 -8.76 9.89 C-9.3 12.78 -9.28 15.51 -9.25 18.44 C-9.24 19.52 -9.23 20.59 -9.22 21.7 C-9.21 22.52 -9.2 23.34 -9.19 24.19 C-11.19 22.19 -11.19 22.19 -11.41 20.22 C-11.4 19.43 -11.39 18.65 -11.38 17.84 C-11.38 16.99 -11.37 16.13 -11.36 15.26 C-11.35 14.37 -11.33 13.48 -11.31 12.56 C-11.3 11.67 -11.29 10.77 -11.29 9.84 C-11.26 7.62 -11.23 5.41 -11.19 3.19 C-10.39 3.22 -9.6 3.25 -8.78 3.28 C-6.14 3.49 -6.14 3.49 -4.75 1.69 C-3.19 0.19 -3.19 0.19 0 0 Z " fill="#5665A4" transform="translate(285.1875,78.8125)"/>
<path d="M0 0 C0.33 0.66 0.66 1.32 1 2 C-1.51 8.51 -1.51 8.51 -3 10 C-3.23 11.35 -3.41 12.7 -3.56 14.06 C-3.78 16.01 -3.78 16.01 -4 18 C-3.01 18.33 -2.02 18.66 -1 19 C-1.33 20.65 -1.66 22.3 -2 24 C-4.58 22.71 -4.93 21.64 -6 19 C-7.06 13.09 -6.35 8.87 -3 3.88 C-2.02 2.57 -1.03 1.27 0 0 Z " fill="#3953A9" transform="translate(109,56)"/>
<path d="M0 0 C0.33 0 0.66 0 1 0 C1.33 2.97 1.66 5.94 2 9 C1.01 9.33 0.02 9.66 -1 10 C-4.17 12.41 -4.92 15.26 -6 19 C-6.66 19 -7.32 19 -8 19 C-6 12.28 -3.27 6.19 0 0 Z " fill="#4D65CC" transform="translate(420,86)"/>
<path d="M0 0 C-1.98 0.66 -3.96 1.32 -6 2 C-6.33 3.65 -6.66 5.3 -7 7 C-8.98 7 -10.96 7 -13 7 C-13.33 8.65 -13.66 10.3 -14 12 C-15.12 10.25 -15.12 10.25 -16 8 C-15.08 5.03 -14.19 4.11 -11.5 2.48 C-10.53 2.05 -9.56 1.63 -8.56 1.19 C-7.59 0.75 -6.63 0.31 -5.63 -0.14 C-3 -1 -3 -1 0 0 Z " fill="#4C61C1" transform="translate(67,81)"/>
<path d="M0 0 C1.21 2.33 2.17 4.5 3 7 C-0.75 10.88 -0.75 10.88 -3 12 C-3 12.66 -3 13.32 -3 14 C-7.46 14.5 -7.46 14.5 -12 15 C-9 12 -9 12 -6.5 11.06 C-3.52 9.8 -2.57 8.82 -1 6 C-0.28 2.85 -0.28 2.85 0 0 Z " fill="#5470C2" transform="translate(140,98)"/>
<path d="M0 0 C0.99 0.33 1.98 0.66 3 1 C1.68 2.32 0.36 3.64 -1 5 C-0.34 5 0.32 5 1 5 C1 5.66 1 6.32 1 7 C1.66 7 2.32 7 3 7 C3 7.66 3 8.32 3 9 C1.02 9.33 -0.96 9.66 -3 10 C-3 9.34 -3 8.68 -3 8 C-3.45 8.45 -3.91 8.91 -4.38 9.38 C-5.58 10.58 -6.79 11.79 -8 13 C-7.48 8.83 -6.29 6.75 -3.44 3.69 C-2.8 2.99 -2.16 2.29 -1.5 1.57 C-1 1.05 -0.51 0.54 0 0 Z " fill="#4363C9" transform="translate(274,74)"/>
<path d="M0 0 C1.98 0 3.96 0 6 0 C3.38 2.62 0.36 3.72 -3 5.12 C-3.64 5.4 -4.28 5.68 -4.95 5.96 C-9.74 8 -9.74 8 -12 8 C-12 7.34 -12 6.68 -12 6 C-11.34 6 -10.68 6 -10 6 C-10 5.01 -10 4.02 -10 3 C-6.7 2.67 -3.4 2.34 0 2 C0 1.34 0 0.68 0 0 Z " fill="#5E6CC7" transform="translate(469,105)"/>
<path d="M0 0 C2.5 0.31 2.5 0.31 5 1 C5.33 1.66 5.66 2.32 6 3 C4.68 3.33 3.36 3.66 2 4 C2.66 6.31 3.32 8.62 4 11 C1.53 10.01 1.53 10.01 -1 9 C-1.1 2.85 -1.1 2.85 -1 1 C-0.67 0.67 -0.34 0.34 0 0 Z " fill="#37469C" transform="translate(104,105)"/>
<path d="M0 0 C0 0.66 0 1.32 0 2 C-0.66 2 -1.32 2 -2 2 C-2.33 3.32 -2.66 4.64 -3 6 C-2.34 6.33 -1.68 6.66 -1 7 C-0.67 7.66 -0.34 8.32 0 9 C-2.47 10.48 -2.47 10.48 -5 12 C-5.33 11.01 -5.66 10.02 -6 9 C-5.34 9 -4.68 9 -4 9 C-4 8.34 -4 7.68 -4 7 C-4.99 6.67 -5.98 6.34 -7 6 C-6.69 4.12 -6.69 4.12 -6 2 C-3 0 -3 0 0 0 Z " fill="#5166C9" transform="translate(201,72)"/>
<path d="M0 0 C0.33 0 0.66 0 1 0 C1.33 2.31 1.66 4.62 2 7 C0.68 7.33 -0.64 7.66 -2 8 C-2 9.98 -2 11.96 -2 14 C-3.32 14.33 -4.64 14.66 -6 15 C-4.36 9.77 -2.61 4.85 0 0 Z " fill="#4469D2" transform="translate(435,54)"/>
<path d="M0 0 C1.98 0 3.96 0 6 0 C6 0.66 6 1.32 6 2 C4.38 2.84 2.75 3.67 1.12 4.5 C0.22 4.96 -0.68 5.43 -1.62 5.91 C-4 7 -4 7 -6 7 C-6 7.66 -6 8.32 -6 9 C-4.68 9.66 -3.36 10.32 -2 11 C-6.75 10.12 -6.75 10.12 -9 9 C-9 8.34 -9 7.68 -9 7 C-7.02 6.34 -5.04 5.68 -3 5 C-3 4.34 -3 3.68 -3 3 C-1.68 3 -0.36 3 1 3 C0.67 2.01 0.34 1.02 0 0 Z " fill="#485397" transform="translate(72,83)"/>
<path d="M0 0 C5.88 1.88 5.88 1.88 7 3 C7.14 5.67 7.04 8.32 7 11 C6.01 11.5 6.01 11.5 5 12 C4.01 11.34 3.02 10.68 2 10 C2.66 10 3.32 10 4 10 C4 7.69 4 5.38 4 3 C2.68 2.67 1.36 2.34 0 2 C0 1.34 0 0.68 0 0 Z " fill="#4F5CA4" transform="translate(91,104)"/>
<path d="M0 0 C5.75 1.75 5.75 1.75 8 4 C5.51 5.25 4.59 4.78 2 4 C2.66 6.31 3.32 8.62 4 11 C2.68 10.67 1.36 10.34 0 10 C0 6.7 0 3.4 0 0 Z " fill="#3E52AC" transform="translate(451,66)"/>
<path d="M0 0 C0.99 0.33 1.98 0.66 3 1 C3 1.99 3 2.98 3 4 C3.66 4 4.32 4 5 4 C5 4.66 5 5.32 5 6 C6.32 6.33 7.64 6.66 9 7 C7 8 7 8 4.98 7.33 C-2.85 3.74 -2.85 3.74 -6 1 C-3.03 1.5 -3.03 1.5 0 2 C0 1.34 0 0.68 0 0 Z " fill="#4E63C7" transform="translate(65,97)"/>
<path d="M0 0 C1.44 0.14 2.88 0.29 4.31 0.44 C5.11 0.52 5.91 0.6 6.74 0.68 C9 1 9 1 12 2 C12 2.99 12 3.98 12 5 C10.02 5.33 8.04 5.66 6 6 C6 5.34 6 4.68 6 4 C5.34 4 4.68 4 4 4 C4 3.34 4 2.68 4 2 C2.68 2 1.36 2 0 2 C0 1.34 0 0.68 0 0 Z " fill="#5A6FC9" transform="translate(113,109)"/>
<path d="M0 0 C0.33 0.66 0.66 1.32 1 2 C1.66 2.33 2.32 2.66 3 3 C3 3.99 3 4.98 3 6 C3.66 6.33 4.32 6.66 5 7 C5.62 9.06 5.62 9.06 6 11 C3.08 9.93 1.22 9.22 -1 7 C-1.19 3.94 -1.19 3.94 -1 1 C-0.67 0.67 -0.34 0.34 0 0 Z " fill="#4E64CE" transform="translate(108,75)"/>
<path d="M0 0 C0 0.66 0 1.32 0 2 C3.96 2 7.92 2 12 2 C12 2.33 12 2.66 12 3 C9.6 3.05 7.21 3.09 4.81 3.12 C3.8 3.15 3.8 3.15 2.77 3.18 C-1.29 3.22 -4.35 2.8 -8 1 C-8 0.67 -8 0.34 -8 0 C-4.71 -0.8 -3.29 -1.1 0 0 Z " fill="#5265CB" transform="translate(285,117)"/>
<path d="M0 0 C0.66 0 1.32 0 2 0 C1.52 6.03 -1.2 10.77 -4 16 C-4.66 14.68 -5.32 13.36 -6 12 C-5.01 11.67 -4.02 11.34 -3 11 C-2.67 9.02 -2.34 7.04 -2 5 C-1.34 5 -0.68 5 0 5 C0 3.35 0 1.7 0 0 Z " fill="#5C6AB1" transform="translate(423,96)"/>
<path d="M0 0 C0.41 0.64 0.83 1.28 1.25 1.94 C3.18 4.21 4.11 4.6 7 5 C7 6.32 7 7.64 7 9 C1.12 7.12 1.12 7.12 0 6 C-0.04 4 -0.04 2 0 0 Z " fill="#5B79CC" transform="translate(51,89)"/>
<path d="M0 0 C5.62 -0.25 5.62 -0.25 9 2 C9 2.66 9 3.32 9 4 C9.66 4.33 10.32 4.66 11 5 C10.01 6.48 10.01 6.48 9 8 C8.26 7.24 7.51 6.47 6.75 5.69 C4.57 3.56 2.48 1.74 0 0 Z " fill="#4355B4" transform="translate(130,90)"/>
<path d="M0 0 C2 2 2 2 2.2 4.82 C2.16 6.46 2.16 6.46 2.12 8.12 C2.11 9.22 2.09 10.32 2.07 11.45 C2.05 12.29 2.02 13.13 2 14 C1.34 14 0.68 14 0 14 C0 14.66 0 15.32 0 16 C-0.66 16 -1.32 16 -2 16 C-1.67 15.22 -1.34 14.43 -1 13.62 C0.27 9.01 0.17 4.76 0 0 Z " fill="#364AA4" transform="translate(303,89)"/>
<path d="M0 0 C4.47 1.42 8.71 3.11 13 5 C13 5.33 13 5.66 13 6 C11.02 6 9.04 6 7 6 C7 5.34 7 4.68 7 4 C5.35 4 3.7 4 2 4 C1.34 2.68 0.68 1.36 0 0 Z " fill="#5969C3" transform="translate(479,79)"/>
<path d="M0 0 C2.69 -0.31 2.69 -0.31 6 0 C8.88 2.5 8.88 2.5 11 5 C9.01 4.45 7.03 3.89 5.04 3.34 C2.81 2.8 2.81 2.8 0 4 C0 2.68 0 1.36 0 0 Z " fill="#4959AE" transform="translate(202,77)"/>
<path d="M0 0 C0.33 0 0.66 0 1 0 C1.05 0.61 1.1 1.23 1.15 1.86 C1.22 2.67 1.3 3.48 1.38 4.31 C1.44 5.11 1.51 5.91 1.59 6.74 C1.9 9.27 1.9 9.27 4 12 C1.53 11.01 1.53 11.01 -1 10 C-1.12 2.25 -1.12 2.25 0 0 Z " fill="#485290" transform="translate(114,65)"/>
<path d="M0 0 C5.75 1.88 5.75 1.88 8 3 C7.34 5.97 6.68 8.94 6 12 C5.67 12 5.34 12 5 12 C4.73 10.76 4.46 9.53 4.19 8.25 C3.36 4.9 2.37 2.59 0 0 Z " fill="#3248AD" transform="translate(240,80)"/>
<path d="M0 0 C2.06 0.44 2.06 0.44 4 1 C4 3.64 4 6.28 4 9 C3.01 9.5 3.01 9.5 2 10 C2 7.36 2 4.72 2 2 C1.01 1.67 0.02 1.34 -1 1 C-0.67 0.67 -0.34 0.34 0 0 Z " fill="#41487A" transform="translate(94,66)"/>
<path d="M0 0 C0.33 0.99 0.66 1.98 1 3 C-0.25 5.19 -0.25 5.19 -2 7 C-2.99 7 -3.98 7 -5 7 C-4.49 4.83 -4 3 -3 1 C-2.01 0.67 -1.02 0.34 0 0 Z " fill="#4C62C4" transform="translate(441,46)"/>
<path d="M0 0 C0.99 0.33 1.98 0.66 3 1 C2.01 1.66 1.02 2.32 0 3 C-1.21 6.05 -1.21 6.05 -2 9 C-3.12 7.25 -3.12 7.25 -4 5 C-3.07 2.3 -2.58 1.29 0 0 Z " fill="#364596" transform="translate(55,84)"/>
<path d="M0 0 C0.78 0.8 1.57 1.61 2.38 2.44 C4.72 4.99 4.72 4.99 7 6 C6.67 6.66 6.34 7.32 6 8 C2.7 6.35 -0.6 4.7 -4 3 C-2.68 2.67 -1.36 2.34 0 2 C0 1.34 0 0.68 0 0 Z " fill="#3E61B5" transform="translate(468,79)"/>
<path d="M0 0 C0.33 0.66 0.66 1.32 1 2 C-0.62 4.06 -0.62 4.06 -3 6 C-6.25 5.75 -6.25 5.75 -9 5 C-6.35 2.35 -3.44 1.4 0 0 Z " fill="#3C4B99" transform="translate(299,107)"/>
<path d="M0 0 C1.21 2.33 2.17 4.5 3 7 C1.02 8.32 -0.96 9.64 -3 11 C-2.69 10.3 -2.38 9.6 -2.06 8.88 C-0.97 5.91 -0.44 3.12 0 0 Z " fill="#384EB8" transform="translate(140,98)"/>
<path d="M0 0 C0.33 0 0.66 0 1 0 C1.47 8.19 1.47 8.19 -0.5 11.56 C-1 12.04 -1.49 12.51 -2 13 C-1.86 11.58 -1.71 10.17 -1.56 8.75 C-1.48 7.96 -1.4 7.17 -1.32 6.36 C-1.02 4.18 -0.58 2.12 0 0 Z " fill="#555B94" transform="translate(150,96)"/>
<path d="M0 0 C1.98 0 3.96 0 6 0 C6 1.32 6 2.64 6 4 C5.34 4 4.68 4 4 4 C3.67 4.66 3.34 5.32 3 6 C3 5.01 3 4.02 3 3 C2.01 3 1.02 3 0 3 C0 2.01 0 1.02 0 0 Z " fill="#7F89D3" transform="translate(442,46)"/>
<path d="M0 0 C2.97 0.5 2.97 0.5 6 1 C6 1.99 6 2.98 6 4 C6.66 4.33 7.32 4.66 8 5 C4.85 4.3 1.97 3.24 -1 2 C-0.67 1.34 -0.34 0.68 0 0 Z " fill="#5063C2" transform="translate(456,76)"/>
<path d="M0 0 C0.33 0 0.66 0 1 0 C1 2.64 1 5.28 1 8 C-0.32 8.33 -1.64 8.66 -3 9 C-2.01 6.03 -1.02 3.06 0 0 Z " fill="#384FB0" transform="translate(432,60)"/>
<path d="M0 0 C0.66 0.33 1.32 0.66 2 1 C1.34 1.66 0.68 2.32 0 3 C-0.46 4.97 -0.46 4.97 -0.62 7.12 C-0.75 8.4 -0.87 9.68 -1 11 C-1.99 9.68 -2.98 8.36 -4 7 C-1.12 1.12 -1.12 1.12 0 0 Z " fill="#30479A" transform="translate(162,49)"/>
<path d="M0 0 C0.33 0 0.66 0 1 0 C1 1.98 1 3.96 1 6 C0.34 6 -0.32 6 -1 6 C-1.33 6.99 -1.66 7.98 -2 9 C-2.33 8.34 -2.66 7.68 -3 7 C-2.06 4.64 -1.07 2.3 0 0 Z " fill="#324BAA" transform="translate(420,86)"/>
<path d="M0 0 C5.75 1.75 5.75 1.75 8 4 C7.01 4.33 6.02 4.66 5 5 C5 4.34 5 3.68 5 3 C2.03 2.5 2.03 2.5 -1 2 C-0.67 1.34 -0.34 0.68 0 0 Z " fill="#4E64B1" transform="translate(136,82)"/>
<path d="M0 0 C0.33 0 0.66 0 1 0 C1 3.3 1 6.6 1 10 C0.01 10 -0.98 10 -2 10 C-2.66 9.34 -3.32 8.68 -4 8 C-2.68 8 -1.36 8 0 8 C0 5.36 0 2.72 0 0 Z " fill="#4F5F98" transform="translate(146,54)"/>
</svg>
